<svg width="24" height="24" viewBox="0 0 24 24" fill="none" xmlns="http://www.w3.org/2000/svg">
<g clip-path="url(#clip0_1126_1015)">
<path d="M16.82 4.17676C16.6137 3.59321 16.2319 3.08775 15.7271 2.72969C15.2222 2.37163 14.6189 2.1785 14 2.17676H10C9.38106 2.1785 8.7778 2.37163 8.27293 2.72969C7.76807 3.08775 7.38631 3.59321 7.17999 4.17676H4V22.1768H20V4.17676H16.82ZM8.71001 13.1768L10.22 14.6868L15.29 9.61676L16.71 11.0368L10.22 17.5168L7.28999 14.5868L8.71001 13.1768ZM10 4.17676H14C14.2652 4.17676 14.5196 4.28211 14.7071 4.46965C14.8946 4.65719 15 4.91154 15 5.17676C15 5.44197 14.8946 5.69633 14.7071 5.88387C14.5196 6.0714 14.2652 6.17676 14 6.17676H10C9.73478 6.17676 9.48043 6.0714 9.29289 5.88387C9.10536 5.69633 9 5.44197 9 5.17676C9 4.91154 9.10536 4.65719 9.29289 4.46965C9.48043 4.28211 9.73478 4.17676 10 4.17676Z" fill="#5138E5"/>
</g>
<defs>
<clipPath id="clip0_1126_1015">
<rect width="24" height="24" fill="white"/>
</clipPath>
</defs>
</svg>
