<svg width="24" height="24" viewBox="0 0 24 24" fill="none" xmlns="http://www.w3.org/2000/svg">
<g clip-path="url(#clip0_1053_522)">
<path d="M16 10.1768H8V12.1768H16V10.1768Z" fill="#5138E5"/>
<path d="M13 14.1768H8V16.1768H13V14.1768Z" fill="#5138E5"/>
<path d="M16.82 4.17676C16.6137 3.59321 16.2319 3.08776 15.7271 2.7297C15.2222 2.37164 14.6189 2.1785 14 2.17676H10C9.38106 2.1785 8.7778 2.37164 8.27294 2.7297C7.76807 3.08776 7.38631 3.59321 7.18 4.17676H4V22.1768H20V4.17676H16.82ZM9 5.17676C9 4.91154 9.10536 4.65719 9.29289 4.46965C9.48043 4.28211 9.73478 4.17676 10 4.17676H14C14.2652 4.17676 14.5196 4.28211 14.7071 4.46965C14.8946 4.65719 15 4.91154 15 5.17676C15 5.44197 14.8946 5.69633 14.7071 5.88386C14.5196 6.0714 14.2652 6.17676 14 6.17676H10C9.73478 6.17676 9.48043 6.0714 9.29289 5.88386C9.10536 5.69633 9 5.44197 9 5.17676ZM18 20.1768H6V6.17676H7.18C7.38631 6.76031 7.76807 7.26576 8.27294 7.62382C8.7778 7.98188 9.38106 8.17502 10 8.17676H14C14.6189 8.17502 15.2222 7.98188 15.7271 7.62382C16.2319 7.26576 16.6137 6.76031 16.82 6.17676H18V20.1768Z" fill="#5138E5"/>
</g>
<defs>
<clipPath id="clip0_1053_522">
<rect width="16" height="20" fill="white" transform="translate(4 2.17676)"/>
</clipPath>
</defs>
</svg>
