<svg width="24" height="24" viewBox="0 0 24 24" fill="none" xmlns="http://www.w3.org/2000/svg">
<path fill-rule="evenodd" clip-rule="evenodd" d="M17 8C17 10.7614 14.7614 13 12 13C9.23858 13 7 10.7614 7 8C7 5.23858 9.23858 3 12 3C14.7614 3 17 5.23858 17 8ZM14.3536 14.5155C15.0978 14.1982 15.77 13.7337 16.33 13.1499C17.6562 13.4514 18.8406 14.1945 19.6891 15.2574C20.5376 16.3202 20.9998 17.6399 21 18.9999V20.9999H3V18.9999C3.00017 17.6399 3.46238 16.3202 4.31088 15.2574C5.15938 14.1945 6.3438 13.4514 7.67 13.1499C8.22999 13.7337 8.90224 14.1982 9.64635 14.5155C10.3905 14.8329 11.1911 14.9965 12 14.9965C12.8089 14.9965 13.6095 14.8329 14.3536 14.5155Z" fill="#5138E5"/>
</svg>
