<svg width="24" height="24" viewBox="0 0 24 24" fill="none" xmlns="http://www.w3.org/2000/svg">
<path fill-rule="evenodd" clip-rule="evenodd" d="M8 14.1768H16C17.3261 14.1768 18.5979 14.7035 19.5355 15.6412C20.4732 16.5789 21 17.8507 21 19.1768V21.1768H3V19.1768C3 17.8507 3.52678 16.5789 4.46447 15.6412C5.40215 14.7035 6.67392 14.1768 8 14.1768Z" fill="#5138E5"/>
<path fill-rule="evenodd" clip-rule="evenodd" d="M9.22215 4.01941C10.0444 3.47 11.0111 3.17676 12 3.17676C13.3261 3.17676 14.5979 3.70354 15.5355 4.64122C16.4732 5.57891 17 6.85068 17 8.17676C17 9.16566 16.7068 10.1324 16.1574 10.9546C15.6079 11.7769 14.8271 12.4177 13.9134 12.7962C12.9998 13.1746 11.9945 13.2736 11.0246 13.0807C10.0546 12.8878 9.16373 12.4116 8.46447 11.7123C7.76521 11.013 7.289 10.1221 7.09608 9.15221C6.90315 8.18231 7.00217 7.17697 7.3806 6.26334C7.75904 5.34971 8.39991 4.56882 9.22215 4.01941Z" fill="#5138E5"/>
</svg>
