<svg width="24" height="24" viewBox="0 0 24 24" fill="none" xmlns="http://www.w3.org/2000/svg">
<g clip-path="url(#clip0_1054_506)">
<path fill-rule="evenodd" clip-rule="evenodd" d="M4.17 4.17676C4.07611 4.17676 4 4.25287 4 4.34676V9.00676C4 9.10065 4.07611 9.17676 4.17 9.17676H8.83C8.92389 9.17676 9 9.10065 9 9.00676V4.34676C9 4.25287 8.92389 4.17676 8.83 4.17676H4.17ZM2 4.34676C2 3.1483 2.97154 2.17676 4.17 2.17676H8.83C10.0285 2.17676 11 3.1483 11 4.34676V9.00676C11 10.2052 10.0285 11.1768 8.83 11.1768H4.17C2.97154 11.1768 2 10.2052 2 9.00676V4.34676Z" fill="#5138E5"/>
<path fill-rule="evenodd" clip-rule="evenodd" d="M4.17 15.1768C4.07611 15.1768 4 15.2529 4 15.3468V20.0068C4 20.1006 4.07611 20.1768 4.17 20.1768H8.83C8.92389 20.1768 9 20.1006 9 20.0068V15.3468C9 15.2529 8.92389 15.1768 8.83 15.1768H4.17ZM2 15.3468C2 14.1483 2.97154 13.1768 4.17 13.1768H8.83C10.0285 13.1768 11 14.1483 11 15.3468V20.0068C11 21.2052 10.0285 22.1768 8.83 22.1768H4.17C2.97154 22.1768 2 21.2052 2 20.0068V15.3468Z" fill="#5138E5"/>
<path fill-rule="evenodd" clip-rule="evenodd" d="M15.17 4.17676C15.0761 4.17676 15 4.25287 15 4.34676V9.00676C15 9.10065 15.0761 9.17676 15.17 9.17676H19.83C19.9239 9.17676 20 9.10065 20 9.00676V4.34676C20 4.25287 19.9239 4.17676 19.83 4.17676H15.17ZM13 4.34676C13 3.1483 13.9715 2.17676 15.17 2.17676H19.83C21.0285 2.17676 22 3.1483 22 4.34676V9.00676C22 10.2052 21.0285 11.1768 19.83 11.1768H15.17C13.9715 11.1768 13 10.2052 13 9.00676V4.34676Z" fill="#5138E5"/>
<path fill-rule="evenodd" clip-rule="evenodd" d="M15.17 15.1768C15.0761 15.1768 15 15.2529 15 15.3468V20.0068C15 20.1006 15.0761 20.1768 15.17 20.1768H19.83C19.9239 20.1768 20 20.1006 20 20.0068V15.3468C20 15.2529 19.9239 15.1768 19.83 15.1768H15.17ZM13 15.3468C13 14.1483 13.9715 13.1768 15.17 13.1768H19.83C21.0285 13.1768 22 14.1483 22 15.3468V20.0068C22 21.2052 21.0285 22.1768 19.83 22.1768H15.17C13.9715 22.1768 13 21.2052 13 20.0068V15.3468Z" fill="#5138E5"/>
</g>
<defs>
<clipPath id="clip0_1054_506">
<rect width="24" height="24" fill="white"/>
</clipPath>
</defs>
</svg>
