<svg width="20" height="20" viewBox="0 0 20 20" fill="none" xmlns="http://www.w3.org/2000/svg">
<path d="M17.5 9.5H10.5V2.5C10.5 2.36739 10.4473 2.24021 10.3536 2.14645C10.2598 2.05268 10.1326 2 10 2C9.86739 2 9.74021 2.05268 9.64645 2.14645C9.55268 2.24021 9.5 2.36739 9.5 2.5V9.5H2.5C2.36739 9.5 2.24021 9.55268 2.14645 9.64645C2.05268 9.74021 2 9.86739 2 10C2 10.1326 2.05268 10.2598 2.14645 10.3536C2.24021 10.4473 2.36739 10.5 2.5 10.5H9.5V17.5C9.5 17.6326 9.55268 17.7598 9.64645 17.8536C9.74021 17.9473 9.86739 18 10 18C10.1326 18 10.2598 17.9473 10.3536 17.8536C10.4473 17.7598 10.5 17.6326 10.5 17.5V10.5H17.5C17.6326 10.5 17.7598 10.4473 17.8536 10.3536C17.9473 10.2598 18 10.1326 18 10C18 9.86739 17.9473 9.74021 17.8536 9.64645C17.7598 9.55268 17.6326 9.5 17.5 9.5Z" fill="#2B2B2B"/>
</svg>
