<svg width="200" height="60" viewBox="0 0 200 60" fill="none" xmlns="http://www.w3.org/2000/svg">
<rect width="200" height="60" rx="30" fill="#111111"/>
<path d="M81.032 22.496H83.432C86.048 22.496 87.224 21.02 87.224 18.488V18.26C87.224 15.692 85.868 14.444 83.42 14.444H81.032V22.496ZM81.98 21.68V15.26H83.324C85.172 15.26 86.192 16.028 86.192 18.26V18.62C86.192 20.768 85.352 21.68 83.456 21.68H81.98ZM90.9967 22.604C92.6047 22.604 93.7087 21.476 93.7087 19.58V19.412C93.7087 17.528 92.6887 16.436 91.0087 16.436C89.4007 16.436 88.3087 17.564 88.3087 19.448V19.628C88.3087 21.524 89.3167 22.604 90.9967 22.604ZM91.0207 21.848C90.0247 21.848 89.2447 21.308 89.2447 19.652V19.352C89.2447 17.96 89.9167 17.192 90.9967 17.192C91.9687 17.192 92.7727 17.732 92.7727 19.388V19.688C92.7727 21.092 92.1007 21.848 91.0207 21.848ZM96.2428 22.496H97.1788L98.5828 17.96H98.6188L99.9988 22.496H100.923L102.615 16.544H101.739L100.515 21.308H100.467L99.0268 16.544H98.2348L96.8068 21.308H96.7588L95.5348 16.544H94.5508L96.2428 22.496ZM103.821 22.496H104.733V17.66C105.225 17.432 105.849 17.228 106.413 17.228C107.361 17.228 107.613 17.528 107.613 18.248V22.496H108.525V18.056C108.525 16.904 107.961 16.436 106.797 16.436C106.065 16.436 105.297 16.7 104.745 17.06H104.697V16.544H103.821V22.496ZM110.279 22.496H111.203V13.904H110.279V22.496ZM115.29 22.604C116.898 22.604 118.002 21.476 118.002 19.58V19.412C118.002 17.528 116.982 16.436 115.302 16.436C113.694 16.436 112.602 17.564 112.602 19.448V19.628C112.602 21.524 113.61 22.604 115.29 22.604ZM115.314 21.848C114.318 21.848 113.538 21.308 113.538 19.652V19.352C113.538 17.96 114.21 17.192 115.29 17.192C116.262 17.192 117.066 17.732 117.066 19.388V19.688C117.066 21.092 116.394 21.848 115.314 21.848ZM120.836 22.604C121.64 22.604 122.144 22.316 122.42 21.98H122.48L122.576 22.496H123.32V18.188C123.32 16.976 122.588 16.436 121.28 16.436C120.596 16.436 120.02 16.544 119.504 16.76V17.42C119.876 17.312 120.344 17.228 120.92 17.228C121.988 17.228 122.396 17.468 122.396 18.392V19.016L120.788 19.208C119.648 19.34 118.976 19.892 118.976 20.936C118.976 22.052 119.756 22.604 120.836 22.604ZM121.064 21.884C120.38 21.884 119.936 21.56 119.936 20.912C119.936 20.228 120.296 19.928 121.028 19.856L122.396 19.7V21.452C122.144 21.704 121.616 21.884 121.064 21.884ZM127.168 22.604C127.972 22.604 128.548 22.352 128.908 22.004H128.956L129.064 22.496H129.832V13.904H128.908V16.832C128.584 16.64 128.08 16.436 127.348 16.436C125.812 16.436 124.696 17.372 124.696 19.532V19.688C124.696 21.884 125.98 22.604 127.168 22.604ZM127.444 21.848C126.376 21.848 125.656 21.32 125.656 19.652V19.412C125.656 17.804 126.34 17.216 127.468 17.216C128.08 17.216 128.632 17.384 128.908 17.6V21.344C128.608 21.584 128.14 21.848 127.444 21.848ZM137.051 22.604C138.659 22.604 139.763 21.476 139.763 19.58V19.412C139.763 17.528 138.743 16.436 137.063 16.436C135.455 16.436 134.363 17.564 134.363 19.448V19.628C134.363 21.524 135.371 22.604 137.051 22.604ZM137.075 21.848C136.079 21.848 135.299 21.308 135.299 19.652V19.352C135.299 17.96 135.971 17.192 137.051 17.192C138.023 17.192 138.827 17.732 138.827 19.388V19.688C138.827 21.092 138.155 21.848 137.075 21.848ZM141.146 22.496H142.058V17.66C142.55 17.432 143.174 17.228 143.738 17.228C144.686 17.228 144.938 17.528 144.938 18.248V22.496H145.85V18.056C145.85 16.904 145.286 16.436 144.122 16.436C143.39 16.436 142.622 16.7 142.07 17.06H142.022V16.544H141.146V22.496ZM152.615 22.568C153.131 22.568 153.383 22.436 153.623 22.328V21.704C153.383 21.776 153.107 21.812 152.855 21.812C152.171 21.812 151.979 21.584 151.979 21.008V17.312H153.503V16.556H151.979V15.14H151.067V16.556H150.215V17.312H151.067V21.152C151.067 22.16 151.679 22.568 152.615 22.568ZM154.927 22.496H155.839V17.672C156.331 17.432 156.955 17.228 157.519 17.228C158.467 17.228 158.719 17.528 158.719 18.248V22.496H159.631V18.068C159.631 16.916 159.067 16.436 157.903 16.436C157.171 16.436 156.415 16.688 155.899 17.06H155.839V13.904H154.927V22.496ZM163.808 22.604C164.768 22.604 165.452 22.304 165.812 22.052V21.368C165.272 21.62 164.744 21.812 163.952 21.812C162.68 21.812 161.972 21.236 161.924 19.748H165.98V19.232C165.98 17.384 165.212 16.436 163.58 16.436C162.212 16.436 160.988 17.36 160.988 19.436V19.604C160.988 21.464 161.936 22.604 163.808 22.604ZM163.556 17.18C164.528 17.18 165.02 17.72 165.02 19.016H161.924C162.02 17.612 162.812 17.18 163.556 17.18Z" fill="white"/>
<path d="M80.195 43.385H81.905L82.835 40.775H86.66L87.59 43.385H89.495L85.835 33.095H83.945L80.195 43.385ZM84.71 35.285H84.755L86.195 39.395H83.27L84.71 35.285ZM90.7759 45.62H92.5009V43.085C92.8759 43.295 93.4459 43.52 94.3009 43.52C96.4009 43.52 97.7959 42.38 97.7959 39.485V39.29C97.7959 36.455 96.3409 35.525 94.7359 35.525C93.7609 35.525 92.9659 35.855 92.5009 36.32H92.4409V35.66H90.7759V45.62ZM94.0609 42.215C93.3859 42.215 92.8009 42.005 92.5009 41.765V37.385C92.8009 37.175 93.3859 36.935 94.1209 36.935C95.3359 36.935 95.9959 37.49 95.9959 39.395V39.71C95.9959 41.585 95.2909 42.215 94.0609 42.215ZM99.4331 45.62H101.158V43.085C101.533 43.295 102.103 43.52 102.958 43.52C105.058 43.52 106.453 42.38 106.453 39.485V39.29C106.453 36.455 104.998 35.525 103.393 35.525C102.418 35.525 101.623 35.855 101.158 36.32H101.098V35.66H99.4331V45.62ZM102.718 42.215C102.043 42.215 101.458 42.005 101.158 41.765V37.385C101.458 37.175 102.043 36.935 102.778 36.935C103.993 36.935 104.653 37.49 104.653 39.395V39.71C104.653 41.585 103.948 42.215 102.718 42.215ZM114.671 43.565C117.161 43.565 118.346 42.35 118.346 40.4C118.346 38.57 117.371 37.895 115.751 37.43L114.791 37.13C113.771 36.845 113.471 36.5 113.471 35.69C113.471 34.865 114.071 34.415 115.151 34.415C116.291 34.415 117.131 34.655 117.776 34.925V33.485C117.206 33.185 116.471 32.93 115.121 32.93C112.796 32.93 111.671 34.115 111.671 35.855C111.671 37.595 112.556 38.375 114.011 38.78L114.986 39.05C116.111 39.395 116.486 39.725 116.486 40.58C116.486 41.51 115.901 42.08 114.521 42.08C113.396 42.08 112.421 41.81 111.596 41.45V42.905C112.301 43.28 113.321 43.565 114.671 43.565ZM122.654 43.475C123.374 43.475 123.794 43.31 124.094 43.16V42.005C123.824 42.08 123.509 42.125 123.209 42.125C122.399 42.125 122.159 41.885 122.159 41.24V37.01H124.004V35.66H122.159V33.845H120.464V35.66H119.384V37.01H120.464V41.48C120.464 42.935 121.319 43.475 122.654 43.475ZM128.893 43.52C131.053 43.52 132.553 42.095 132.553 39.605V39.395C132.553 36.935 131.218 35.525 128.908 35.525C126.733 35.525 125.233 36.965 125.233 39.44V39.68C125.233 42.095 126.538 43.52 128.893 43.52ZM128.923 42.215C127.843 42.215 127.003 41.675 127.003 39.68V39.32C127.003 37.655 127.693 36.83 128.878 36.83C129.928 36.83 130.753 37.37 130.753 39.38V39.755C130.753 41.42 130.078 42.215 128.923 42.215ZM134.15 43.385H135.875V37.64C136.37 37.325 137.06 37.13 137.75 37.13C137.93 37.13 138.185 37.145 138.38 37.175V35.645C138.305 35.615 138.11 35.6 137.9 35.6C137.09 35.6 136.295 36.005 135.875 36.56H135.815V35.66H134.15V43.385ZM143.194 43.52C144.499 43.52 145.399 43.145 145.924 42.8V41.6C145.249 41.945 144.529 42.17 143.539 42.17C142.069 42.17 141.244 41.6 141.139 39.995H146.179V39.275C146.179 36.815 145.189 35.54 142.909 35.54C140.944 35.54 139.369 36.815 139.369 39.41V39.62C139.369 42.065 140.629 43.52 143.194 43.52ZM142.879 36.815C143.884 36.815 144.424 37.355 144.424 38.81H141.139C141.259 37.235 142.084 36.815 142.879 36.815Z" fill="white"/>
<path d="M58.772 31.0642C58.7864 29.8347 59.1114 28.629 59.7167 27.5593C60.322 26.4896 61.1878 25.5909 62.2335 24.9469C61.574 23.9851 60.6975 23.1924 59.6751 22.6331C58.6528 22.0737 57.5133 21.7634 56.3489 21.7273C53.8764 21.4549 51.4039 23.1885 50.2418 23.1885C49.0797 23.1885 47.0275 21.7273 44.9259 21.7273C43.5752 21.7751 42.2597 22.1719 41.1073 22.8793C39.9549 23.5866 39.0047 24.5804 38.349 25.7642C35.5056 30.7175 37.6319 37.9493 40.3517 41.9367C41.7116 43.8932 43.3187 46.0726 45.2967 45.9983C47.2748 45.924 48.0907 44.6857 50.5632 44.6857C53.0357 44.6857 53.7033 45.9983 55.8297 45.9488C57.9561 45.8993 59.4148 43.9675 60.7747 42.0109C61.7516 40.6189 62.5026 39.0809 63 37.4539C61.7556 36.91 60.6946 36.0177 59.9445 34.8841C59.1945 33.7505 58.7873 32.4241 58.772 31.0642Z" fill="white"/>
<path d="M54.7417 19.2505C55.371 18.5371 55.8525 17.7056 56.1581 16.8043C56.4637 15.9029 56.5874 14.9497 56.5219 14C54.6958 14.2109 53.0128 15.0935 51.7994 16.4766C51.2047 17.149 50.7498 17.9333 50.4611 18.7838C50.1724 19.6342 50.0558 20.5338 50.1181 21.4299C51.0005 21.4243 51.8711 21.2265 52.6695 20.8501C53.4679 20.4738 54.175 19.9279 54.7417 19.2505Z" fill="white"/>
</svg>
