<svg width="36" height="36" viewBox="0 0 36 36" fill="none" xmlns="http://www.w3.org/2000/svg">
<rect width="36" height="36" rx="8" fill="#B8BFC4"/>
<path d="M25 12H24V11C24 10.7348 23.8946 10.4804 23.7071 10.2929C23.5196 10.1054 23.2652 10 23 10C22.7348 10 22.4804 10.1054 22.2929 10.2929C22.1054 10.4804 22 10.7348 22 11V12H14V11C14 10.7348 13.8946 10.4804 13.7071 10.2929C13.5196 10.1054 13.2652 10 13 10C12.7348 10 12.4804 10.1054 12.2929 10.2929C12.1054 10.4804 12 10.7348 12 11V12H11C10.7348 12 10.4804 12.1054 10.2929 12.2929C10.1054 12.4804 10 12.7348 10 13V25C10 25.2652 10.1054 25.5196 10.2929 25.7071C10.4804 25.8946 10.7348 26 11 26H25C25.2652 26 25.5196 25.8946 25.7071 25.7071C25.8946 25.5196 26 25.2652 26 25V13C26 12.7348 25.8946 12.4804 25.7071 12.2929C25.5196 12.1054 25.2652 12 25 12ZM24 14V16H12V14H24ZM12 24V18H24V24H12Z" fill="white"/>
</svg>
