<svg width="20" height="20" viewBox="0 0 20 20" fill="none" xmlns="http://www.w3.org/2000/svg">
<path d="M0 4C0 1.79086 1.79086 0 4 0H16C18.2091 0 20 1.79086 20 4V16C20 18.2091 18.2091 20 16 20H4C1.79086 20 0 18.2091 0 16V4Z" fill="#5138E5"/>
<path d="M7.49749 13.995C7.43184 13.9958 7.36676 13.9828 7.30642 13.957C7.24608 13.9312 7.19182 13.893 7.14713 13.845L5.14512 11.845C5.0522 11.7521 5 11.6263 5 11.495C5 11.3637 5.0522 11.2378 5.14512 11.145C5.23804 11.0521 5.36407 11 5.49547 11C5.62688 11 5.75291 11.0521 5.84583 11.145L7.49749 12.785L14.1542 6.14497C14.2471 6.05215 14.3731 6 14.5045 6C14.6359 6 14.762 6.05215 14.8549 6.14497C14.9478 6.2378 15 6.3637 15 6.49498C15 6.62625 14.9478 6.75215 14.8549 6.84498L7.84784 13.845C7.80315 13.893 7.74889 13.9312 7.68855 13.957C7.62821 13.9828 7.56313 13.9958 7.49749 13.995Z" fill="white"/>
</svg>
