<svg width="18" height="6" viewBox="0 0 18 6" fill="none" xmlns="http://www.w3.org/2000/svg">
<path opacity="0.2" d="M0 0.462629C3.80232e-09 0.074234 0.44378 -0.140645 0.741312 0.103684L3.83121 2.64105C4.05626 2.82587 4.05626 3.17413 3.83121 3.35895L0.741313 5.89632C0.44378 6.14065 8.97318e-08 5.92577 7.45225e-08 5.53737L0 0.462629Z" fill="#5138E5"/>
<path opacity="0.5" d="M7 0.462629C7 0.074234 7.44378 -0.140645 7.74131 0.103684L10.8312 2.64105C11.0563 2.82587 11.0563 3.17413 10.8312 3.35895L7.74131 5.89632C7.44378 6.14065 7 5.92577 7 5.53737L7 0.462629Z" fill="#5138E5"/>
<path d="M14 0.462629C14 0.074234 14.4438 -0.140645 14.7413 0.103684L17.8312 2.64105C18.0563 2.82587 18.0563 3.17413 17.8312 3.35895L14.7413 5.89632C14.4438 6.14065 14 5.92577 14 5.53737L14 0.462629Z" fill="#5138E5"/>
</svg>
