<svg width="36" height="36" viewBox="0 0 36 36" fill="none" xmlns="http://www.w3.org/2000/svg">
<rect width="36" height="36" rx="7" fill="#B8BFC4"/>
<path fill-rule="evenodd" clip-rule="evenodd" d="M15.8868 20.5583C15.983 20.5995 16.0864 20.6211 16.1911 20.6217C16.4073 20.6212 16.6144 20.5348 16.7671 20.3816C16.9147 20.2293 16.9972 20.0255 16.9972 19.8133C16.9972 19.6012 16.9147 19.3974 16.7671 19.2451C16.5141 18.9965 16.313 18.7001 16.1757 18.3731C16.0383 18.046 15.9674 17.6949 15.9671 17.3402C15.9688 16.6192 16.2566 15.9283 16.7671 15.4193L19.7591 12.3779C20.0118 12.123 20.3127 11.9209 20.6443 11.7834C20.9759 11.646 21.3315 11.576 21.6904 11.5775C22.0493 11.579 22.4044 11.6519 22.7348 11.7921C23.0652 11.9323 23.3645 12.1369 23.6151 12.394C24.1183 12.9033 24.4005 13.5906 24.4005 14.3068C24.4005 15.023 24.1183 15.7103 23.6151 16.2197L22.5911 17.2442C22.4445 17.3938 22.3624 17.5949 22.3624 17.8044C22.3624 18.0139 22.4445 18.2151 22.5911 18.3647C22.6654 18.4397 22.7539 18.4992 22.8514 18.5399C22.9489 18.5805 23.0534 18.6014 23.1591 18.6014C23.2647 18.6014 23.3692 18.5805 23.4667 18.5399C23.5642 18.4992 23.6527 18.4397 23.7271 18.3647L24.7351 17.3562C25.5434 16.5496 25.9984 15.4547 25.9999 14.3125C26.0014 13.1702 25.5493 12.0742 24.7431 11.2654C23.9368 10.4567 22.8424 10.0015 21.7007 10C20.559 9.9985 19.4634 10.4508 18.6551 11.2574L15.6311 14.2988C15.2305 14.6975 14.9126 15.1714 14.6957 15.6933C14.4788 16.2153 14.3672 16.7749 14.3672 17.3402C14.3672 17.9054 14.4788 18.4651 14.6957 18.9871C14.9126 19.509 15.2305 19.9829 15.6311 20.3816C15.7037 20.457 15.7906 20.517 15.8868 20.5583ZM12.6582 25.6778C13.1803 25.8925 13.7396 26.0019 14.304 25.9998C14.8702 25.9977 15.4303 25.8834 15.952 25.6636C16.4738 25.4439 16.9469 25.1229 17.344 24.7192L19.952 22.11C20.7571 21.3028 21.2093 20.209 21.2093 19.0687C21.2093 17.9283 20.7571 16.8345 19.952 16.0273C19.8777 15.9523 19.7892 15.8927 19.6917 15.8521C19.5942 15.8115 19.4897 15.7905 19.384 15.7905C19.2784 15.7905 19.1739 15.8115 19.0764 15.8521C18.9789 15.8927 18.8904 15.9523 18.816 16.0273C18.6684 16.1796 18.5859 16.3834 18.5859 16.5955C18.5859 16.8077 18.6684 17.0115 18.816 17.1638C19.0666 17.4136 19.2655 17.7105 19.4011 18.0374C19.5368 18.3643 19.6066 18.7147 19.6066 19.0687C19.6066 19.4226 19.5368 19.7731 19.4011 20.0999C19.2655 20.4268 19.0666 20.7237 18.816 20.9735L16.224 23.5827C15.7169 24.09 15.0292 24.375 14.312 24.375C13.5949 24.375 12.9071 24.09 12.4 23.5827C11.8968 23.0885 11.6092 22.4153 11.6 21.7099C11.6018 20.9888 11.8895 20.2979 12.4 19.789L12.976 19.2127C13.051 19.1383 13.1105 19.0498 13.1512 18.9523C13.1918 18.8547 13.2127 18.7501 13.2127 18.6445C13.2127 18.5388 13.1918 18.4342 13.1512 18.3367C13.1105 18.2391 13.051 18.1506 12.976 18.0762C12.8238 17.9285 12.6201 17.846 12.408 17.846C12.196 17.846 11.9923 17.9285 11.84 18.0762L11.264 18.6685C10.8613 19.0655 10.542 19.5391 10.3249 20.0614C10.1079 20.5837 9.9974 21.1442 10 21.7099C10 22.2746 10.1115 22.8337 10.328 23.3552C10.5445 23.8768 10.8617 24.3504 11.2616 24.749C11.6615 25.1475 12.1361 25.4632 12.6582 25.6778Z" fill="white"/>
</svg>
