<svg width="580" height="143" viewBox="0 0 580 143" fill="none" xmlns="http://www.w3.org/2000/svg">
<g clip-path="url(#clip0_1569_1075)">
<path d="M290 0.5C284.696 0.5 279.609 2.60714 275.858 6.35786C272.107 10.1086 270 15.1957 270 20.5C270 25.8043 272.107 30.8914 275.858 34.6421C279.609 38.3929 284.696 40.5 290 40.5C295.304 40.5 300.391 38.3929 304.142 34.6421C307.893 30.8914 310 25.8043 310 20.5C310 15.1957 307.893 10.1086 304.142 6.35786C300.391 2.60714 295.304 0.5 290 0.5ZM298.589 21.2889C298.485 21.3919 298.362 21.4733 298.227 21.5286C298.091 21.5839 297.946 21.612 297.8 21.6111C297.654 21.612 297.509 21.5839 297.373 21.5286C297.238 21.4733 297.115 21.3919 297.011 21.2889L291.133 15.4V28.2778C291.133 28.5725 291.016 28.8551 290.808 29.0635C290.6 29.2718 290.317 29.3889 290.022 29.3889C289.728 29.3889 289.445 29.2718 289.237 29.0635C289.028 28.8551 288.911 28.5725 288.911 28.2778V15.4L283.033 21.2889C282.824 21.4981 282.54 21.6157 282.244 21.6157C281.949 21.6157 281.665 21.4981 281.456 21.2889C281.246 21.0797 281.129 20.7959 281.129 20.5C281.129 20.2041 281.246 19.9203 281.456 19.7111L289.233 11.9333C289.337 11.8292 289.46 11.7465 289.595 11.6901C289.73 11.6337 289.876 11.6047 290.022 11.6047C290.169 11.6047 290.314 11.6337 290.45 11.6901C290.585 11.7465 290.708 11.8292 290.811 11.9333L298.589 19.7111C298.693 19.8144 298.776 19.9373 298.832 20.0727C298.889 20.2081 298.918 20.3533 298.918 20.5C298.918 20.6467 298.889 20.7919 298.832 20.9273C298.776 21.0627 298.693 21.1856 298.589 21.2889Z" fill="#5138E5"/>
</g>
<path d="M168.902 83.76V68.028H167.534V83.76H168.902ZM156.482 74.76C156.482 78.108 157.958 80.34 160.532 80.34C163.142 80.34 164.6 78.108 164.6 74.778C164.6 71.448 163.142 69.216 160.532 69.216C157.958 69.216 156.482 71.448 156.482 74.76ZM163.304 74.778C163.304 77.352 162.206 79.152 160.532 79.152C158.876 79.152 157.778 77.352 157.778 74.778C157.778 72.186 158.876 70.404 160.532 70.404C162.206 70.404 163.304 72.186 163.304 74.778ZM183.851 83.76V68.028H182.483V83.76H183.851ZM179.333 79.71V69.648H171.899V79.71H179.333ZM177.965 78.576H173.285V70.782H177.965V78.576ZM195.829 78.99C193.669 77.82 191.671 75.282 191.671 72.348V70.746H195.343V69.612H186.577V70.746H190.249V72.366C190.249 75.336 188.359 78.018 186.055 79.368L186.901 80.376C188.719 79.206 190.447 77.19 190.969 75.228C191.509 77.082 193.507 79.062 194.983 80.016L195.829 78.99ZM197.647 68.028V83.76H199.015V68.028H197.647ZM215.385 76.416V75.354H201.183V76.416H215.385ZM214.197 83.472V82.392H204.189V80.952H213.711V77.658H202.839V78.666H212.343V79.98H202.821V83.472H214.197ZM213.927 74.112V73.086H204.351V71.844H213.621V68.55H202.965V69.63H212.253V70.854H202.983V74.112H213.927ZM234.832 80.142H220.342V81.816H234.832V80.142ZM233.158 76.758V75.084H224.284V70.926H233.014V69.234H222.196V76.758H233.158ZM249.06 83.922V67.884H247.044V74.184H245.694V68.172H243.714V83.184H245.694V75.876H247.044V83.922H249.06ZM242.958 79.656C242.904 79.116 242.814 78.576 242.724 78.036C241.356 78.342 239.934 78.432 238.08 78.432V75.426H242.022V69.63H235.938V71.304H239.916V73.77H235.956V80.106H237.234C239.07 80.106 241.59 79.998 242.958 79.656ZM264.98 81.654V79.998H250.49V81.654H264.98ZM263.144 69.522H252.146V71.178H261.038C261.056 73.824 260.714 77.244 260.354 78.846L262.406 79.044C262.784 77.046 263.144 74.076 263.144 69.522ZM280.36 75.822V74.67H277.804V68.028H276.436V83.76H277.804V75.822H280.36ZM272.602 70.278V69.108H267.976V70.278H272.602ZM274.924 72.942V71.808H265.636V72.942H274.924ZM273.988 77.208C273.988 75.354 272.512 73.95 270.316 73.95C268.12 73.95 266.644 75.372 266.644 77.208C266.644 79.044 268.12 80.448 270.316 80.448C272.512 80.448 273.988 79.026 273.988 77.208ZM272.62 77.208C272.62 78.432 271.666 79.314 270.316 79.314C269.002 79.314 268.012 78.432 268.012 77.208C268.012 75.966 269.002 75.102 270.316 75.102C271.648 75.102 272.62 75.966 272.62 77.208ZM292.267 75.48V83.76H293.635V68.028H292.267V74.31H288.703V75.48H292.267ZM288.757 69.702H281.341V70.854H287.281C287.011 74.4 284.743 77.82 280.765 79.566L281.557 80.646C285.607 78.72 288.685 74.814 288.757 69.702ZM305.235 77.91C303.525 78.324 300.447 78.558 297.747 78.576V69.594H296.379V79.782H297.333C299.727 79.782 303.507 79.512 305.433 79.062L305.235 77.91ZM307.935 68.028H306.567V83.76H307.935V75.444H310.509V74.274H307.935V68.028ZM327.454 68.766H316.888V69.9H326.05C326.05 70.332 326.032 70.782 326.014 71.25L316.438 71.61L316.654 72.762L325.924 72.33C325.87 73.14 325.726 73.914 325.582 74.526H315.16V75.642H329.362V74.526H326.95C327.274 73.032 327.454 70.998 327.454 68.766ZM328.192 83.472V82.356H318.148V80.718H327.58V77.1H316.726V78.216H326.212V79.71H316.78V83.472H328.192ZM343.086 77.514V68.028H341.718V77.514H343.086ZM332.61 78.36V79.494H341.718V83.76H343.104V78.36H332.61ZM339.522 75.102C337.884 75.444 334.86 75.534 332.394 75.534V73.284H338.064V68.964H330.954V70.098H336.696V72.168H331.026V76.686H332.772C335.562 76.668 338.064 76.488 339.684 76.218L339.522 75.102ZM359.96 75.822V74.67H357.404V68.028H356.036V83.76H357.404V75.822H359.96ZM352.202 70.278V69.108H347.576V70.278H352.202ZM354.524 72.942V71.808H345.236V72.942H354.524ZM353.588 77.208C353.588 75.354 352.112 73.95 349.916 73.95C347.72 73.95 346.244 75.372 346.244 77.208C346.244 79.044 347.72 80.448 349.916 80.448C352.112 80.448 353.588 79.026 353.588 77.208ZM352.22 77.208C352.22 78.432 351.266 79.314 349.916 79.314C348.602 79.314 347.612 78.432 347.612 77.208C347.612 75.966 348.602 75.102 349.916 75.102C351.248 75.102 352.22 75.966 352.22 77.208ZM371.92 72.672V76.596H368.734V77.73H371.92V83.76H373.288V68.028H371.92V71.538H368.734V72.672H371.92ZM360.472 74.688C360.472 78.036 361.876 80.25 364.36 80.25C366.88 80.25 368.266 78.036 368.266 74.706C368.266 71.358 366.88 69.126 364.36 69.126C361.876 69.126 360.472 71.358 360.472 74.688ZM366.916 74.706C366.916 77.262 365.908 79.062 364.36 79.062C362.848 79.062 361.822 77.262 361.822 74.706C361.822 72.114 362.848 70.314 364.36 70.314C365.908 70.314 366.916 72.114 366.916 74.706ZM391.169 72.96V76.434H392.537V68.028H391.169V71.826H388.541V72.96H391.169ZM392.555 83.544V77.262H391.187V79.314H383.843V77.316H382.475V83.544H392.555ZM391.187 82.428H383.843V80.43H391.187V82.428ZM383.861 68.802C381.647 68.802 379.811 70.278 379.811 72.492C379.811 74.724 381.665 76.128 383.861 76.128C386.075 76.128 387.893 74.724 387.893 72.474C387.893 70.242 386.075 68.802 383.861 68.802ZM383.861 69.99C385.481 69.99 386.525 71.016 386.525 72.492C386.525 73.986 385.463 74.994 383.861 74.994C382.313 74.994 381.179 73.986 381.179 72.474C381.179 70.998 382.313 69.99 383.861 69.99ZM408.961 81.762V80.61H402.517V77.928H407.647V76.776H397.873V74.148H407.197V69.342H396.487V70.494H405.829V73.014H396.505V77.928H401.149V80.61H394.759V81.762H408.961ZM422.325 76.992V75.858H412.983V70.728H422.181V69.594H411.615V76.992H422.325ZM424.035 81.6V80.448H409.833V81.6H424.035Z" fill="#303538"/>
<path d="M197.941 138.045C199.605 138.045 200.294 137.031 200.294 135.731V129.231H199.241V135.718C199.241 136.628 198.838 137.161 197.85 137.161C197.213 137.161 196.706 137.018 196.329 136.901V137.72C196.784 137.928 197.239 138.045 197.941 138.045ZM202.152 137.954H203.192V134.457H204.973C206.637 134.457 207.755 133.521 207.755 131.805C207.755 130.167 206.806 129.231 204.843 129.231H202.152V137.954ZM203.192 133.599V130.102H204.739C206.156 130.102 206.65 130.635 206.65 131.87C206.65 133.04 206.117 133.599 204.765 133.599H203.192ZM212.561 138.097C213.666 138.097 214.563 137.863 215.239 137.616V133.729H212.353V134.587H214.225V136.966C213.809 137.122 213.198 137.226 212.587 137.226C210.247 137.226 209.623 135.77 209.623 133.742V133.391C209.623 131.545 210.39 129.959 212.561 129.959C213.718 129.959 214.381 130.245 214.914 130.492V129.595C214.394 129.335 213.718 129.088 212.639 129.088C210.442 129.088 208.518 130.258 208.518 133.534V133.768C208.518 136.758 210.091 138.097 212.561 138.097ZM216.043 139.644H216.745L217.707 137.109H216.524L216.043 139.644ZM223.561 138.045C225.225 138.045 225.914 137.031 225.914 135.731V129.231H224.861V135.718C224.861 136.628 224.458 137.161 223.47 137.161C222.833 137.161 222.326 137.018 221.949 136.901V137.72C222.404 137.928 222.859 138.045 223.561 138.045ZM227.771 137.954H228.811V134.457H230.592C232.256 134.457 233.374 133.521 233.374 131.805C233.374 130.167 232.425 129.231 230.462 129.231H227.771V137.954ZM228.811 133.599V130.102H230.358C231.775 130.102 232.269 130.635 232.269 131.87C232.269 133.04 231.736 133.599 230.384 133.599H228.811ZM234.644 137.954H239.857V137.083H235.671V133.898H238.869V133.027H235.671V130.102H239.818V129.231H234.644V137.954ZM245.003 138.097C246.108 138.097 247.005 137.863 247.681 137.616V133.729H244.795V134.587H246.667V136.966C246.251 137.122 245.64 137.226 245.029 137.226C242.689 137.226 242.065 135.77 242.065 133.742V133.391C242.065 131.545 242.832 129.959 245.003 129.959C246.16 129.959 246.823 130.245 247.356 130.492V129.595C246.836 129.335 246.16 129.088 245.081 129.088C242.884 129.088 240.96 130.258 240.96 133.534V133.768C240.96 136.758 242.533 138.097 245.003 138.097ZM248.485 139.644H249.187L250.149 137.109H248.966L248.485 139.644ZM255.053 137.954H256.093V134.457H257.874C259.538 134.457 260.656 133.521 260.656 131.805C260.656 130.167 259.707 129.231 257.744 129.231H255.053V137.954ZM256.093 133.599V130.102H257.64C259.057 130.102 259.551 130.635 259.551 131.87C259.551 133.04 259.018 133.599 257.666 133.599H256.093ZM261.914 137.954H262.876V130.635H262.915L267.244 137.954H268.31V129.231H267.374V136.212H267.335L263.136 129.231H261.914V137.954ZM273.796 138.097C274.901 138.097 275.798 137.863 276.474 137.616V133.729H273.588V134.587H275.46V136.966C275.044 137.122 274.433 137.226 273.822 137.226C271.482 137.226 270.858 135.77 270.858 133.742V133.391C270.858 131.545 271.625 129.959 273.796 129.959C274.953 129.959 275.616 130.245 276.149 130.492V129.595C275.629 129.335 274.953 129.088 273.874 129.088C271.677 129.088 269.753 130.258 269.753 133.534V133.768C269.753 136.758 271.326 138.097 273.796 138.097ZM287.713 136.212L287.635 135.406C287.141 135.484 286.452 135.536 285.659 135.588L286.088 130.96L285.1 130.869L284.762 135.653C284.619 135.653 284.489 135.666 284.333 135.666C283.917 135.692 283.488 135.718 283.059 135.731L282.747 130.882L281.746 130.973L282.149 135.744C281.577 135.757 281.005 135.757 280.459 135.757L280.615 136.628C281.642 136.615 282.968 136.563 284.255 136.511C285.594 136.433 286.881 136.329 287.713 136.212ZM289.338 128.048H288.35V139.41H289.338V133.417H291.197V132.585H289.338V128.048ZM286.959 130.076V129.244H280.784V130.076H286.959ZM300.82 133.794V128.048H299.832V133.794H300.82ZM301.236 139.254V138.448H294.45V137.148H300.82V134.392H293.423V135.198H299.832V136.381H293.462V139.254H301.236ZM294.801 128.399C293.163 128.399 291.837 129.439 291.837 130.973C291.837 132.52 293.176 133.508 294.801 133.508C296.426 133.508 297.739 132.507 297.739 130.973C297.739 129.426 296.426 128.399 294.801 128.399ZM294.801 129.257C295.984 129.257 296.777 129.959 296.777 130.973C296.777 131.974 295.984 132.65 294.801 132.65C293.67 132.65 292.799 131.974 292.799 130.96C292.799 129.946 293.683 129.257 294.801 129.257ZM308.233 134.314V129.049H302.851V134.314H308.233ZM307.245 133.495H303.839V129.868H307.245V133.495ZM312.926 132.273V131.441H311.197V128.048H310.209V136.303H311.197V132.273H312.926ZM311.639 139.02V138.201H305.074V135.523H304.086V139.02H311.639ZM323.641 133.794V132.962H313.384V133.794H323.641ZM322.497 130.18C322.497 128.932 320.989 128.204 318.519 128.204C316.075 128.204 314.567 128.932 314.567 130.18C314.567 131.428 316.075 132.143 318.519 132.143C320.989 132.143 322.497 131.428 322.497 130.18ZM318.519 129.01C320.326 129.01 321.496 129.465 321.496 130.18C321.496 130.882 320.326 131.324 318.519 131.324C316.738 131.324 315.581 130.882 315.581 130.18C315.581 129.465 316.738 129.01 318.519 129.01ZM322.731 139.306V138.5H315.568V137.356H322.354V134.808H314.554V135.601H321.366V136.602H314.58V139.306H322.731ZM334.417 135.965C332.857 135.12 331.414 133.287 331.414 131.168V130.011H334.066V129.192H327.735V130.011H330.387V131.181C330.387 133.326 329.022 135.263 327.358 136.238L327.969 136.966C329.282 136.121 330.53 134.665 330.907 133.248C331.297 134.587 332.74 136.017 333.806 136.706L334.417 135.965ZM335.73 128.048V139.41H336.718V128.048H335.73ZM344.937 130.687C344.937 129.4 343.676 128.581 341.921 128.581C340.166 128.581 338.879 129.4 338.879 130.674C338.879 132 340.166 132.767 341.921 132.767C343.676 132.767 344.937 131.987 344.937 130.687ZM347.654 136.784V128.048H346.666V134.769H344.274V135.549H346.666V136.784H347.654ZM347.888 139.137V138.305H340.751V135.848H339.763V139.137H347.888ZM343.962 130.687C343.962 131.454 343.143 131.961 341.921 131.961C340.699 131.961 339.867 131.454 339.867 130.687C339.867 129.907 340.699 129.4 341.921 129.4C343.143 129.4 343.962 129.92 343.962 130.687ZM342.493 136.329V134.197C343.689 134.119 344.95 134.041 345.665 133.937L345.587 133.17C344.482 133.287 343.247 133.404 341.986 133.456C340.751 133.495 339.36 133.508 338.19 133.495L338.346 134.34C339.295 134.34 340.426 134.301 341.505 134.262V136.329H342.493ZM359.708 132.091V131.259H357.979V128.048H356.991V134.639H357.979V132.091H359.708ZM357.979 139.332V135.185H356.991V136.407H351.817V135.198H350.829V139.332H357.979ZM356.991 138.5H351.817V137.226H356.991V138.5ZM354.144 129.036V128.204H350.868V129.036H354.144ZM355.808 130.635V129.829H349.191V130.635H355.808ZM355.145 132.936C355.145 131.792 354.04 131.09 352.506 131.09C350.933 131.09 349.867 131.792 349.867 132.936C349.867 134.054 350.959 134.769 352.506 134.769C354.04 134.769 355.145 134.054 355.145 132.936ZM354.144 132.936C354.144 133.586 353.39 133.989 352.506 133.989C351.635 133.989 350.842 133.586 350.842 132.936C350.842 132.273 351.622 131.883 352.506 131.883C353.39 131.883 354.144 132.273 354.144 132.936ZM369.37 128.048H368.395V139.41H369.37V128.048ZM367.238 135.237C365.886 135.536 363.26 135.744 361.804 135.744V129.231H360.803V136.615H361.31C363.052 136.615 366.016 136.394 367.329 136.095L367.238 135.237ZM379.851 128.048H378.863V139.41H379.851V133.391H381.697V132.559H379.851V128.048ZM372.532 135.783V130.063H376.926V129.231H371.531V136.628H372.649C374.625 136.628 376.874 136.472 378.096 136.238L377.992 135.419C376.9 135.653 374.651 135.783 373.182 135.783H372.532ZM382.064 138.279H383.195V137.122H382.064V138.279Z" fill="#79828A"/>
<defs>
<clipPath id="clip0_1569_1075">
<rect width="40" height="40" fill="white" transform="translate(270 0.5)"/>
</clipPath>
</defs>
</svg>
