<svg width="160" height="64" viewBox="0 0 160 64" fill="none" xmlns="http://www.w3.org/2000/svg">
<path d="M92 11.49H80.5V0H79.5V11.49H68V12.49H79.5V24H80.5V12.49H92V11.49Z" fill="#9EA7AD"/>
<path d="M9.084 60.84V50.352H8.172V60.84H9.084ZM0.804 54.84C0.804 57.072 1.788 58.56 3.504 58.56C5.244 58.56 6.216 57.072 6.216 54.852C6.216 52.632 5.244 51.144 3.504 51.144C1.788 51.144 0.804 52.632 0.804 54.84ZM5.352 54.852C5.352 56.568 4.62 57.768 3.504 57.768C2.4 57.768 1.668 56.568 1.668 54.852C1.668 53.124 2.4 51.936 3.504 51.936C4.62 51.936 5.352 53.124 5.352 54.852ZM19.0828 60.84V50.352H18.1708V60.84H19.0828ZM16.0708 58.14V51.432H11.1148V58.14H16.0708ZM15.1588 57.384H12.0388V52.188H15.1588V57.384ZM27.1016 57.66C25.6616 56.88 24.3296 55.188 24.3296 53.232V52.164H26.7776V51.408H20.9336V52.164H23.3816V53.244C23.3816 55.224 22.1216 57.012 20.5856 57.912L21.1496 58.584C22.3616 57.804 23.5136 56.46 23.8616 55.152C24.2216 56.388 25.5536 57.708 26.5376 58.344L27.1016 57.66ZM28.3136 50.352V60.84H29.2256V50.352H28.3136ZM40.1724 55.944V55.236H30.7044V55.944H40.1724ZM39.3804 60.648V59.928H32.7084V58.968H39.0564V56.772H31.8084V57.444H38.1444V58.32H31.7964V60.648H39.3804ZM39.2004 54.408V53.724H32.8164V52.896H38.9964V50.7H31.8924V51.42H38.0844V52.236H31.9044V54.408H39.2004ZM51.9676 56.328V55.572H45.7396V52.152H51.8716V51.396H44.8276V56.328H51.9676ZM53.1076 59.4V58.632H43.6396V59.4H53.1076ZM62.5664 60.84V50.352H61.6664V54.54H60.2984V50.604H59.3984V60.3H60.2984V55.308H61.6664V60.84H62.5664ZM58.7744 57.204C57.6104 57.444 55.8944 57.54 54.9464 57.54V55.116H58.0784V51.468H54.0104V52.224H57.1664V54.36H54.0344V58.308H54.7184C56.0264 58.308 57.7544 58.164 58.8704 57.96L58.7744 57.204ZM73.2732 59.292V58.524H63.8052V59.292H73.2732ZM71.9172 51.528H64.7892V52.284H70.9812C70.9812 54 70.8252 56.28 70.5372 57.612L71.4492 57.732C71.7732 56.124 71.9172 53.94 71.9172 51.528ZM86.5084 55.548V54.78H84.8044V50.352H83.8924V60.84H84.8044V55.548H86.5084ZM81.3364 51.852V51.072H78.2524V51.852H81.3364ZM82.8844 53.628V52.872H76.6924V53.628H82.8844ZM82.2604 56.472C82.2604 55.236 81.2764 54.3 79.8124 54.3C78.3484 54.3 77.3644 55.248 77.3644 56.472C77.3644 57.696 78.3484 58.632 79.8124 58.632C81.2764 58.632 82.2604 57.684 82.2604 56.472ZM81.3484 56.472C81.3484 57.288 80.7124 57.876 79.8124 57.876C78.9364 57.876 78.2764 57.288 78.2764 56.472C78.2764 55.644 78.9364 55.068 79.8124 55.068C80.7004 55.068 81.3484 55.644 81.3484 56.472ZM94.5152 53.448V56.064H92.3912V56.82H94.5152V60.84H95.4272V50.352H94.5152V52.692H92.3912V53.448H94.5152ZM86.8832 54.792C86.8832 57.024 87.8192 58.5 89.4752 58.5C91.1552 58.5 92.0792 57.024 92.0792 54.804C92.0792 52.572 91.1552 51.084 89.4752 51.084C87.8192 51.084 86.8832 52.572 86.8832 54.792ZM91.1792 54.804C91.1792 56.508 90.5072 57.708 89.4752 57.708C88.4672 57.708 87.7832 56.508 87.7832 54.804C87.7832 53.076 88.4672 51.876 89.4752 51.876C90.5072 51.876 91.1792 53.076 91.1792 54.804ZM108.734 55.164C107.138 55.008 105.266 54.204 105.002 52.956H108.326V52.188H100.646V52.956H104.006C103.73 54.204 101.954 55.02 100.274 55.188L100.682 55.956C102.494 55.728 104.006 54.84 104.486 53.868C105.026 54.828 106.61 55.692 108.314 55.932L108.734 55.164ZM104.93 60.852V57.516H109.226V56.748H99.7583V57.516H104.018V60.852H104.93ZM106.202 51.276V50.484H102.782V51.276H106.202ZM117.905 50.352H116.993V60.84H117.905V55.5H119.621V54.72H117.905V50.352ZM115.181 51.48H110.249V52.248H114.197C114.005 54.612 112.505 56.82 109.889 58.032L110.453 58.752C113.153 57.348 115.121 54.888 115.181 51.48ZM128.768 60.84V50.352H127.868V54.636H126.608V50.604H125.72V60.312H126.608V55.404H127.868V60.84H128.768ZM124.928 56.364C124.928 55.104 123.992 54.264 122.636 54.264C121.292 54.264 120.344 55.092 120.344 56.364C120.344 57.564 121.292 58.452 122.636 58.452C123.992 58.452 124.928 57.624 124.928 56.364ZM124.052 56.364C124.052 57.156 123.464 57.696 122.636 57.696C121.808 57.696 121.232 57.18 121.232 56.364C121.232 55.56 121.808 55.032 122.636 55.032C123.464 55.032 124.052 55.56 124.052 56.364ZM125.12 53.664V52.908H119.9V53.664H125.12ZM123.992 51.948V51.156H121.124V51.948H123.992ZM139.031 54.576C137.423 54.396 135.275 53.328 135.227 51.852H138.599V51.096H130.871V51.852H134.267C134.219 53.316 132.191 54.42 130.475 54.6L130.895 55.368C132.683 55.068 134.315 53.988 134.735 53.004C135.215 53.988 136.883 55.044 138.599 55.344L139.031 54.576ZM135.179 60.84V57.084H139.475V56.316H130.007V57.084H134.267V60.84H135.179ZM148.97 60.84V50.352H148.07V60.84H148.97ZM146.894 60.312V50.604H146.006V54.132H144.146V54.9H146.006V60.312H146.894ZM145.37 57.528C144.23 56.772 143.006 55.248 143.006 53.208V51.324H142.106V53.232C142.106 55.284 141.05 57.072 139.862 57.828L140.426 58.512C141.47 57.756 142.334 56.388 142.562 55.188C142.898 56.376 144.002 57.624 144.806 58.2L145.37 57.528ZM158.68 53.772C158.68 52.152 157.18 51.048 154.888 51.048C152.632 51.048 151.12 52.152 151.12 53.772C151.12 55.392 152.632 56.472 154.888 56.472C157.168 56.472 158.68 55.392 158.68 53.772ZM157.804 53.772C157.804 54.948 156.64 55.74 154.888 55.74C153.148 55.74 151.996 54.948 151.996 53.772C151.996 52.596 153.148 51.804 154.888 51.804C156.652 51.804 157.804 52.596 157.804 53.772ZM159.64 59.508V58.74H157.264V56.784L156.352 56.76V58.74H153.424V56.76L152.512 56.784V58.74H150.172V59.508H159.64Z" fill="#9EA7AD"/>
</svg>
