<svg width="200" height="60" viewBox="0 0 200 60" fill="none" xmlns="http://www.w3.org/2000/svg">
<rect opacity="0.7" x="0.5" y="0.5" width="199" height="59" rx="29.5" stroke="white"/>
<path d="M88.308 22.628C89.328 22.628 90.156 22.412 90.78 22.184V18.596H88.116V19.388H89.844V21.584C89.46 21.728 88.896 21.824 88.332 21.824C86.172 21.824 85.596 20.48 85.596 18.608V18.284C85.596 16.58 86.304 15.116 88.308 15.116C89.376 15.116 89.988 15.38 90.48 15.608V14.78C90 14.54 89.376 14.312 88.38 14.312C86.352 14.312 84.576 15.392 84.576 18.416V18.632C84.576 21.392 86.028 22.628 88.308 22.628ZM92.6378 22.496H97.4498V21.692H93.5858V18.752H96.5378V17.948H93.5858V15.248H97.4138V14.444H92.6378V22.496ZM100.987 22.496H101.923V15.248H104.383V14.444H98.5274V15.248H100.987V22.496ZM108.951 22.496H109.899V14.444H108.951V22.496ZM112.009 22.496H112.897V15.74H112.933L116.929 22.496H117.913V14.444H117.049V20.888H117.013L113.137 14.444H112.009V22.496ZM126.213 22.628C128.421 22.628 129.753 21.104 129.753 18.572V18.38C129.753 15.74 128.421 14.312 126.249 14.312C124.029 14.312 122.697 15.836 122.697 18.368V18.56C122.697 21.2 124.029 22.628 126.213 22.628ZM126.237 21.848C124.437 21.848 123.717 20.504 123.717 18.56V18.188C123.717 16.388 124.545 15.092 126.201 15.092C128.025 15.104 128.733 16.424 128.733 18.38V18.752C128.733 20.54 127.905 21.848 126.237 21.848ZM131.356 22.496H132.244V15.74H132.28L136.276 22.496H137.26V14.444H136.396V20.888H136.36L132.484 14.444H131.356V22.496Z" fill="white"/>
<path d="M89.625 43.55C91.005 43.55 92.205 43.235 92.985 42.92V38.15H89.28V39.53H91.185V41.87C90.81 41.99 90.21 42.095 89.61 42.095C87.195 42.095 86.64 40.58 86.64 38.45V37.985C86.64 36.05 87.36 34.43 89.775 34.43C91.14 34.43 91.935 34.73 92.55 35V33.53C91.95 33.215 91.05 32.93 89.73 32.93C87.06 32.93 84.69 34.22 84.69 38.135V38.45C84.69 42.065 86.61 43.55 89.625 43.55ZM98.1327 43.52C100.293 43.52 101.793 42.095 101.793 39.605V39.395C101.793 36.935 100.458 35.525 98.1477 35.525C95.9727 35.525 94.4727 36.965 94.4727 39.44V39.68C94.4727 42.095 95.7777 43.52 98.1327 43.52ZM98.1627 42.215C97.0827 42.215 96.2427 41.675 96.2427 39.68V39.32C96.2427 37.655 96.9327 36.83 98.1177 36.83C99.1677 36.83 99.9927 37.37 99.9927 39.38V39.755C99.9927 41.42 99.3177 42.215 98.1627 42.215ZM106.614 43.52C108.774 43.52 110.274 42.095 110.274 39.605V39.395C110.274 36.935 108.939 35.525 106.629 35.525C104.454 35.525 102.954 36.965 102.954 39.44V39.68C102.954 42.095 104.259 43.52 106.614 43.52ZM106.644 42.215C105.564 42.215 104.724 41.675 104.724 39.68V39.32C104.724 37.655 105.414 36.83 106.599 36.83C107.649 36.83 108.474 37.37 108.474 39.38V39.755C108.474 41.42 107.799 42.215 106.644 42.215ZM114.706 45.575C117.421 45.575 118.591 44.51 118.591 43.07C118.591 41.645 117.556 41.12 116.086 41.12H113.956C113.476 41.12 113.266 40.985 113.266 40.61C113.266 40.415 113.371 40.37 113.551 40.22C113.911 40.34 114.331 40.37 114.766 40.37C116.506 40.37 117.796 39.65 117.796 38V37.895C117.796 37.415 117.661 37.085 117.406 36.8H118.591V35.66H115.981C115.606 35.585 115.201 35.54 114.781 35.54C112.951 35.54 111.691 36.35 111.691 37.94V38.075C111.691 38.945 112.081 39.515 112.666 39.89C112.111 40.25 111.766 40.565 111.766 41.09C111.766 41.63 112.111 42.05 112.576 42.215V42.275C111.766 42.515 111.136 42.995 111.136 43.79C111.136 44.885 112.291 45.575 114.706 45.575ZM114.676 44.405C113.341 44.405 112.846 44.105 112.846 43.535C112.846 43.01 113.176 42.725 113.641 42.575H115.621C116.551 42.575 116.821 42.755 116.821 43.355C116.821 44 116.281 44.405 114.676 44.405ZM114.766 39.26C113.911 39.26 113.386 38.93 113.386 38.03V37.85C113.386 37.04 113.881 36.635 114.766 36.635C115.606 36.635 116.131 36.965 116.131 37.88V38.075C116.131 38.93 115.651 39.26 114.766 39.26ZM119.957 43.385H121.697V32.42H119.957V43.385ZM127.17 43.52C128.475 43.52 129.375 43.145 129.9 42.8V41.6C129.225 41.945 128.505 42.17 127.515 42.17C126.045 42.17 125.22 41.6 125.115 39.995H130.155V39.275C130.155 36.815 129.165 35.54 126.885 35.54C124.92 35.54 123.345 36.815 123.345 39.41V39.62C123.345 42.065 124.605 43.52 127.17 43.52ZM126.855 36.815C127.86 36.815 128.4 37.355 128.4 38.81H125.115C125.235 37.235 126.06 36.815 126.855 36.815ZM135.884 43.385H137.729V39.53H139.604C141.749 39.53 143.114 38.405 143.114 36.26C143.114 34.22 141.899 33.095 139.484 33.095H135.884V43.385ZM137.729 38.15V34.52H139.289C140.654 34.52 141.179 35.015 141.179 36.365C141.179 37.565 140.654 38.15 139.259 38.15H137.729ZM144.654 43.385H146.394V32.42H144.654V43.385ZM150.412 43.52C151.417 43.52 152.032 43.19 152.407 42.755H152.497L152.632 43.385H154.057V37.835C154.057 36.23 153.022 35.54 151.237 35.54C150.232 35.54 149.407 35.675 148.687 35.96V37.145C149.152 37.04 149.812 36.935 150.562 36.935C151.867 36.935 152.332 37.175 152.332 38.225V38.81L150.517 39.02C148.987 39.245 148.042 39.905 148.042 41.33C148.042 42.815 149.017 43.52 150.412 43.52ZM150.937 42.305C150.232 42.305 149.737 41.975 149.737 41.24C149.737 40.46 150.142 40.145 150.907 40.085L152.332 39.935V41.84C152.047 42.11 151.492 42.305 150.937 42.305ZM156.95 45.605C158.375 45.605 159.125 45.065 159.635 43.595L162.62 35.66H160.955L159.155 40.67H159.095L157.145 35.66H155.315L158.225 42.815L158.015 43.355C157.745 44.09 157.28 44.27 156.575 44.27C156.305 44.27 156.02 44.24 155.825 44.195V45.35C156.05 45.5 156.56 45.605 156.95 45.605Z" fill="white"/>
<path d="M40.5562 14.5175C40.1603 15.0029 39.9631 15.6263 40.0057 16.2572V43.7508C39.9735 44.3879 40.2166 45.074 40.6036 45.574L55.7142 30.1613V29.7938L40.6519 14.4194" fill="#EEEEEE"/>
<path opacity="0.1" d="M60.7123 35.2453L55.7344 30.1619V29.7971L60.7123 24.6895L66.7432 28.1918C67.1093 28.3167 67.4275 28.5552 67.653 28.8738C67.8784 29.1924 67.9997 29.5749 67.9997 29.9674C67.9997 30.3598 67.8784 30.7423 67.653 31.0609C67.4275 31.3795 67.1093 31.618 66.7432 31.7429L60.8319 35.1723" fill="#EEEEEE"/>
<path opacity="0.5" d="M60.708 24.6598L43.0461 14.4201C42.6483 14.187 42.2833 14 41.8494 14C41.4155 14 40.9942 14.1479 40.6528 14.4201L55.7301 29.7918L60.7402 24.6598" fill="#EEEEEE"/>
<path opacity="0.5" d="M60.6732 35.2553L43.0036 45.5799C42.6058 45.813 42.2409 46 41.807 46C41.3731 46 40.9517 45.8521 40.6104 45.5799L55.7254 30.1749L60.7055 35.2553" fill="#EEEEEE"/>
</svg>
