<svg width="24" height="24" viewBox="0 0 24 24" fill="none" xmlns="http://www.w3.org/2000/svg">
<path fill-rule="evenodd" clip-rule="evenodd" d="M17.5826 5L4.99609 17.5865L6.41031 19.0007L18.9968 6.41421L17.5826 5ZM6.42 14.7504L9 12.1604C8.99573 12.1071 8.99573 12.0536 9 12.0004C9 11.2047 9.31607 10.4416 9.87868 9.87904C10.4413 9.31643 11.2044 9.00036 12 9.00036H12.16L13.92 7.24036C13.2931 7.07757 12.6477 6.99689 12 7.00036C7 7.00036 4 12.0004 4 12.0004C4.66987 13.0289 5.48497 13.9552 6.42 14.7504ZM15.0001 11.8402L17.5801 9.25024C18.5151 10.0454 19.3302 10.9717 20.0001 12.0002C20.0001 12.0002 17.0001 17.0002 12.0001 17.0002C11.3524 17.0037 10.707 16.923 10.0801 16.7602L11.8401 15.0002H12.0001C12.7957 15.0002 13.5588 14.6842 14.1214 14.1216C14.684 13.559 15.0001 12.7959 15.0001 12.0002C15.0044 11.947 15.0044 11.8935 15.0001 11.8402Z" fill="#9EA7AD"/>
</svg>
