<svg width="16" height="16" viewBox="0 0 16 16" fill="none" xmlns="http://www.w3.org/2000/svg">
<g clip-path="url(#clip0_760_7)">
<path d="M8 0C6.41775 0 4.87103 0.469192 3.55544 1.34824C2.23985 2.22729 1.21447 3.47672 0.608967 4.93853C0.00346625 6.40034 -0.15496 8.00887 0.153721 9.56072C0.462403 11.1126 1.22432 12.538 2.34314 13.6569C3.46196 14.7757 4.88743 15.5376 6.43928 15.8463C7.99113 16.155 9.59966 15.9965 11.0615 15.391C12.5233 14.7855 13.7727 13.7602 14.6518 12.4446C15.5308 11.129 16 9.58225 16 8C16 5.87827 15.1571 3.84344 13.6569 2.34315C12.1566 0.842856 10.1217 0 8 0ZM14.45 7.25H11.45C11.4421 5.21583 10.7361 3.24602 9.45 1.67C10.7567 1.97182 11.9382 2.66982 12.8332 3.66859C13.7282 4.66737 14.2928 5.91816 14.45 7.25ZM6.04 8.75H9.95C9.91503 10.6047 9.2038 12.3828 7.95 13.75C6.72968 12.3691 6.05112 10.5928 6.04 8.75ZM6.04 7.25C6.07771 5.39583 6.78857 3.61868 8.04 2.25C9.29142 3.61868 10.0023 5.39583 10.04 7.25H6.04ZM6.57 1.67C5.28816 3.24843 4.5827 5.21668 4.57 7.25H1.57C1.72858 5.91867 2.29372 4.6686 3.18845 3.67008C4.08318 2.67156 5.26399 1.97315 6.57 1.67ZM1.57 8.75H4.57C4.5852 10.7859 5.29025 12.7565 6.57 14.34C5.257 14.0417 4.06856 13.3441 3.16791 12.3432C2.26727 11.3423 1.69859 10.0871 1.54 8.75H1.57ZM9.46 14.34C10.7476 12.7609 11.4536 10.7875 11.46 8.75H14.46C14.3028 10.0876 13.7346 11.3436 12.8338 12.3447C11.9329 13.3459 10.7437 14.043 9.43001 14.34H9.46Z" fill="#525A61"/>
</g>
<defs>
<clipPath id="clip0_760_7">
<rect width="16" height="16" fill="white"/>
</clipPath>
</defs>
</svg>
