<svg width="14" height="14" viewBox="0 0 14 14" fill="none" xmlns="http://www.w3.org/2000/svg">
<g clip-path="url(#clip0_3268_49848)">
<path d="M13.5 9C13.3674 9 13.2402 9.05268 13.1464 9.14645C13.0527 9.24021 13 9.36739 13 9.5V13H1V1H4.5C4.63261 1 4.75979 0.947322 4.85355 0.853554C4.94732 0.759786 5 0.632608 5 0.5C5 0.367392 4.94732 0.240214 4.85355 0.146446C4.75979 0.052678 4.63261 0 4.5 0H0.5C0.367392 0 0.240214 0.052678 0.146446 0.146446C0.052678 0.240214 0 0.367392 0 0.5V13.5C0 13.6326 0.052678 13.7598 0.146446 13.8536C0.240214 13.9473 0.367392 14 0.5 14H13.5C13.6326 14 13.7598 13.9473 13.8536 13.8536C13.9473 13.7598 14 13.6326 14 13.5V9.5C14 9.36739 13.9473 9.24021 13.8536 9.14645C13.7598 9.05268 13.6326 9 13.5 9Z" fill="#9EA7AD"/>
<path d="M14.0029 0.310455C13.9513 0.188888 13.8545 0.0920966 13.7329 0.0404548C13.6704 0.0255776 13.6054 0.0255776 13.5429 0.0404548H8.5429C8.41029 0.0404548 8.28311 0.0931328 8.18935 0.186901C8.09558 0.280669 8.0429 0.407847 8.0429 0.540455C8.0429 0.673063 8.09558 0.80024 8.18935 0.894009C8.28311 0.987777 8.41029 1.04045 8.5429 1.04045H12.3329L7.1829 6.19046C7.09065 6.28561 7.03906 6.41293 7.03906 6.54545C7.03906 6.67798 7.09065 6.8053 7.1829 6.90045C7.23062 6.9465 7.28703 6.98259 7.34883 7.00662C7.41064 7.03066 7.47661 7.04216 7.5429 7.04046C7.60759 7.04138 7.67183 7.02949 7.7319 7.00546C7.79197 6.98143 7.84669 6.94574 7.8929 6.90045L13.0029 1.71045V5.50045C13.0029 5.63306 13.0556 5.76024 13.1493 5.85401C13.2431 5.94778 13.3703 6.00045 13.5029 6.00045C13.6355 6.00045 13.7627 5.94778 13.8565 5.85401C13.9502 5.76024 14.0029 5.63306 14.0029 5.50045V0.500455C14.0178 0.437995 14.0178 0.372915 14.0029 0.310455Z" fill="#9EA7AD"/>
</g>
<defs>
<clipPath id="clip0_3268_49848">
<rect width="14" height="14" fill="white"/>
</clipPath>
</defs>
</svg>
