<svg width="150" height="25" viewBox="0 0 150 25" fill="none" xmlns="http://www.w3.org/2000/svg">
<path d="M16.6691 0H7.14711C3.19987 0 0 3.35892 0 7.50235V17.4976C0 21.6411 3.19987 25 7.14711 25H16.6691C20.6164 25 23.8162 21.6411 23.8162 17.4976V7.50235C23.8162 3.35892 20.6164 0 16.6691 0Z" fill="#5138E5"/>
<path d="M8.17971 19.044C8.67391 19.0429 9.15668 18.8953 9.56703 18.62C9.97737 18.3448 10.2969 17.9541 10.4852 17.4974C10.6735 17.0407 10.7222 16.5385 10.6251 16.0541C10.5279 15.5698 10.2894 15.1251 9.93952 14.7762C9.58965 14.4273 9.14418 14.1899 8.65939 14.094C8.1746 13.998 7.67224 14.0479 7.21576 14.2372C6.75929 14.4265 6.36919 14.7467 6.09475 15.1575C5.8203 15.5683 5.67383 16.0512 5.67383 16.5452C5.67383 16.8739 5.73868 17.1993 5.86469 17.5028C5.99069 17.8064 6.17537 18.0821 6.40814 18.3142C6.64091 18.5463 6.9172 18.7303 7.22119 18.8555C7.52519 18.9807 7.85091 19.0448 8.17971 19.044Z" fill="white"/>
<path d="M15.8813 19.044C16.3758 19.044 16.8591 18.8975 17.2703 18.6229C17.6814 18.3483 18.0018 17.9581 18.191 17.5015C18.3803 17.0449 18.4298 16.5424 18.3333 16.0577C18.2368 15.573 17.9987 15.1277 17.6491 14.7783C17.2995 14.4288 16.854 14.1908 16.3691 14.0944C15.8841 13.998 15.3815 14.0475 14.9246 14.2366C14.4678 14.4257 14.0774 14.746 13.8027 15.1569C13.528 15.5679 13.3813 16.051 13.3813 16.5452C13.3813 17.2079 13.6447 17.8435 14.1136 18.3121C14.5824 18.7808 15.2183 19.044 15.8813 19.044Z" fill="white"/>
<path d="M8.17383 10.9502C8.66828 10.9502 9.15163 10.8036 9.56275 10.5289C9.97388 10.2542 10.2943 9.86372 10.4835 9.4069C10.6727 8.95009 10.7223 8.44742 10.6258 7.96247C10.5293 7.47752 10.2912 7.03206 9.94159 6.68243C9.59196 6.3328 9.1465 6.0947 8.66155 5.99823C8.1766 5.90177 7.67394 5.95128 7.21712 6.1405C6.7603 6.32972 6.36985 6.65015 6.09515 7.06127C5.82045 7.47239 5.67383 7.95574 5.67383 8.4502C5.67383 9.11324 5.93722 9.74912 6.40606 10.218C6.8749 10.6868 7.51078 10.9502 8.17383 10.9502Z" fill="white"/>
<path d="M31.5625 4.51514H36.6932V16.3096H43.5602V20.5076H31.5625V4.51514Z" fill="#5138E5"/>
<path d="M57.0089 17.703H51.2285L50.2035 20.5076H44.9888L51.643 4.51514H56.684L63.3327 20.5076H58.0283L57.0089 17.703ZM55.5974 13.8225L54.1187 9.80676L52.64 13.8225H55.5974Z" fill="#5138E5"/>
<path d="M79.1227 13.6638C79.6238 14.3598 79.8846 15.214 79.8621 16.0862C79.8804 16.7348 79.7346 17.3769 79.4394 17.9471C79.1442 18.5173 78.7102 18.995 78.1817 19.3317C77.0615 20.1019 75.4875 20.5076 73.3983 20.5076H64.8789V4.51514H73.0062C75.0339 4.51514 76.5648 4.89535 77.5992 5.65578C78.0842 5.97949 78.4821 6.42838 78.7547 6.95954C79.0273 7.4907 79.1656 8.08638 79.1563 8.68964C79.1594 9.40277 78.9648 10.1014 78.5962 10.7005C78.208 11.3222 77.6631 11.8188 77.0223 12.1351C77.8468 12.4243 78.5755 12.9547 79.1227 13.6638ZM69.92 8.27807V10.6299H72.3061C73.4263 10.6299 73.9864 10.236 73.9864 9.45399C73.9864 8.672 73.4263 8.27807 72.3061 8.27807H69.92ZM74.6978 15.4688C74.6978 14.628 74.1377 14.2106 73.0174 14.2106H69.9312V16.7212H73.0174C74.1321 16.7212 74.6978 16.3037 74.6978 15.4688Z" fill="#5138E5"/>
<path d="M88.1796 19.7909C86.9277 19.1252 85.8766 18.1074 85.1437 16.8511C84.4244 15.5349 84.0459 14.044 84.0459 12.5267C84.0459 11.0093 84.4244 9.51837 85.1437 8.20222C85.875 6.94455 86.9265 5.92635 88.1796 5.26243C89.5212 4.53849 91.0122 4.17296 92.5205 4.19822C93.8812 4.17399 95.2313 4.45461 96.4805 5.02137C97.6083 5.54204 98.5942 6.35051 99.3483 7.3732L96.1109 10.4129C95.7374 9.84604 95.2411 9.38037 94.6626 9.05428C94.0842 8.7282 93.4402 8.55102 92.7838 8.53736C92.3043 8.51462 91.8258 8.59993 91.3804 8.78755C90.935 8.97517 90.5331 9.26076 90.2016 9.62508C89.5224 10.4088 89.1643 11.4416 89.2046 12.5002C89.152 13.5682 89.5044 14.6146 90.1848 15.4106C90.5168 15.7739 90.9189 16.0583 91.3643 16.2449C91.8097 16.4315 92.2879 16.5159 92.7669 16.4924C93.4251 16.4819 94.0715 16.3075 94.6528 15.9834C95.2342 15.6594 95.7339 15.195 96.1109 14.6286L99.3483 17.6625C98.5938 18.6848 97.6081 19.4932 96.4805 20.0143C95.2309 20.5791 93.8808 20.8577 92.5205 20.8316C91.0143 20.8615 89.524 20.5042 88.1796 19.7909Z" fill="#5138E5"/>
<path d="M105.106 19.7786C103.833 19.0894 102.765 18.0456 102.02 16.7617C101.275 15.4777 100.88 14.0032 100.88 12.4997C100.88 10.9962 101.275 9.52167 102.02 8.23775C102.765 6.95383 103.833 5.91005 105.106 5.22078C106.48 4.51679 107.988 4.15088 109.517 4.15088C111.046 4.15088 112.554 4.51679 113.928 5.22078C115.201 5.91005 116.268 6.95383 117.014 8.23775C117.759 9.52167 118.153 10.9962 118.153 12.4997C118.153 14.0032 117.759 15.4777 117.014 16.7617C116.268 18.0456 115.201 19.0894 113.928 19.7786C112.554 20.4826 111.046 20.8485 109.517 20.8485C107.988 20.8485 106.48 20.4826 105.106 19.7786ZM111.267 16.0039C111.779 15.6673 112.195 15.192 112.471 14.6281C112.774 13.9697 112.931 13.2482 112.931 12.5173C112.931 11.7865 112.774 11.065 112.471 10.4066C112.191 9.83538 111.767 9.35558 111.245 9.01899C110.721 8.69592 110.124 8.52558 109.517 8.52558C108.909 8.52558 108.313 8.69592 107.789 9.01899C107.273 9.35383 106.852 9.82666 106.568 10.3889C106.266 11.0508 106.11 11.775 106.11 12.5085C106.11 13.2421 106.266 13.9663 106.568 14.6281C106.851 15.1993 107.274 15.6804 107.794 16.0216C108.319 16.3411 108.916 16.5094 109.522 16.5094C110.129 16.5094 110.725 16.3411 111.25 16.0216L111.267 16.0039Z" fill="#B3E052"/>
<path d="M119.697 4.51565H127.192C128.735 4.48473 130.266 4.81618 131.673 5.48579C132.915 6.08297 133.964 7.04739 134.692 8.26095C135.429 9.53696 135.802 11.0082 135.767 12.5001C135.802 13.9939 135.429 15.467 134.692 16.7452C133.962 17.9574 132.914 18.9214 131.673 19.5204C130.265 20.1853 128.735 20.5146 127.192 20.4846H119.697V4.51565ZM126.979 16.2748C127.46 16.3002 127.941 16.2255 128.395 16.0549C128.849 15.8844 129.266 15.6215 129.623 15.2812C129.964 14.9141 130.228 14.4758 130.398 13.9947C130.568 13.5136 130.64 13.0004 130.608 12.4884C130.639 11.9765 130.566 11.4636 130.397 10.9826C130.227 10.5017 129.963 10.0633 129.623 9.69557C129.266 9.35529 128.849 9.09233 128.395 8.92181C127.941 8.75128 127.46 8.67655 126.979 8.70192H124.828V16.2866L126.979 16.2748Z" fill="#5138E5"/>
<path d="M150 16.4272V20.5076H137.375V4.51514H149.698V8.57793H142.416V10.4476H148.852V14.3282H142.416V16.4272H150Z" fill="#5138E5"/>
</svg>
