<svg width="215" height="80" viewBox="0 0 215 80" fill="none" xmlns="http://www.w3.org/2000/svg">
<path d="M16.6691 27H7.14711C3.19987 27 0 30.3589 0 34.5024V44.4976C0 48.6411 3.19987 52 7.14711 52H16.6691C20.6164 52 23.8162 48.6411 23.8162 44.4976V34.5024C23.8162 30.3589 20.6164 27 16.6691 27Z" fill="#5138E5"/>
<path d="M8.17971 46.044C8.67391 46.0429 9.15668 45.8953 9.56703 45.62C9.97737 45.3448 10.2969 44.9541 10.4852 44.4974C10.6735 44.0407 10.7222 43.5385 10.6251 43.0541C10.5279 42.5698 10.2894 42.1251 9.93952 41.7762C9.58965 41.4273 9.14418 41.1899 8.65939 41.094C8.1746 40.998 7.67224 41.0479 7.21576 41.2372C6.75929 41.4265 6.36919 41.7467 6.09475 42.1575C5.8203 42.5683 5.67383 43.0512 5.67383 43.5452C5.67383 43.8739 5.73868 44.1993 5.86469 44.5028C5.99069 44.8064 6.17537 45.0821 6.40814 45.3142C6.64091 45.5463 6.9172 45.7303 7.22119 45.8555C7.52519 45.9807 7.85091 46.0448 8.17971 46.044Z" fill="white"/>
<path d="M15.8813 46.044C16.3758 46.044 16.8591 45.8975 17.2703 45.6229C17.6814 45.3483 18.0018 44.9581 18.191 44.5015C18.3803 44.0449 18.4298 43.5424 18.3333 43.0577C18.2368 42.573 17.9987 42.1277 17.6491 41.7783C17.2995 41.4288 16.854 41.1908 16.3691 41.0944C15.8841 40.998 15.3815 41.0475 14.9246 41.2366C14.4678 41.4257 14.0774 41.746 13.8027 42.1569C13.528 42.5679 13.3813 43.051 13.3813 43.5452C13.3813 44.2079 13.6447 44.8435 14.1136 45.3121C14.5824 45.7808 15.2183 46.044 15.8813 46.044Z" fill="white"/>
<path d="M8.17383 37.9502C8.66828 37.9502 9.15163 37.8036 9.56275 37.5289C9.97388 37.2542 10.2943 36.8637 10.4835 36.4069C10.6727 35.9501 10.7223 35.4474 10.6258 34.9625C10.5293 34.4775 10.2912 34.0321 9.94159 33.6824C9.59196 33.3328 9.1465 33.0947 8.66155 32.9982C8.1766 32.9018 7.67394 32.9513 7.21712 33.1405C6.7603 33.3297 6.36985 33.6501 6.09515 34.0613C5.82045 34.4724 5.67383 34.9557 5.67383 35.4502C5.67383 36.1132 5.93722 36.7491 6.40606 37.218C6.8749 37.6868 7.51078 37.9502 8.17383 37.9502Z" fill="white"/>
<path d="M31.5625 31.5151H36.6932V43.3096H43.5602V47.5076H31.5625V31.5151Z" fill="#5138E5"/>
<path d="M57.0089 44.703H51.2285L50.2035 47.5076H44.9888L51.643 31.5151H56.684L63.3327 47.5076H58.0283L57.0089 44.703ZM55.5974 40.8225L54.1187 36.8068L52.64 40.8225H55.5974Z" fill="#5138E5"/>
<path d="M79.1227 40.6638C79.6238 41.3598 79.8846 42.214 79.8621 43.0862C79.8804 43.7348 79.7346 44.3769 79.4394 44.9471C79.1442 45.5173 78.7102 45.995 78.1817 46.3317C77.0615 47.1019 75.4875 47.5076 73.3983 47.5076H64.8789V31.5151H73.0062C75.0339 31.5151 76.5648 31.8954 77.5992 32.6558C78.0842 32.9795 78.4821 33.4284 78.7547 33.9595C79.0273 34.4907 79.1656 35.0864 79.1563 35.6896C79.1594 36.4028 78.9648 37.1014 78.5962 37.7005C78.208 38.3222 77.6631 38.8188 77.0223 39.1351C77.8468 39.4243 78.5755 39.9547 79.1227 40.6638ZM69.92 35.2781V37.6299H72.3061C73.4263 37.6299 73.9864 37.236 73.9864 36.454C73.9864 35.672 73.4263 35.2781 72.3061 35.2781H69.92ZM74.6978 42.4688C74.6978 41.628 74.1377 41.2106 73.0174 41.2106H69.9312V43.7212H73.0174C74.1321 43.7212 74.6978 43.3037 74.6978 42.4688Z" fill="#5138E5"/>
<path d="M88.1796 46.7909C86.9277 46.1252 85.8766 45.1074 85.1437 43.8511C84.4244 42.5349 84.0459 41.044 84.0459 39.5267C84.0459 38.0093 84.4244 36.5184 85.1437 35.2022C85.875 33.9445 86.9265 32.9263 88.1796 32.2624C89.5212 31.5385 91.0122 31.173 92.5205 31.1982C93.8812 31.174 95.2313 31.4546 96.4805 32.0214C97.6083 32.542 98.5942 33.3505 99.3483 34.3732L96.1109 37.4129C95.7374 36.846 95.2411 36.3804 94.6626 36.0543C94.0842 35.7282 93.4402 35.551 92.7838 35.5374C92.3043 35.5146 91.8258 35.5999 91.3804 35.7875C90.935 35.9752 90.5331 36.2608 90.2016 36.6251C89.5224 37.4088 89.1643 38.4416 89.2046 39.5002C89.152 40.5682 89.5044 41.6146 90.1848 42.4106C90.5168 42.7739 90.9189 43.0583 91.3643 43.2449C91.8097 43.4315 92.2879 43.5159 92.7669 43.4924C93.4251 43.4819 94.0715 43.3075 94.6528 42.9834C95.2342 42.6594 95.7339 42.195 96.1109 41.6286L99.3483 44.6625C98.5938 45.6848 97.6081 46.4932 96.4805 47.0143C95.2309 47.5791 93.8808 47.8577 92.5205 47.8316C91.0143 47.8615 89.524 47.5042 88.1796 46.7909Z" fill="#5138E5"/>
<path d="M105.106 46.7786C103.833 46.0894 102.765 45.0456 102.02 43.7617C101.275 42.4777 100.88 41.0032 100.88 39.4997C100.88 37.9962 101.275 36.5217 102.02 35.2378C102.765 33.9538 103.833 32.91 105.106 32.2208C106.48 31.5168 107.988 31.1509 109.517 31.1509C111.046 31.1509 112.554 31.5168 113.928 32.2208C115.201 32.91 116.268 33.9538 117.014 35.2378C117.759 36.5217 118.153 37.9962 118.153 39.4997C118.153 41.0032 117.759 42.4777 117.014 43.7617C116.268 45.0456 115.201 46.0894 113.928 46.7786C112.554 47.4826 111.046 47.8485 109.517 47.8485C107.988 47.8485 106.48 47.4826 105.106 46.7786ZM111.267 43.0039C111.779 42.6673 112.195 42.192 112.471 41.6281C112.774 40.9697 112.931 40.2482 112.931 39.5173C112.931 38.7865 112.774 38.065 112.471 37.4066C112.191 36.8354 111.767 36.3556 111.245 36.019C110.721 35.6959 110.124 35.5256 109.517 35.5256C108.909 35.5256 108.313 35.6959 107.789 36.019C107.273 36.3538 106.852 36.8267 106.568 37.3889C106.266 38.0508 106.11 38.775 106.11 39.5085C106.11 40.2421 106.266 40.9663 106.568 41.6281C106.851 42.1993 107.274 42.6804 107.794 43.0216C108.319 43.3411 108.916 43.5094 109.522 43.5094C110.129 43.5094 110.725 43.3411 111.25 43.0216L111.267 43.0039Z" fill="#B3E052"/>
<path d="M119.697 31.5157H127.192C128.735 31.4847 130.266 31.8162 131.673 32.4858C132.915 33.083 133.964 34.0474 134.692 35.2609C135.429 36.537 135.802 38.0082 135.767 39.5001C135.802 40.9939 135.429 42.467 134.692 43.7452C133.962 44.9574 132.914 45.9214 131.673 46.5204C130.265 47.1853 128.735 47.5146 127.192 47.4846H119.697V31.5157ZM126.979 43.2748C127.46 43.3002 127.941 43.2255 128.395 43.0549C128.849 42.8844 129.266 42.6215 129.623 42.2812C129.964 41.9141 130.228 41.4758 130.398 40.9947C130.568 40.5136 130.64 40.0004 130.608 39.4884C130.639 38.9765 130.566 38.4636 130.397 37.9826C130.227 37.5017 129.963 37.0633 129.623 36.6956C129.266 36.3553 128.849 36.0923 128.395 35.9218C127.941 35.7513 127.46 35.6766 126.979 35.7019H124.828V43.2866L126.979 43.2748Z" fill="#5138E5"/>
<path d="M150 43.4272V47.5076H137.375V31.5151H149.698V35.5779H142.416V37.4476H148.852V41.3282H142.416V43.4272H150Z" fill="#5138E5"/>
<rect x="170" y="28" width="45" height="24" rx="4" fill="#5138E5" fill-opacity="0.1"/>
<path d="M183.567 39.692C183.871 39.74 184.147 39.864 184.395 40.064C184.651 40.264 184.851 40.512 184.995 40.808C185.147 41.104 185.223 41.42 185.223 41.756C185.223 42.18 185.115 42.564 184.899 42.908C184.683 43.244 184.367 43.512 183.951 43.712C183.543 43.904 183.059 44 182.499 44H179.379V35.636H182.379C182.947 35.636 183.431 35.732 183.831 35.924C184.231 36.108 184.531 36.36 184.731 36.68C184.931 37 185.031 37.36 185.031 37.76C185.031 38.256 184.895 38.668 184.623 38.996C184.359 39.316 184.007 39.548 183.567 39.692ZM180.471 39.248H182.307C182.819 39.248 183.215 39.128 183.495 38.888C183.775 38.648 183.915 38.316 183.915 37.892C183.915 37.468 183.775 37.136 183.495 36.896C183.215 36.656 182.811 36.536 182.283 36.536H180.471V39.248ZM182.403 43.1C182.947 43.1 183.371 42.972 183.675 42.716C183.979 42.46 184.131 42.104 184.131 41.648C184.131 41.184 183.971 40.82 183.651 40.556C183.331 40.284 182.903 40.148 182.367 40.148H180.471V43.1H182.403ZM187.83 36.524V39.32H190.878V40.22H187.83V43.1H191.238V44H186.738V35.624H191.238V36.524H187.83ZM198.039 35.636V36.524H195.759V44H194.667V36.524H192.375V35.636H198.039ZM204.327 42.14H200.679L200.007 44H198.855L201.879 35.684H203.139L206.151 44H204.999L204.327 42.14ZM204.015 41.252L202.503 37.028L200.991 41.252H204.015Z" fill="#5138E5"/>
</svg>
