<svg width="24" height="24" viewBox="0 0 24 24" fill="none" xmlns="http://www.w3.org/2000/svg">
<path fill-rule="evenodd" clip-rule="evenodd" d="M11 14V2H13V14H11Z" fill="#525A61"/>
<path d="M17.84 6.16016L16.42 7.58014C17.5408 8.49277 18.3515 9.72996 18.741 11.1218C19.1305 12.5137 19.0796 13.992 18.5953 15.3538C18.111 16.7156 17.217 17.894 16.0361 18.7274C14.8552 19.5608 13.4453 20.0082 12 20.0082C10.5546 20.0082 9.14474 19.5608 7.96385 18.7274C6.78296 17.894 5.889 16.7156 5.40468 15.3538C4.92037 13.992 4.86947 12.5137 5.25896 11.1218C5.64845 9.72996 6.45921 8.49277 7.57997 7.58014L6.15999 6.16016C4.75933 7.35466 3.75864 8.94993 3.29286 10.7309C2.82709 12.5118 2.91862 14.3928 3.55513 16.1201C4.19164 17.8474 5.34249 19.3379 6.85253 20.3908C8.36256 21.4436 10.1591 22.0081 12 22.0081C13.8408 22.0081 15.6374 21.4436 17.1474 20.3908C18.6575 19.3379 19.8083 17.8474 20.4448 16.1201C21.0814 14.3928 21.1729 12.5118 20.7071 10.7309C20.2413 8.94993 19.2407 7.35466 17.84 6.16016Z" fill="#525A61"/>
</svg>
