<svg width="24" height="24" viewBox="0 0 24 24" fill="none" xmlns="http://www.w3.org/2000/svg">
<path d="M12.63 8.04994C11.7955 7.91682 10.9402 8.05145 10.1869 8.43449C9.4336 8.81753 8.82098 9.42934 8.4369 10.1821C8.05282 10.9349 7.91705 11.79 8.04902 12.6247C8.18099 13.4594 8.57395 14.2309 9.17152 14.8284C9.76909 15.426 10.5406 15.819 11.3753 15.9509C12.21 16.0829 13.0651 15.9471 13.8179 15.5631C14.5707 15.179 15.1824 14.5664 15.5654 13.8131C15.9485 13.0598 16.0831 12.2045 15.95 11.3699C15.8172 10.5373 15.4246 9.76783 14.8284 9.17158C14.2321 8.57533 13.4627 8.18276 12.63 8.04994V8.04994ZM12.63 14.94C11.9985 15.0669 11.343 14.9872 10.7603 14.7127C10.1776 14.4381 9.69869 13.9834 9.39448 13.4156C9.09027 12.8479 8.97686 12.1973 9.07105 11.5601C9.16525 10.9229 9.46203 10.3329 9.91749 9.87745C10.373 9.42199 10.9629 9.12521 11.6001 9.03102C12.2373 8.93682 12.8879 9.05024 13.4557 9.35444C14.0235 9.65865 14.4782 10.1375 14.7528 10.7202C15.0273 11.3029 15.1069 11.9585 14.98 12.5899C14.8607 13.175 14.5696 13.7112 14.1438 14.1299C13.718 14.5485 13.177 14.8306 12.59 14.94H12.63Z" fill="#525A61"/>
<path d="M21.98 10.5296C21.7891 9.75699 21.7682 9.80828 21.68 9.47961H21.53C21.214 9.48028 20.8998 9.42959 20.6 9.32959C19.8958 9.10106 19.301 8.62026 18.93 7.97961C18.6558 7.50228 18.5182 6.95869 18.5324 6.40839C18.5465 5.85808 18.7117 5.32224 19.01 4.85959C18.7747 4.62039 18.5241 4.39662 18.26 4.18961C17.4654 3.54476 16.5746 3.02849 15.62 2.65961C15.2937 2.53482 14.9597 2.43127 14.62 2.34961C14.4539 2.67368 14.2263 2.96238 13.95 3.19962C13.4 3.69157 12.688 3.96353 11.95 3.96353C11.2121 3.96353 10.5 3.69157 9.95002 3.19962C9.67372 2.96238 9.44618 2.67368 9.28004 2.34961C8.94037 2.43127 8.60634 2.53482 8.28004 2.65961C7.32548 3.02849 6.43465 3.54476 5.64003 4.18961C5.37591 4.39662 5.12539 4.62039 4.89003 4.85959C5.18833 5.32224 5.35358 5.85808 5.36769 6.40839C5.3818 6.95869 5.24422 7.50228 4.97001 7.97961C4.59899 8.62026 4.00417 9.10106 3.3 9.32959C3.00016 9.42959 2.68608 9.48028 2.37001 9.47961H2.22001C2.13182 9.80828 2.06501 10.1423 2.02 10.4796C1.97253 10.9849 1.96585 11.4932 2.00001 11.9996C1.99941 12.512 2.03954 13.0236 2.12001 13.5296C2.17001 13.8596 2.24002 14.1896 2.32002 14.5296H2.47001C2.78609 14.5289 3.10017 14.5796 3.40001 14.6796C4.10418 14.9081 4.69899 15.389 5.07002 16.0296C5.34422 16.5069 5.4818 17.0505 5.46769 17.6008C5.45358 18.1511 5.28831 18.6869 4.99 19.1496C5.22537 19.3888 5.47589 19.6126 5.74 19.8196C6.53463 20.4645 7.42546 20.9807 8.38002 21.3496C8.70632 21.4744 9.04035 21.5779 9.38002 21.6596C9.54616 21.3355 9.7737 21.0468 10.05 20.8096C10.6 20.3176 11.3121 20.0457 12.05 20.0457C12.7879 20.0457 13.5 20.3176 14.05 20.8096C14.3263 21.0468 14.5538 21.3355 14.72 21.6596C15.0597 21.5779 15.3937 21.4744 15.72 21.3496C16.6745 20.9807 17.5654 20.4645 18.36 19.8196C18.6241 19.6126 18.8746 19.3888 19.11 19.1496C18.8117 18.6869 18.6464 18.1511 18.6323 17.6008C18.6182 17.0505 18.7558 16.5069 19.03 16.0296C19.4011 15.389 19.9959 14.9081 20.7 14.6796C20.9999 14.5796 21.3139 14.5289 21.63 14.5296H21.78C21.8682 14.2009 21.935 13.8669 21.98 13.5296C22.1357 12.5357 22.1357 11.5235 21.98 10.5296ZM18.06 15.4796C17.7649 15.9869 17.5874 16.5539 17.5407 17.1389C17.4939 17.7239 17.5791 18.3119 17.79 18.8596C16.9912 19.5403 16.0767 20.072 15.09 20.4296C14.7147 19.9766 14.2441 19.612 13.7117 19.3618C13.1793 19.1115 12.5983 18.9818 12.01 18.9818C11.4218 18.9818 10.8407 19.1115 10.3084 19.3618C9.77598 19.612 9.30534 19.9766 8.93 20.4296C7.94332 20.072 7.02883 19.5403 6.23002 18.8596C6.4409 18.3119 6.52611 17.7239 6.47938 17.1389C6.43265 16.5539 6.25515 15.9869 5.96 15.4796C5.66376 14.972 5.25929 14.5358 4.77534 14.2022C4.29139 13.8687 3.73986 13.6458 3.16002 13.5496C2.97328 12.5113 2.97328 11.4479 3.16002 10.4096C3.73986 10.3134 4.29139 10.0906 4.77534 9.75699C5.25929 9.42341 5.66376 8.98728 5.96 8.47961C6.25515 7.97237 6.43265 7.40532 6.47938 6.82031C6.52611 6.23531 6.4409 5.64728 6.23002 5.09961C7.02883 4.41894 7.94332 3.88717 8.93 3.5296C9.30534 3.98256 9.77598 4.34716 10.3084 4.59741C10.8407 4.84767 11.4218 4.97742 12.01 4.97742C12.5983 4.97742 13.1793 4.84767 13.7117 4.59741C14.2441 4.34716 14.7147 3.98256 15.09 3.5296C16.0767 3.88717 16.9912 4.41894 17.79 5.09961C17.5791 5.64728 17.4939 6.23531 17.5407 6.82031C17.5874 7.40532 17.7649 7.97237 18.06 8.47961C18.3563 8.98728 18.7608 9.42341 19.2447 9.75699C19.7287 10.0906 20.2801 10.3134 20.86 10.4096C21.0467 11.4479 21.0467 12.5113 20.86 13.5496C20.2784 13.648 19.7257 13.8739 19.2416 14.2111C18.7576 14.5482 18.3541 14.9882 18.06 15.4996V15.4796Z" fill="#525A61"/>
</svg>
