<svg width="52" height="30" viewBox="0 0 52 30" fill="none" xmlns="http://www.w3.org/2000/svg">
<rect x="0.5" y="0.5" width="51" height="29" rx="3.5" fill="white" fill-opacity="0.15"/>
<circle cx="12" cy="15" r="4" fill="#5138E5"/>
<path d="M27.529 13.617C25.67 13.981 24.006 14.098 22.355 14.111V9.886H21.302V15.008H22.212C23.954 15.008 25.696 14.878 27.659 14.488L27.529 13.617ZM23.473 17.387H28.738V19.935H23.473V17.387ZM22.433 20.793H29.778V16.529H22.433V20.793ZM31.507 11.979H29.778V9.301H28.712V15.892H29.778V12.863H31.507V11.979ZM36.615 11.381H39.202V10.497H32.897V11.381H35.562V12.863C35.562 14.839 34.158 17.049 32.494 17.881L33.118 18.726C34.431 18.05 35.562 16.568 36.095 14.865C36.628 16.425 37.72 17.79 39.02 18.44L39.631 17.582C37.941 16.789 36.615 14.722 36.615 12.863V11.381ZM43.583 14.007H41.659V9.314H40.593V20.962H41.659V14.904H43.583V14.007Z" fill="#333333"/>
<rect x="0.5" y="0.5" width="51" height="29" rx="3.5" stroke="#CCCCCC"/>
</svg>
