<svg width="128" height="22" viewBox="0 0 128 22" fill="none" xmlns="http://www.w3.org/2000/svg">
<path fill-rule="evenodd" clip-rule="evenodd" d="M6.60207 0H15.3979C19.0441 0 22 2.95585 22 6.60207V15.3979C22 19.0442 19.0441 22 15.3979 22H6.60207C2.95584 22 0 19.0442 0 15.3979V6.60207C0 2.95585 2.95584 0 6.60207 0ZM8.66185 16.3882C8.30023 16.6298 7.87509 16.7588 7.44018 16.7588C6.85697 16.7588 6.29766 16.5271 5.88527 16.1147C5.47289 15.7023 5.24121 15.143 5.24121 14.5598C5.24121 14.1249 5.37017 13.6997 5.6118 13.3381C5.85343 12.9765 6.19686 12.6947 6.59867 12.5282C7.00048 12.3618 7.44261 12.3182 7.86917 12.4031C8.29573 12.4879 8.68755 12.6974 8.99508 13.0049C9.30261 13.3124 9.51204 13.7043 9.59689 14.1308C9.68174 14.5574 9.63819 14.9995 9.47175 15.4013C9.30532 15.8031 9.02347 16.1466 8.66185 16.3882ZM14.5752 16.7588C15.0102 16.7588 15.4353 16.6298 15.7969 16.3882C16.1585 16.1466 16.4404 15.8031 16.6068 15.4013C16.7733 14.9995 16.8168 14.5574 16.732 14.1308C16.6471 13.7043 16.4377 13.3124 16.1301 13.0049C15.8226 12.6974 15.4308 12.4879 15.0042 12.4031C14.5777 12.3182 14.1355 12.3618 13.7337 12.5282C13.3319 12.6947 12.9885 12.9765 12.7469 13.3381C12.5052 13.6997 12.3763 14.1249 12.3763 14.5598C12.3763 15.143 12.608 15.7023 13.0203 16.1147C13.4327 16.5271 13.992 16.7588 14.5752 16.7588ZM8.66185 9.26855C8.30023 9.51018 7.87509 9.63914 7.44018 9.63914C6.85697 9.63914 6.29766 9.40746 5.88527 8.99508C5.47289 8.58269 5.24121 8.02338 5.24121 7.44018C5.24121 7.00526 5.37017 6.58011 5.6118 6.21849C5.85343 5.85688 6.19686 5.57503 6.59867 5.4086C7.00048 5.24216 7.44261 5.19862 7.86917 5.28346C8.29573 5.36831 8.68755 5.57774 8.99508 5.88527C9.30261 6.1928 9.51204 6.58462 9.59689 7.01118C9.68174 7.43774 9.63819 7.87987 9.47175 8.28168C9.30532 8.68349 9.02347 9.02693 8.66185 9.26855Z" fill="white"/>
<path fill-rule="evenodd" clip-rule="evenodd" d="M73.2403 15.0289C73.8591 16.1198 74.7465 17.0036 75.8035 17.5817C76.9387 18.2011 78.197 18.5114 79.4687 18.4854C80.6173 18.5081 81.7571 18.2662 82.8123 17.7757C83.7643 17.3232 84.5966 16.6212 85.2337 15.7335L82.5002 13.0989C82.1819 13.5908 81.76 13.994 81.2691 14.2754C80.7782 14.5568 80.2325 14.7083 79.6768 14.7174C79.2723 14.7378 78.8685 14.6645 78.4925 14.5025C78.1164 14.3404 77.7769 14.0934 77.4966 13.778C76.9221 13.0867 76.6246 12.178 76.669 11.2506C76.635 10.3313 76.9373 9.43447 77.5108 8.7539C77.7906 8.43752 78.13 8.18953 78.5061 8.0266C78.8822 7.86367 79.2862 7.78959 79.691 7.80933C80.2452 7.8212 80.789 7.97506 81.2774 8.25823C81.7658 8.5414 82.1849 8.94578 82.5002 9.43807L85.2337 6.7984C84.5969 5.91031 83.7645 5.20824 82.8123 4.7561C81.7575 4.26394 80.6176 4.02025 79.4687 4.0413C78.1952 4.01936 76.9363 4.33677 75.8035 4.96544C74.7455 5.54197 73.8577 6.42616 73.2403 7.51831C72.6329 8.66123 72.3133 9.95592 72.3133 11.2736C72.3133 12.5912 72.6329 13.8859 73.2403 15.0289ZM32.332 4.31685H28V18.2045H38.1301V14.559H32.332V4.31685ZM44.6046 15.7691H49.4852L50.3459 18.2045H54.8245L49.2109 4.31685H44.9546L39.3362 18.2045H43.7391L44.6046 15.7691ZM47.0449 8.91203L48.2934 12.3993H45.7964L47.0449 8.91203ZM68.1564 12.2614C68.5795 12.8658 68.7997 13.6076 68.7807 14.365C68.7962 14.9282 68.673 15.4859 68.4238 15.981C68.1745 16.4761 67.8081 16.891 67.3619 17.1833C66.416 17.8522 65.0871 18.2045 63.3231 18.2045H56.1299V4.31685H62.9921C64.704 4.31685 65.9967 4.64702 66.87 5.30737C67.2796 5.58848 67.6155 5.97829 67.8457 6.43954C68.0759 6.90079 68.1926 7.41807 68.1848 7.94193C68.1874 8.5612 68.0231 9.16792 67.7119 9.6881C67.384 10.228 66.924 10.6592 66.3829 10.9339C67.0791 11.1851 67.6944 11.6456 68.1564 12.2614ZM60.3862 7.58453V9.62683H62.4009C63.3467 9.62683 63.8197 9.28475 63.8197 8.60568C63.8197 7.92662 63.3467 7.58453 62.4009 7.58453H60.3862ZM64.4203 13.8289C64.4203 13.0987 63.9474 12.7362 63.0015 12.7362H60.3957V14.9164H63.0015C63.9426 14.9164 64.4203 14.5539 64.4203 13.8289ZM102.415 4.31713H108.743C110.046 4.29027 111.339 4.5781 112.526 5.15958C113.575 5.67816 114.461 6.51565 115.075 7.56949C115.698 8.67756 116.013 9.95515 115.983 11.2507C116.013 12.5479 115.698 13.8271 115.075 14.9371C114.459 15.9898 113.574 16.8269 112.526 17.347C111.338 17.9244 110.046 18.2104 108.743 18.1843H102.415V4.31713ZM108.563 14.5286C108.969 14.5507 109.376 14.4858 109.759 14.3377C110.142 14.1896 110.494 13.9612 110.795 13.6658C111.083 13.347 111.307 12.9664 111.45 12.5486C111.593 12.1308 111.654 11.6852 111.627 11.2405C111.653 10.796 111.592 10.3506 111.449 9.93295C111.305 9.51531 111.083 9.13461 110.795 8.81529C110.494 8.51979 110.142 8.29145 109.759 8.14337C109.376 7.99529 108.969 7.93039 108.563 7.95242H106.747V14.5388L108.563 14.5286ZM128 18.2045V14.6611H121.597V12.8384H127.03V9.46855H121.597V7.84492H127.745V4.31685H117.34V18.2045H128Z" fill="white"/>
<path d="M89.0943 17.5709C88.0195 16.9724 87.1181 16.066 86.4888 14.951C85.8594 13.8361 85.5266 12.5556 85.5266 11.25C85.5266 9.94436 85.8594 8.66392 86.4888 7.54898C87.1181 6.43404 88.0195 5.52763 89.0943 4.92909C90.2542 4.31775 91.5279 4 92.8186 4C94.1093 4 95.3831 4.31775 96.5429 4.92909C97.6177 5.52763 98.5192 6.43404 99.1485 7.54898C99.7778 8.66392 100.111 9.94436 100.111 11.25C100.111 12.5556 99.7778 13.8361 99.1485 14.951C98.5192 16.066 97.6177 16.9724 96.5429 17.5709C95.3831 18.1823 94.1093 18.5 92.8186 18.5C91.5279 18.5 90.2542 18.1823 89.0943 17.5709ZM94.2965 14.293C94.7288 14.0007 95.08 13.5879 95.3133 13.0983C95.5685 12.5265 95.701 11.9 95.701 11.2653C95.701 10.6306 95.5685 10.0041 95.3133 9.43235C95.0762 8.93634 94.7181 8.51968 94.2776 8.2274C93.8353 7.94685 93.3316 7.79892 92.8186 7.79892C92.3056 7.79892 91.8019 7.94685 91.3596 8.2274C90.9243 8.51817 90.5685 8.92876 90.3287 9.41704C90.0742 9.99176 89.9422 10.6207 89.9422 11.2577C89.9422 11.8946 90.0742 12.5236 90.3287 13.0983C90.5676 13.5943 90.9252 14.0121 91.3644 14.3083C91.8076 14.5858 92.311 14.732 92.8234 14.732C93.3358 14.732 93.8391 14.5858 94.2823 14.3083L94.2965 14.293Z" fill="#B3E052"/>
</svg>
