<svg width="36" height="36" viewBox="0 0 36 36" fill="none" xmlns="http://www.w3.org/2000/svg">
<path fill-rule="evenodd" clip-rule="evenodd" d="M10.8034 0H25.1966C31.1631 0 36 4.83685 36 10.8034V25.1966C36 31.1632 31.1631 36 25.1966 36H10.8034C4.83683 36 0 31.1632 0 25.1966V10.8034C0 4.83685 4.83683 0 10.8034 0ZM14.1716 15.1664C13.5799 15.5617 12.8842 15.7728 12.1725 15.7728C11.2182 15.7728 10.303 15.3937 9.62814 14.7189C8.95333 14.044 8.57422 13.1288 8.57422 12.1745C8.57422 11.4628 8.78525 10.7671 9.18064 10.1754C9.57602 9.58362 10.138 9.12243 10.7955 8.85008C11.453 8.57773 12.1765 8.50647 12.8745 8.64531C13.5725 8.78415 14.2137 9.12686 14.7169 9.63009C15.2201 10.1333 15.5628 10.7745 15.7017 11.4725C15.8405 12.1705 15.7693 12.894 15.4969 13.5515C15.2246 14.209 14.7634 14.771 14.1716 15.1664ZM23.8522 27.4242C24.5639 27.4242 25.2596 27.2131 25.8513 26.8177C26.4431 26.4224 26.9043 25.8604 27.1766 25.2029C27.449 24.5454 27.5202 23.8219 27.3814 23.1239C27.2425 22.4259 26.8998 21.7847 26.3966 21.2815C25.8934 20.7782 25.2522 20.4355 24.5542 20.2967C23.8562 20.1578 23.1327 20.2291 22.4752 20.5014C21.8177 20.7738 21.2557 21.235 20.8603 21.8267C20.4649 22.4185 20.2539 23.1142 20.2539 23.8259C20.2539 24.7802 20.633 25.6954 21.3078 26.3702C21.9826 27.045 22.8979 27.4242 23.8522 27.4242ZM14.1716 26.8177C13.5799 27.2131 12.8842 27.4242 12.1725 27.4242C11.2182 27.4242 10.303 27.045 9.62814 26.3702C8.95333 25.6954 8.57422 24.7802 8.57422 23.8259C8.57422 23.1142 8.78525 22.4185 9.18064 21.8267C9.57602 21.235 10.138 20.7738 10.7955 20.5014C11.453 20.2291 12.1765 20.1578 12.8745 20.2967C13.5725 20.4355 14.2137 20.7782 14.7169 21.2815C15.2201 21.7847 15.5628 22.4259 15.7017 23.1239C15.8405 23.8219 15.7693 24.5454 15.4969 25.2029C15.2246 25.8604 14.7634 26.4224 14.1716 26.8177Z" fill="#5138E5"/>
</svg>
