<svg width="24" height="24" viewBox="0 0 24 24" fill="none" xmlns="http://www.w3.org/2000/svg">
<path fill-rule="evenodd" clip-rule="evenodd" d="M2 0H22C23.1046 0 24 0.895431 24 2V22C24 23.1046 23.1046 24 22 24H2C0.89543 24 0 23.1046 0 22V2C0 0.89543 0.895431 0 2 0ZM6.52534 5.67046C6.94083 5.3932 7.42921 5.24539 7.92871 5.24573C8.59784 5.24709 9.23914 5.51362 9.71213 5.98693C10.1851 6.46024 10.4512 7.10173 10.4521 7.77087C10.4521 8.27037 10.304 8.75864 10.0264 9.17394C9.7489 9.58923 9.35444 9.9129 8.89293 10.104C8.43142 10.295 7.92361 10.3449 7.43373 10.2474C6.94386 10.1498 6.49392 9.90912 6.14084 9.5558C5.78776 9.20248 5.54741 8.75239 5.45017 8.26245C5.35293 7.77251 5.40318 7.26473 5.59456 6.80335C5.78595 6.34197 6.10986 5.94772 6.52534 5.67046ZM15.0187 10.2995H19.0713C19.1685 10.2975 19.263 10.267 19.343 10.2118C19.4231 10.1566 19.4852 10.0792 19.5217 9.98903C19.5582 9.8989 19.5675 9.80004 19.5483 9.7047C19.5292 9.60936 19.4826 9.52173 19.4141 9.45264L15.3581 5.39492C15.2893 5.32569 15.2017 5.27831 15.1061 5.25873C15.0105 5.23915 14.9112 5.24825 14.8207 5.28487C14.7303 5.32149 14.6527 5.38401 14.5976 5.46458C14.5425 5.54516 14.5125 5.6402 14.5113 5.73778V9.7955C14.5103 9.86223 14.5229 9.92846 14.5481 9.99026C14.5733 10.0521 14.6107 10.1081 14.658 10.1552C14.7054 10.2022 14.7617 10.2392 14.8237 10.264C14.8857 10.2888 14.952 10.3009 15.0187 10.2995ZM10.1441 13.7367C10.0535 13.6995 9.95383 13.6899 9.85776 13.7091C9.76168 13.7283 9.67344 13.7755 9.60409 13.8447L7.92923 15.5315L6.25265 13.8532C6.18413 13.7813 6.09562 13.7315 5.99854 13.7104C5.90146 13.6892 5.80027 13.6976 5.70802 13.7345C5.61577 13.7714 5.5367 13.8351 5.48099 13.9174C5.42529 13.9997 5.39551 14.0967 5.39551 14.1961V18.2538C5.39551 18.319 5.40838 18.3836 5.43338 18.4438C5.45839 18.504 5.49503 18.5587 5.54122 18.6048C5.5874 18.6508 5.64223 18.6872 5.70254 18.712C5.76285 18.7368 5.82745 18.7495 5.89265 18.7493H9.94695C10.0121 18.7495 10.0768 18.7368 10.1371 18.712C10.1974 18.6872 10.2522 18.6508 10.2984 18.6048C10.3445 18.5587 10.3812 18.504 10.4062 18.4438C10.4312 18.3836 10.4441 18.319 10.4441 18.2538V14.1961C10.4445 14.0986 10.4162 14.0031 10.3629 13.9214C10.3096 13.8398 10.2335 13.7756 10.1441 13.7367ZM19.0749 13.699H15.0189C14.7453 13.699 14.5234 13.9208 14.5234 14.1944V18.2538C14.5234 18.5274 14.7453 18.7493 15.0189 18.7493H19.0749C19.3485 18.7493 19.5703 18.5274 19.5703 18.2538V14.1944C19.5703 13.9208 19.3485 13.699 19.0749 13.699Z" fill="#79828A"/>
</svg>
