<svg width="24" height="24" viewBox="0 0 24 24" fill="none" xmlns="http://www.w3.org/2000/svg">
<path fill-rule="evenodd" clip-rule="evenodd" d="M13 5H19C19.5304 5 20.0391 5.21072 20.4142 5.58579C20.7893 5.96086 21 6.46957 21 7H3V5C3 4.46957 3.21071 3.96086 3.58579 3.58579C3.96086 3.21072 4.46957 3 5 3H10.17C10.4339 2.99979 10.6953 3.05182 10.939 3.15308C11.1827 3.25434 11.4039 3.40283 11.59 3.59L13 5ZM3.52721 20.4142C3.18964 20.0391 3 19.5304 3 19V9H21V19C21 19.5304 20.8104 20.0391 20.4728 20.4142C20.1352 20.7893 19.6774 21 19.2 21H4.8C4.32261 21 3.86477 20.7893 3.52721 20.4142Z" fill="#9EA7AD"/>
</svg>
