<svg width="24" height="24" viewBox="0 0 24 24" fill="none" xmlns="http://www.w3.org/2000/svg">
<path d="M22 20.59L16.31 14.9C17.407 13.5025 18.0022 11.7767 18 10C18 8.41775 17.5308 6.87103 16.6518 5.55544C15.7727 4.23985 14.5233 3.21447 13.0615 2.60897C11.5997 2.00347 9.99113 1.84504 8.43928 2.15372C6.88743 2.4624 5.46197 3.22433 4.34315 4.34315C3.22433 5.46197 2.4624 6.88743 2.15372 8.43928C1.84504 9.99113 2.00347 11.5997 2.60897 13.0615C3.21447 14.5233 4.23985 15.7727 5.55544 16.6518C6.87103 17.5308 8.41775 18 10 18C11.7767 18.0022 13.5025 17.407 14.9 16.31L20.59 22L22 20.59ZM10 16C8.81332 16 7.65328 15.6481 6.66658 14.9888C5.67989 14.3295 4.91085 13.3925 4.45673 12.2961C4.0026 11.1997 3.88378 9.99335 4.11529 8.82946C4.3468 7.66558 4.91825 6.59648 5.75736 5.75736C6.59648 4.91825 7.66558 4.3468 8.82946 4.11529C9.99335 3.88378 11.1997 4.0026 12.2961 4.45673C13.3925 4.91085 14.3295 5.67989 14.9888 6.66658C15.6481 7.65328 16 8.81332 16 10C16 11.5913 15.3679 13.1174 14.2426 14.2426C13.1174 15.3679 11.5913 16 10 16Z" fill="#79828A"/>
</svg>
