<svg width="214" height="135" viewBox="0 0 214 135" fill="none" xmlns="http://www.w3.org/2000/svg">
<path d="M124.493 1.21875H89.496C75.0012 1.21875 63.2507 12.9691 63.2507 27.464V62.4613C63.2507 76.9562 75.0012 88.7066 89.496 88.7066H124.493C138.988 88.7066 150.739 76.9562 150.739 62.4613V27.464C150.739 12.9691 138.988 1.21875 124.493 1.21875Z" fill="#5138E5"/>
<path d="M92.8468 67.8621C94.5778 67.8621 96.2699 67.3488 97.7092 66.3871C99.1485 65.4254 100.27 64.0585 100.933 62.4593C101.595 60.86 101.768 59.1003 101.431 57.4025C101.093 55.7048 100.26 54.1453 99.0355 52.9213C97.8115 51.6973 96.252 50.8638 94.5543 50.5261C92.8565 50.1884 91.0968 50.3617 89.4975 51.0241C87.8983 51.6865 86.5314 52.8083 85.5697 54.2476C84.608 55.6869 84.0947 57.379 84.0947 59.11C84.0976 61.4303 85.0207 63.6547 86.6614 65.2954C88.3021 66.9361 90.5264 67.8592 92.8468 67.8621Z" fill="white"/>
<path d="M121.153 67.8621C122.884 67.8621 124.577 67.3488 126.016 66.3871C127.455 65.4254 128.577 64.0585 129.239 62.4593C129.902 60.86 130.075 59.1003 129.737 57.4025C129.4 55.7048 128.566 54.1453 127.342 52.9213C126.118 51.6973 124.559 50.8638 122.861 50.5261C121.163 50.1884 119.403 50.3617 117.804 51.0241C116.205 51.6865 114.838 52.8083 113.876 54.2476C112.915 55.6869 112.401 57.379 112.401 59.11C112.404 61.4303 113.327 63.6547 114.968 65.2954C116.609 66.9361 118.833 67.8592 121.153 67.8621Z" fill="white"/>
<path d="M92.8468 39.5555C94.5778 39.5555 96.2699 39.0422 97.7092 38.0805C99.1485 37.1188 100.27 35.7519 100.933 34.1527C101.595 32.5534 101.768 30.7937 101.431 29.0959C101.093 27.3982 100.26 25.8387 99.0355 24.6147C97.8115 23.3907 96.252 22.5571 94.5543 22.2194C92.8565 21.8817 91.0968 22.0551 89.4975 22.7175C87.8983 23.3799 86.5314 24.5017 85.5697 25.941C84.608 27.3802 84.0947 29.0724 84.0947 30.8034C84.0947 33.1246 85.0168 35.3507 86.6581 36.992C88.2995 38.6334 90.5256 39.5555 92.8468 39.5555Z" fill="white"/>
<path d="M13.9567 109.264H22.0584V126.901H32.8497V133.151H14.0007L13.9567 109.264Z" fill="#5138E5"/>
<path d="M53.9364 128.995H44.8536L43.2442 133.162H35.0543L45.504 109.264H53.4183L63.8679 133.162H55.5347L53.9364 128.995ZM51.7318 123.197L49.417 117.179L47.0913 123.197H51.7318Z" fill="#5138E5"/>
<path d="M88.691 122.954C89.4786 123.993 89.8906 125.267 89.8594 126.57C89.8928 127.539 89.6698 128.5 89.213 129.355C88.7563 130.211 88.082 130.931 87.2581 131.442C85.5238 132.588 83.0216 133.162 79.7515 133.162H66.2927V109.264H79.0681C82.2537 109.264 84.6567 109.826 86.2881 110.973C87.0482 111.456 87.6713 112.126 88.0978 112.92C88.5244 113.713 88.7401 114.603 88.7241 115.503C88.7409 116.566 88.4499 117.611 87.8863 118.512C87.284 119.449 86.4276 120.194 85.4172 120.662C86.7036 121.101 87.8389 121.896 88.691 122.954ZM74.218 114.897V118.446H77.9768C79.7295 118.446 80.6003 117.851 80.6003 116.672C80.6003 115.492 79.7295 114.897 77.9768 114.897H74.218ZM81.7246 125.655C81.7246 124.398 80.8428 123.77 79.0681 123.77H74.218V127.529H79.0681C80.8428 127.529 81.7246 126.901 81.7246 125.655Z" fill="#5138E5"/>
<path d="M102.911 132.125C100.944 131.124 99.2919 129.598 98.1379 127.716C97.0107 125.746 96.4176 123.516 96.4176 121.246C96.4176 118.976 97.0107 116.746 98.1379 114.775C99.2888 112.891 100.941 111.364 102.911 110.366C105.021 109.287 107.364 108.742 109.734 108.779C111.871 108.739 113.991 109.16 115.951 110.014C117.729 110.797 119.28 112.018 120.459 113.563L115.367 118.104C114.781 117.258 114.004 116.563 113.097 116.076C112.191 115.589 111.181 115.325 110.153 115.305C109.399 115.27 108.646 115.397 107.944 115.676C107.243 115.956 106.609 116.381 106.085 116.925C105.086 118.156 104.541 119.693 104.541 121.279C104.541 122.864 105.086 124.402 106.085 125.633C106.609 126.176 107.243 126.602 107.944 126.881C108.646 127.161 109.399 127.288 110.153 127.253C111.181 127.23 112.189 126.965 113.095 126.478C114.001 125.992 114.78 125.298 115.367 124.453L120.459 128.995C119.277 130.537 117.727 131.757 115.951 132.544C113.991 133.398 111.871 133.819 109.734 133.779C107.358 133.795 105.015 133.228 102.911 132.125Z" fill="#5138E5"/>
<path d="M129.509 132.103C127.507 131.074 125.828 129.513 124.656 127.592C123.483 125.671 122.863 123.464 122.863 121.213C122.863 118.962 123.483 116.755 124.656 114.834C125.828 112.913 127.507 111.352 129.509 110.322C131.665 109.264 134.035 108.713 136.436 108.713C138.838 108.713 141.208 109.264 143.364 110.322C145.381 111.33 147.072 112.887 148.242 114.814C149.412 116.74 150.014 118.959 149.978 121.213C150.014 123.467 149.412 125.685 148.242 127.612C147.072 129.539 145.381 131.096 143.364 132.103C141.208 133.162 138.838 133.712 136.436 133.712C134.035 133.712 131.665 133.162 129.509 132.103ZM139.154 126.449C139.978 125.947 140.646 125.226 141.083 124.365C141.554 123.379 141.799 122.3 141.799 121.207C141.799 120.114 141.554 119.035 141.083 118.049C140.639 117.193 139.973 116.474 139.154 115.966C138.327 115.489 137.39 115.238 136.436 115.238C135.483 115.238 134.545 115.489 133.719 115.966C132.903 116.477 132.237 117.196 131.79 118.049C131.319 119.035 131.074 120.114 131.074 121.207C131.074 122.3 131.319 123.379 131.79 124.365C132.231 125.223 132.898 125.944 133.719 126.449C134.543 126.932 135.481 127.187 136.436 127.187C137.392 127.187 138.33 126.932 139.154 126.449Z" fill="#B3E052"/>
<path d="M152.425 109.264H164.252C166.682 109.211 169.093 109.704 171.307 110.708C173.258 111.602 174.905 113.047 176.047 114.864C177.159 116.795 177.745 118.984 177.745 121.213C177.745 123.441 177.159 125.631 176.047 127.562C174.902 129.376 173.255 130.819 171.307 131.718C169.092 132.716 166.682 133.209 164.252 133.162H152.469L152.425 109.264ZM163.867 126.901C164.621 126.939 165.376 126.827 166.088 126.571C166.799 126.316 167.453 125.922 168.011 125.413C169.014 124.25 169.566 122.765 169.566 121.229C169.566 119.694 169.014 118.209 168.011 117.046C167.452 116.538 166.798 116.146 166.087 115.892C165.375 115.639 164.621 115.529 163.867 115.569H160.483V126.901H163.867Z" fill="#5138E5"/>
<path d="M200.043 127.121V133.195H180.202V109.264H199.636V115.338H188.128V118.137H198.236V123.947H188.128V127.121H200.043Z" fill="#5138E5"/>
</svg>
