<svg width="163" height="116" viewBox="0 0 163 116" fill="none" xmlns="http://www.w3.org/2000/svg">
<path d="M96.8244 0H66.1689C53.4723 0 43.1797 10.2823 43.1797 22.9661V53.5908C43.1797 66.2746 53.4723 76.5569 66.1689 76.5569H96.8244C109.521 76.5569 119.813 66.2746 119.813 53.5908V22.9661C119.813 10.2823 109.521 0 96.8244 0Z" fill="#5138E5"/>
<path d="M69.1027 58.3169C70.619 58.3169 72.1012 57.8677 73.3619 57.0262C74.6226 56.1847 75.6053 54.9886 76.1855 53.5891C76.7658 52.1897 76.9176 50.6498 76.6218 49.1642C76.3259 47.6786 75.5958 46.314 74.5237 45.2429C73.4515 44.1718 72.0855 43.4424 70.5984 43.1469C69.1113 42.8514 67.5699 43.0031 66.169 43.5827C64.7682 44.1624 63.5709 45.144 62.7285 46.4034C61.8861 47.6629 61.4365 49.1436 61.4365 50.6583C61.4391 52.6887 62.2476 54.6352 63.6847 56.0709C65.1219 57.5067 67.0703 58.3144 69.1027 58.3169Z" fill="white"/>
<path d="M93.8978 58.3169C95.414 58.3169 96.8963 57.8677 98.157 57.0262C99.4177 56.1847 100.4 54.9886 100.98 53.5891C101.561 52.1897 101.712 50.6498 101.417 49.1642C101.121 47.6786 100.391 46.314 99.3186 45.2429C98.2465 44.1718 96.8804 43.4424 95.3933 43.1469C93.9062 42.8514 92.3648 43.0031 90.964 43.5827C89.5631 44.1624 88.3658 45.144 87.5234 46.4034C86.6811 47.6629 86.2314 49.1436 86.2314 50.6583C86.234 52.6887 87.0425 54.6352 88.4797 56.0709C89.9168 57.5067 91.8653 58.3144 93.8978 58.3169Z" fill="white"/>
<path d="M69.1027 33.5472C70.619 33.5472 72.1012 33.098 73.3619 32.2564C74.6226 31.4149 75.6053 30.2188 76.1855 28.8194C76.7658 27.42 76.9176 25.8801 76.6218 24.3945C76.3259 22.9088 75.5958 21.5442 74.5237 20.4732C73.4515 19.4021 72.0855 18.6726 70.5984 18.3771C69.1113 18.0816 67.5699 18.2333 66.169 18.813C64.7682 19.3926 63.5709 20.3742 62.7285 21.6337C61.8861 22.8931 61.4365 24.3738 61.4365 25.8886C61.4365 27.9198 62.2442 29.8678 63.6819 31.304C65.1196 32.7403 67.0695 33.5472 69.1027 33.5472Z" fill="white"/>
<path d="M0 94.5459H7.09659V109.979H16.5491V115.448H0.0385998L0 94.5459Z" fill="#5138E5"/>
<path d="M35.019 111.811H27.063L25.6533 115.457H18.4795L27.6327 94.5459H34.5652L43.7184 115.457H36.419L35.019 111.811ZM33.0879 106.738L31.0603 101.471L29.0231 106.738H33.0879Z" fill="#5138E5"/>
<path d="M65.4622 106.526C66.1521 107.434 66.513 108.55 66.4857 109.689C66.5149 110.538 66.3196 111.378 65.9195 112.127C65.5194 112.875 64.9288 113.505 64.2071 113.953C62.688 114.956 60.4962 115.457 57.6318 115.457H45.8428V94.5459H57.0332C59.8236 94.5459 61.9284 95.0378 63.3574 96.041C64.0232 96.4639 64.569 97.0505 64.9427 97.7446C65.3163 98.4388 65.5052 99.2173 65.4912 100.005C65.5059 100.935 65.2511 101.85 64.7574 102.639C64.2298 103.458 63.4797 104.11 62.5946 104.519C63.7214 104.903 64.7158 105.599 65.4622 106.526ZM52.7848 99.4748V102.581H56.0773C57.6125 102.581 58.3753 102.06 58.3753 101.028C58.3753 99.9957 57.6125 99.4748 56.0773 99.4748H52.7848ZM59.3601 108.889C59.3601 107.789 58.5877 107.239 57.0332 107.239H52.7848V110.529H57.0332C58.5877 110.529 59.3601 109.979 59.3601 108.889Z" fill="#5138E5"/>
<path d="M77.918 114.551C76.195 113.674 74.7482 112.339 73.7373 110.693C72.75 108.969 72.2305 107.017 72.2305 105.031C72.2305 103.044 72.75 101.093 73.7373 99.3686C74.7454 97.7198 76.193 96.3839 77.918 95.5104C79.7664 94.5658 81.8187 94.0889 83.8947 94.1214C85.7665 94.0864 87.6239 94.4549 89.3403 95.2018C90.898 95.8873 92.2565 96.9559 93.2892 98.3076L88.8285 102.282C88.3161 101.541 87.6347 100.933 86.8406 100.507C86.0466 100.081 85.1627 99.8493 84.2616 99.8316C83.601 99.8015 82.9415 99.9124 82.3271 100.157C81.7128 100.401 81.1577 100.774 80.6987 101.25C79.8238 102.327 79.3464 103.672 79.3464 105.06C79.3464 106.447 79.8238 107.792 80.6987 108.87C81.1577 109.345 81.7128 109.718 82.3271 109.962C82.9415 110.207 83.601 110.318 84.2616 110.287C85.1622 110.267 86.0453 110.035 86.839 109.609C87.6327 109.184 88.3144 108.576 88.8285 107.837L93.2892 111.811C92.2538 113.161 90.896 114.228 89.3403 114.917C87.6239 115.664 85.7665 116.033 83.8947 115.998C81.8139 116.012 79.7613 115.515 77.918 114.551Z" fill="#5138E5"/>
<path d="M101.216 114.532C99.4633 113.631 97.9926 112.265 96.9657 110.584C95.9388 108.903 95.3955 106.971 95.3955 105.002C95.3955 103.032 95.9388 101.101 96.9657 99.4198C97.9926 97.7386 99.4633 96.3727 101.216 95.472C103.105 94.5456 105.181 94.064 107.285 94.064C109.389 94.064 111.465 94.5456 113.353 95.472C115.12 96.3535 116.601 97.7159 117.626 99.402C118.651 101.088 119.178 103.029 119.146 105.002C119.178 106.974 118.651 108.915 117.626 110.602C116.601 112.288 115.12 113.65 113.353 114.532C111.465 115.458 109.389 115.94 107.285 115.94C105.181 115.94 103.105 115.458 101.216 114.532ZM109.665 109.583C110.387 109.144 110.972 108.513 111.354 107.76C111.768 106.898 111.982 105.953 111.982 104.997C111.982 104.041 111.768 103.096 111.354 102.234C110.966 101.485 110.383 100.855 109.665 100.411C108.941 99.9931 108.12 99.7734 107.285 99.7734C106.449 99.7734 105.628 99.9931 104.905 100.411C104.19 100.857 103.606 101.487 103.215 102.234C102.802 103.096 102.588 104.041 102.588 104.997C102.588 105.953 102.802 106.898 103.215 107.76C103.601 108.511 104.185 109.142 104.905 109.583C105.627 110.007 106.448 110.23 107.285 110.23C108.122 110.23 108.943 110.007 109.665 109.583Z" fill="#B3E052"/>
<path d="M121.288 94.5456H131.648C133.777 94.4991 135.888 94.931 137.828 95.8092C139.536 96.5917 140.979 97.8556 141.979 99.4456C142.954 101.135 143.467 103.051 143.467 105.001C143.467 106.952 142.954 108.867 141.979 110.557C140.976 112.145 139.534 113.408 137.828 114.194C135.887 115.067 133.776 115.499 131.648 115.457H121.327L121.288 94.5456ZM131.31 109.979C131.971 110.012 132.633 109.914 133.256 109.69C133.879 109.467 134.452 109.122 134.941 108.676C135.819 107.659 136.303 106.36 136.303 105.016C136.303 103.672 135.819 102.373 134.941 101.355C134.451 100.911 133.878 100.568 133.255 100.346C132.632 100.124 131.971 100.028 131.31 100.063H128.346V109.979H131.31Z" fill="#5138E5"/>
<path d="M163.001 110.172V115.486H145.621V94.5459H162.643V99.8606H152.563V102.311H161.417V107.394H152.563V110.172H163.001Z" fill="#5138E5"/>
</svg>
