<svg width="28" height="28" viewBox="0 0 28 28" fill="none" xmlns="http://www.w3.org/2000/svg">
<path d="M0 4C0 1.79086 1.79086 0 4 0H24C26.2091 0 28 1.79086 28 4V24C28 26.2091 26.2091 28 24 28H4C1.79086 28 0 26.2091 0 24V4Z" fill="white"/>
<path d="M14 16.8652C13.8019 16.8609 13.6126 16.7825 13.4696 16.6456L9.21638 12.4025C9.07758 12.2592 9 12.0676 9 11.8684C9 11.6691 9.07758 11.4776 9.21638 11.3342C9.35711 11.194 9.54788 11.1152 9.74678 11.1152C9.94568 11.1152 10.1365 11.194 10.2772 11.3342L14 15.0482L17.7228 11.3342C17.8635 11.194 18.0543 11.1152 18.2532 11.1152C18.4521 11.1152 18.6429 11.194 18.7836 11.3342C18.9224 11.4776 19 11.6691 19 11.8684C19 12.0676 18.9224 12.2592 18.7836 12.4025L14.5304 16.6456C14.3874 16.7825 14.1981 16.8609 14 16.8652Z" fill="#111111"/>
<path d="M4 1H24V-1H4V1ZM27 4V24H29V4H27ZM24 27H4V29H24V27ZM1 24V4H-1V24H1ZM4 27C2.34315 27 1 25.6569 1 24H-1C-1 26.7614 1.23858 29 4 29V27ZM27 24C27 25.6569 25.6569 27 24 27V29C26.7614 29 29 26.7614 29 24H27ZM24 1C25.6569 1 27 2.34315 27 4H29C29 1.23858 26.7614 -1 24 -1V1ZM4 -1C1.23858 -1 -1 1.23858 -1 4H1C1 2.34315 2.34315 1 4 1V-1Z" fill="#E6E8EB"/>
</svg>
