<svg width="28" height="28" viewBox="0 0 28 28" fill="none" xmlns="http://www.w3.org/2000/svg">
<path d="M0 4C0 1.79086 1.79086 0 4 0H24C26.2091 0 28 1.79086 28 4V24C28 26.2091 26.2091 28 24 28H4C1.79086 28 0 26.2091 0 24V4Z" fill="white"/>
<path d="M14 10.1152C14.1981 10.1195 14.3874 10.1979 14.5304 10.3349L18.7836 14.578C18.9224 14.7213 19 14.9128 19 15.1121C19 15.3114 18.9224 15.5029 18.7836 15.6462C18.6429 15.7865 18.4521 15.8652 18.2532 15.8652C18.0543 15.8652 17.8635 15.7865 17.7228 15.6462L14 11.9323L10.2772 15.6462C10.1365 15.7865 9.94568 15.8652 9.74678 15.8652C9.54788 15.8652 9.35711 15.7865 9.21638 15.6462C9.07758 15.5029 9 15.3114 9 15.1121C9 14.9128 9.07758 14.7213 9.21638 14.578L13.4696 10.3349C13.6126 10.1979 13.8019 10.1195 14 10.1152Z" fill="#5138E5"/>
<path d="M4 1H24V-1H4V1ZM27 4V24H29V4H27ZM24 27H4V29H24V27ZM1 24V4H-1V24H1ZM4 27C2.34315 27 1 25.6569 1 24H-1C-1 26.7614 1.23858 29 4 29V27ZM27 24C27 25.6569 25.6569 27 24 27V29C26.7614 29 29 26.7614 29 24H27ZM24 1C25.6569 1 27 2.34315 27 4H29C29 1.23858 26.7614 -1 24 -1V1ZM4 -1C1.23858 -1 -1 1.23858 -1 4H1C1 2.34315 2.34315 1 4 1V-1Z" fill="#E6E8EB"/>
</svg>
