<svg width="160" height="31" viewBox="0 0 160 31" fill="none" xmlns="http://www.w3.org/2000/svg">
<path fill-rule="evenodd" clip-rule="evenodd" d="M15.8789 24.3422H23.4621L27.234 18.2435L23.4621 12.158H15.876L19.6479 18.2435L15.8789 24.3422ZM15.8789 24.3422H15.876H7.52982L3.77195 30.4277H12.1181L15.8789 24.3422ZM11.344 6.08555H3.75787L0 12.1842L3.77195 18.2698H11.3581L7.58612 12.1842L11.3551 6.08555H19.6901L23.4621 0H15.1159L11.3551 6.08555H11.344ZM47.6907 18.7246C52.4432 18.7246 54.707 16.2325 54.707 13.3194C54.707 9.53522 51.3925 8.70661 48.5255 7.98986C46.3405 7.44363 44.4154 6.96236 44.4154 5.28734C44.4154 3.90657 45.5072 2.81206 48.1885 2.81206C49.6977 2.81206 51.4156 3.28354 52.973 4.24334L53.9845 1.61651C52.4753 0.572514 50.2917 0 48.2045 0C43.4521 0 41.2203 2.49212 41.2203 5.43889C41.2203 9.26695 44.5333 10.0967 47.4028 10.8155C49.5948 11.3645 51.528 11.8487 51.528 13.5551C51.528 14.9022 50.3881 15.9294 47.6907 15.9294C45.5553 15.9294 43.3557 15.1043 41.9589 13.9256L40.851 16.5356C42.28 17.8322 44.9773 18.7246 47.6907 18.7246ZM70.1201 0.252075V12.5778L60.551 0.252075H57.9018V18.4543H61.0969V6.12867L70.666 18.4543H73.3152V0.252075H70.1201ZM85.3604 3.36774L82.1172 11.3324H88.6358L85.3604 3.36774ZM94.8172 18.2026H91.4455L89.7115 13.993H81.0414L79.3235 18.2026H76L83.803 0H86.982L94.8172 18.2026ZM103.548 10.3383H99.775V3.1146H103.548C106.374 3.1146 107.835 4.44483 107.835 6.73485C107.835 9.02487 106.374 10.3383 103.548 10.3383ZM103.693 0.252075H96.5478V18.4543H99.775V13.2008H103.693C108.252 13.2008 111.078 10.7255 111.078 6.71801C111.078 2.69364 108.252 0.252075 103.693 0.252075ZM120.246 18.4543H118.416V1.91908H112.314V0.252075H126.347V1.91908H120.246V18.4543ZM130.297 12.0389L134.456 2.25584L138.614 12.0389H130.297ZM141.376 18.4543H143.302L135.371 0.252075H133.556L125.625 18.4543H127.536L129.623 13.5881H139.288L141.376 18.4543ZM153.609 16.887C155.279 16.887 156.821 16.4997 158.153 15.4894V9.36022H159.919V16.2976C158.282 17.8299 155.954 18.6045 153.545 18.6045C148.263 18.6045 144.394 14.6812 144.394 9.34338C144.394 4.00562 148.263 0.0822754 153.561 0.0822754C156.178 0.0822754 158.458 0.974706 160 2.70906L158.86 3.93826C157.399 2.4228 155.665 1.79979 153.625 1.79979C149.339 1.79979 146.192 4.99908 146.192 9.34338C146.192 13.6708 149.339 16.887 153.609 16.887ZM150.696 29.6816L151.003 29.3084C151.455 29.7325 151.891 29.953 152.489 29.953C153.07 29.953 153.458 29.6307 153.458 29.1897V29.1728C153.458 28.7487 153.248 28.5113 152.327 28.3078C151.326 28.0873 150.874 27.7481 150.874 27.0018V26.9848C150.874 26.2725 151.471 25.7467 152.295 25.7467C152.925 25.7467 153.377 25.9333 153.813 26.3064L153.523 26.6965C153.119 26.3573 152.715 26.2046 152.279 26.2046C151.714 26.2046 151.358 26.5269 151.358 26.9339V26.9509C151.358 27.3749 151.584 27.6124 152.537 27.8329C153.507 28.0534 153.943 28.4265 153.943 29.1219V29.1388C153.943 29.919 153.329 30.4279 152.473 30.4279C151.778 30.4109 151.213 30.1734 150.696 29.6816ZM94.723 25.7794H94.2707L92.3 30.3419H92.8008L93.3177 29.1377H95.6761L96.1769 30.3419H96.6938L94.723 25.7794ZM94.4969 26.3731L95.4823 28.6797H93.5115L94.4969 26.3731ZM41.3841 25.8115H40.851L42.3856 30.3741H42.7895L43.9848 26.6935L45.1641 30.3741H45.584L47.1348 25.8115H46.6017L45.3741 29.5939L44.1948 25.8115H43.791L42.6118 29.5939L41.3841 25.8115ZM53.0473 25.8115H49.9297V30.3572H53.0797V29.8823H50.4143V28.3049H52.7727V27.8299H50.4143V26.2864H53.0473V25.8115ZM59.7505 25.8115H61.592C62.0928 25.8115 62.4805 25.9642 62.7228 26.2186C62.9005 26.4052 62.9974 26.6596 62.9974 26.9479V26.9649C62.9974 27.5585 62.6582 27.8639 62.3189 28.0165C62.8358 28.1861 63.2397 28.4914 63.2397 29.119V29.136C63.2397 29.9162 62.6097 30.3741 61.6728 30.3741H59.7505V25.8115ZM61.5113 27.8299C62.0928 27.8299 62.5128 27.5586 62.5128 27.0158V26.9988C62.5128 26.5578 62.1736 26.2525 61.5597 26.2525H60.2513V27.813H61.5113V27.8299ZM61.6889 29.8823C62.3512 29.8823 62.7551 29.577 62.7551 29.0681V29.0512C62.7551 28.5593 62.3674 28.2709 61.6082 28.2709H60.2513V29.8823H61.6889ZM66.0505 25.8115V28.4405C66.0505 29.7295 66.7774 30.408 67.8436 30.408C68.9259 30.408 69.6528 29.7295 69.6528 28.4066V25.8115H69.1682V28.4574C69.1682 29.4412 68.6512 29.95 67.8597 29.95C67.0359 29.95 66.5351 29.4073 66.5351 28.4235V25.8115H66.0505ZM72.7708 25.8115H73.2554V30.3402H72.7708V25.8115ZM76.9221 25.8115H76.4375V30.3572H79.3613V29.8823H76.9221V25.8115ZM82.1719 25.8115H83.6742C85.0311 25.8115 85.968 26.7953 85.968 28.0674V28.0844C85.968 29.3565 85.0311 30.3572 83.6742 30.3572H82.1719V25.8115ZM83.658 29.8653C84.7565 29.8653 85.4511 29.0851 85.4511 28.0844V28.0674C85.4511 27.0667 84.7565 26.2695 83.658 26.2695H82.6403V29.8653H83.658ZM103.236 25.8115H104.739C106.096 25.8115 107.033 26.7953 107.033 28.0674V28.0844C107.033 29.3565 106.096 30.3572 104.739 30.3572H103.236V25.8115ZM104.723 29.8653C105.821 29.8653 106.516 29.0851 106.516 28.0844V28.0674C106.516 27.0667 105.821 26.2695 104.723 26.2695H103.705V29.8653H104.723ZM111.749 25.7794H111.281L109.326 30.3419H109.827L110.344 29.1377H112.702L113.203 30.3419H113.72L111.749 25.7794ZM111.507 26.3731L112.492 28.6797H110.521L111.507 26.3731ZM117.048 26.2864H115.61V25.8115H119.002V26.2864H117.548V30.3572H117.048V26.2864ZM123.331 25.7794H122.879L120.908 30.3419H121.409L121.926 29.1377H124.284L124.785 30.3419H125.302L123.331 25.7794ZM123.105 26.3731L124.091 28.6797H122.12L123.105 26.3731ZM127.612 28.1381H129.324V28.6632H127.612V28.1381ZM132.199 25.8115H131.65L133.492 30.3741H133.928L135.785 25.8115H135.268L133.734 29.7127L132.199 25.8115ZM138.565 25.8115H141.682V26.2864H139.049V27.8299H141.408V28.3049H139.049V29.8823H141.715V30.3572H138.565V25.8115ZM146.463 25.8115H144.605V30.3572H145.09V28.5932H146.318L147.577 30.3572H148.175L146.851 28.5084C147.529 28.3727 148.03 27.9317 148.03 27.1854V27.1684C148.03 26.8123 147.901 26.49 147.691 26.2695C147.416 25.9811 146.996 25.8115 146.463 25.8115ZM147.529 27.1854C147.529 27.7621 147.061 28.1183 146.414 28.1183V28.1013H145.09V26.2695H146.431C147.125 26.2695 147.529 26.6087 147.529 27.1684V27.1854ZM159.968 25.8115H156.85V30.3572H160V29.8823H157.335V28.3049H159.693V27.8299H157.335V26.2864H159.968V25.8115Z" fill="#333333"/>
</svg>
