<svg width="160" height="32" viewBox="0 0 160 32" fill="none" xmlns="http://www.w3.org/2000/svg">
<g clip-path="url(#clip0_650_161)">
<path d="M22.7075 25.2417H7.30214L3.65877 31.5579H11.7158L19.0025 18.9332L15.3591 12.5939H22.7075L26.3509 18.9024L22.7075 25.2417ZM3.64337 6.3162H19.0487L22.6921 0H14.6274L7.34065 12.5939L10.984 18.9024H3.64337L0 12.5939L3.64337 6.3162Z" fill="#F16222"/>
<path d="M41.1091 21.321C46.1466 21.321 48.5345 18.8022 48.5345 15.8675C48.5345 9.13532 37.6506 11.6772 37.6506 7.77194C37.6506 6.37776 38.806 5.28398 41.6406 5.28398C43.422 5.3131 45.1645 5.80982 46.6935 6.72438L47.7719 4.07466C45.9252 2.9787 43.8108 2.41611 41.6637 2.44939C36.6338 2.44939 34.2691 4.96817 34.2691 7.9337C34.2691 14.7352 45.1761 12.1471 45.1761 16.1062C45.1761 17.4696 43.9668 18.4941 41.1091 18.4941C38.9129 18.4846 36.7786 17.766 35.024 16.4452L33.8455 19.0872C35.386 20.3966 38.2283 21.2901 41.0783 21.2901" fill="#3D4A59"/>
<path d="M64.8026 2.71143V15.1358L54.689 2.71143H51.8853V21.0592H55.2667V8.63478L65.3803 21.0592H68.1841V2.71143H64.8026Z" fill="#3D4A59"/>
<path d="M76.9883 14.1345L80.3929 6.11601L83.8822 14.1345H76.9883ZM86.8477 21.0669H90.4064L82.126 2.71143H78.7753L70.5181 21.0669H74.0305L75.8406 16.8227H85.0145L86.8477 21.0669Z" fill="#3D4A59"/>
<path d="M100.135 12.879H96.1524V5.59223H100.135C103.123 5.59223 104.672 6.93249 104.672 9.23559C104.672 11.5387 103.131 12.879 100.135 12.879ZM100.296 2.71143H92.717V21.0669H96.1216V15.7675H100.266C105.088 15.7675 108.076 13.2718 108.076 9.23559C108.076 5.19939 105.118 2.71143 100.296 2.71143Z" fill="#3D4A59"/>
<path d="M115.864 21.0592H117.805V4.38291H124.252V2.71143H109.417V4.38291H115.864V21.0592Z" fill="#3D4A59"/>
<path d="M128.419 14.589L132.825 4.72953L137.223 14.589H128.419ZM140.135 21.0669H142.184L133.795 2.71143H131.878L123.528 21.0669H125.546L127.749 16.168H137.932L140.135 21.0669Z" fill="#3D4A59"/>
<path d="M157.882 18.0704C156.481 19.0612 154.798 19.5719 153.083 19.5262C148.577 19.5262 145.249 16.2756 145.249 11.9236C145.249 7.57161 148.577 4.32108 153.114 4.32108C154.131 4.27894 155.145 4.44434 156.096 4.8072C157.047 5.17005 157.914 5.72276 158.644 6.43162L159.846 5.19919C158.954 4.31233 157.888 3.62131 156.714 3.17035C155.54 2.71939 154.285 2.51841 153.029 2.58028C147.421 2.58028 143.331 6.53175 143.331 11.9082C143.331 17.2847 147.406 21.2131 153.006 21.2131C155.456 21.2826 157.847 20.4616 159.738 18.9023V11.8851H157.882V18.0704Z" fill="#3D4A59"/>
<path d="M34.947 25.4033H35.5016L36.8034 29.1854L38.0281 25.3879H38.4517L39.6996 29.1854L40.9936 25.4033H41.5328L39.9075 29.971H39.4762L38.2592 26.2892L37.0113 29.971H36.58L34.947 25.4033Z" fill="#3D4A59"/>
<path d="M44.1362 25.4033H47.4176V25.8655H44.6446V27.406H47.1249V27.8759H44.6446V29.4626H47.4484V29.9325H44.1362V25.4033Z" fill="#3D4A59"/>
<path d="M53.7107 25.4035H55.6441C56.0764 25.3783 56.5017 25.5219 56.8303 25.804C56.9247 25.8992 56.9993 26.0122 57.0495 26.1366C57.0998 26.2609 57.1247 26.394 57.123 26.5281C57.1268 26.7564 57.059 26.9802 56.9291 27.1681C56.7993 27.3559 56.6139 27.4985 56.3989 27.5756C56.9381 27.7374 57.3772 28.0532 57.3772 28.6694C57.3772 29.4397 56.7224 29.9095 55.7288 29.9095H53.7107V25.4035ZM55.5593 27.4216C56.1756 27.4216 56.5992 27.1443 56.5992 26.6513C56.5992 26.2045 56.2449 25.881 55.5978 25.881H54.2037V27.4216H55.5593ZM55.7442 29.4782C56.4374 29.4782 56.8611 29.1778 56.8611 28.6694C56.8611 28.1764 56.4451 27.8991 55.6595 27.8991H54.2037V29.5013L55.7442 29.4782Z" fill="#3D4A59"/>
<path d="M59.9653 28.0376V25.4033H60.4737V27.9991C60.4438 28.1951 60.4578 28.3953 60.5147 28.5852C60.5715 28.7751 60.6698 28.95 60.8024 29.0974C60.9351 29.2447 61.0987 29.3608 61.2816 29.4373C61.4645 29.5138 61.6621 29.5488 61.8601 29.5397C62.6997 29.5397 63.2312 29.0313 63.2312 27.9991V25.4033H63.7473V27.9991C63.7638 28.2576 63.7271 28.5167 63.6396 28.7605C63.552 29.0042 63.4154 29.2275 63.2382 29.4163C63.061 29.6052 62.8469 29.7558 62.6092 29.8587C62.3715 29.9616 62.1153 30.0147 61.8563 30.0147C61.5973 30.0147 61.341 29.9616 61.1033 29.8587C60.8657 29.7558 60.6516 29.6052 60.4744 29.4163C60.2972 29.2275 60.1606 29.0042 60.073 28.7605C59.9854 28.5167 59.9488 28.2576 59.9653 27.9991V28.0376Z" fill="#3D4A59"/>
<path d="M66.6436 25.4033H67.1596V29.9402H66.6436V25.4033Z" fill="#3D4A59"/>
<path d="M70.1328 25.4033H70.6412V29.4703H73.1985V29.9402H70.1174L70.1328 25.4033Z" fill="#3D4A59"/>
<path d="M75.7712 25.4034H77.3118C77.6206 25.3834 77.9302 25.4269 78.2216 25.5313C78.5129 25.6356 78.7798 25.7985 79.0057 26.01C79.2317 26.2215 79.4118 26.4771 79.5352 26.7609C79.6585 27.0447 79.7223 27.3508 79.7227 27.6603C79.723 27.9724 79.6601 28.2813 79.5377 28.5684C79.4154 28.8555 79.2362 29.1148 79.0109 29.3307C78.7856 29.5467 78.5189 29.7147 78.2269 29.8248C77.9348 29.9349 77.6236 29.9846 77.3118 29.9711H75.7712V25.4034ZM77.3118 29.4704C77.5549 29.4864 77.7987 29.4519 78.0278 29.3689C78.2569 29.286 78.4664 29.1565 78.643 28.9886C78.8195 28.8207 78.9594 28.6181 79.0538 28.3934C79.1481 28.1688 79.1949 27.927 79.1912 27.6834C79.196 27.4391 79.15 27.1965 79.0561 26.971C78.9623 26.7454 78.8225 26.5418 78.6458 26.3731C78.4691 26.2044 78.2593 26.0742 78.0297 25.9908C77.8 25.9074 77.5556 25.8726 77.3118 25.8887H76.2488V29.4858L77.3118 29.4704Z" fill="#3D4A59"/>
<path d="M87.3252 25.8732H85.7847V25.4033H89.351V25.8732H87.8105V29.9402H87.3252V25.8732Z" fill="#3D4A59"/>
<path d="M91.9468 25.4033H92.4629V27.4137H95.0818V25.4033H95.5978V29.9402H95.0818V27.899H92.4629V29.9402H91.9468V25.4033Z" fill="#3D4A59"/>
<path d="M98.5095 25.4033H101.791V25.8655H99.0179V27.406H101.498V27.8759H99.0179V29.4626H101.822V29.9325H98.5095V25.4033Z" fill="#3D4A59"/>
<path d="M108.123 25.4035H109.663C109.972 25.3823 110.282 25.425 110.574 25.5289C110.866 25.6328 111.133 25.7957 111.359 26.0074C111.586 26.2192 111.766 26.4752 111.889 26.7595C112.012 27.0439 112.075 27.3505 112.074 27.6603C112.074 27.9724 112.011 28.2813 111.889 28.5684C111.767 28.8555 111.587 29.1148 111.362 29.3308C111.137 29.5467 110.87 29.7148 110.578 29.8248C110.286 29.9349 109.975 29.9847 109.663 29.9711H108.123V25.4035ZM109.663 29.4705C109.907 29.4876 110.151 29.4538 110.382 29.3714C110.612 29.289 110.822 29.1597 110.999 28.9917C111.177 28.8237 111.317 28.6206 111.412 28.3954C111.507 28.1702 111.554 27.9278 111.55 27.6835C111.556 27.4375 111.511 27.1931 111.417 26.9657C111.323 26.7383 111.183 26.5329 111.005 26.3626C110.828 26.1923 110.617 26.0609 110.386 25.9766C110.155 25.8924 109.909 25.8572 109.663 25.8733H108.6V29.4705H109.663Z" fill="#3D4A59"/>
<path d="M116.179 25.365H116.657L118.729 29.9404H118.174L117.643 28.7696H115.17L114.631 29.9712H114.107L116.179 25.365ZM117.443 28.2766L116.411 25.9658L115.371 28.2766H117.443Z" fill="#3D4A59"/>
<path d="M121.879 25.8732H120.339V25.4033H123.905V25.8732H122.365V29.9402H121.841L121.879 25.8732Z" fill="#3D4A59"/>
<path d="M127.626 25.365H128.103L130.168 29.9404H129.621L129.089 28.7696H126.609L126.07 29.9712H125.546L127.626 25.365ZM128.92 28.2766L127.888 25.9658L126.848 28.2766H128.92Z" fill="#3D4A59"/>
<path d="M131.669 25.4033H132.239L133.857 29.3086L135.475 25.4033H136.029L134.08 29.971H133.626L131.669 25.4033Z" fill="#3D4A59"/>
<path d="M138.571 25.4033H141.852V25.8655H139.079V27.406H141.56V27.8759H139.079V29.4626H141.883V29.9325H138.571V25.4033Z" fill="#3D4A59"/>
<path d="M144.556 25.4034H146.505C146.739 25.3892 146.974 25.4213 147.196 25.498C147.418 25.5746 147.623 25.6943 147.799 25.8502C147.914 25.9698 148.003 26.1112 148.063 26.2659C148.122 26.4206 148.151 26.5857 148.146 26.7514C148.146 27.0873 148.02 27.411 147.791 27.657C147.562 27.903 147.248 28.0528 146.913 28.0763L148.307 29.9326H147.683L146.366 28.1687H145.095V29.9326H144.587L144.556 25.4034ZM146.459 27.7142C147.144 27.7142 147.63 27.3676 147.63 26.7822C147.63 26.2276 147.198 25.8887 146.466 25.8887H145.095V27.7296L146.459 27.7142Z" fill="#3D4A59"/>
<path d="M150.587 29.2779L150.911 28.9005C151.111 29.1061 151.351 29.2693 151.615 29.3805C151.88 29.4916 152.164 29.5484 152.451 29.5475C153.06 29.5475 153.46 29.224 153.46 28.7772C153.46 28.3536 153.229 28.1148 152.282 27.9145C151.335 27.7143 150.741 27.3522 150.741 26.6051C150.753 26.4242 150.801 26.2476 150.883 26.086C150.965 25.9243 151.079 25.7811 151.218 25.665C151.357 25.5489 151.518 25.4625 151.692 25.4109C151.866 25.3593 152.048 25.3437 152.228 25.365C152.813 25.3498 153.383 25.5499 153.83 25.9272L153.53 26.3201C153.168 26.0025 152.702 25.8273 152.22 25.8271C151.627 25.8271 151.25 26.1506 151.25 26.5974C151.25 27.021 151.489 27.2675 152.482 27.4755C153.476 27.6835 153.961 28.0686 153.961 28.7618C153.961 29.5321 153.314 30.0405 152.421 30.0405C151.734 30.0311 151.078 29.7581 150.587 29.2779Z" fill="#3D4A59"/>
<path d="M156.649 25.4033H159.931V25.8655H157.165V27.406H159.638V27.8759H157.165V29.4626H159.962V29.9325H156.649V25.4033Z" fill="#3D4A59"/>
</g>
<defs>
<clipPath id="clip0_650_161">
<rect width="160" height="31.5502" fill="white"/>
</clipPath>
</defs>
</svg>
