<svg width="24" height="24" viewBox="0 0 24 24" fill="none" xmlns="http://www.w3.org/2000/svg">
<g clip-path="url(#clip0_1054_707)">
<path d="M12 5.17676C12.5933 5.17676 13.1734 5.35271 13.6667 5.68235C14.1601 6.01199 14.5446 6.48053 14.7716 7.02871C14.9987 7.57689 15.0581 8.18009 14.9424 8.76203C14.8266 9.34397 14.5409 9.87852 14.1213 10.2981C13.7018 10.7176 13.1672 11.0034 12.5853 11.1191C12.0033 11.2349 11.4001 11.1755 10.852 10.9484C10.3038 10.7213 9.83524 10.3368 9.50559 9.84347C9.17595 9.35012 9 8.7701 9 8.17676C9 7.38111 9.31607 6.61805 9.87868 6.05544C10.4413 5.49283 11.2044 5.17676 12 5.17676ZM12 3.17676C11.0111 3.17676 10.0444 3.47 9.22215 4.01941C8.39991 4.56882 7.75904 5.34971 7.3806 6.26334C7.00217 7.17697 6.90315 8.18231 7.09608 9.15221C7.289 10.1221 7.76521 11.013 8.46447 11.7123C9.16373 12.4116 10.0546 12.8878 11.0246 13.0807C11.9945 13.2736 12.9998 13.1746 13.9134 12.7962C14.8271 12.4177 15.6079 11.7769 16.1574 10.9546C16.7068 10.1324 17 9.16566 17 8.17676C17 6.85068 16.4732 5.57891 15.5355 4.64122C14.5979 3.70354 13.3261 3.17676 12 3.17676Z" fill="#9EA7AD"/>
<path d="M16 16.1768C16.7956 16.1768 17.5587 16.4928 18.1213 17.0554C18.6839 17.618 19 18.3811 19 19.1768H5C5 18.3811 5.31607 17.618 5.87868 17.0554C6.44129 16.4928 7.20435 16.1768 8 16.1768H16ZM16 14.1768H8C6.67392 14.1768 5.40215 14.7035 4.46447 15.6412C3.52678 16.5789 3 17.8507 3 19.1768V21.1768H21V19.1768C21 17.8507 20.4732 16.5789 19.5355 15.6412C18.5979 14.7035 17.3261 14.1768 16 14.1768Z" fill="#9EA7AD"/>
</g>
<defs>
<clipPath id="clip0_1054_707">
<rect width="24" height="24" fill="white"/>
</clipPath>
</defs>
</svg>
