<svg width="170" height="232" viewBox="0 0 170 232" fill="none" xmlns="http://www.w3.org/2000/svg">
<path d="M169.625 129.674L166.722 128.116C165.587 126.966 164.685 125.608 164.066 124.115C163.606 122.77 160.278 123.443 159.358 122.983C157.98 122.57 156.571 122.274 155.145 122.097L150.294 119.407L145.196 116.079C145.196 116.079 142.966 112.538 142.293 112.29L138.929 110.945L137.159 113.176H131.813V109.387L133.123 108.042L133.583 104.041L134.256 101.811L134.929 99.3326L133.583 98.0226H129.583L127.565 96.217L130.22 94.6592L131.813 92.6412L133.123 90.1983L130.468 89.0654L131.813 85.7374V80.3914L134.929 78.3734C135.329 77.9494 135.568 77.3978 135.602 76.8156C135.602 75.9305 138.717 75.9305 140.275 75.2578C141.72 74.4535 143.063 73.4789 144.276 72.3547C144.416 71.1787 144.416 69.9902 144.276 68.8142C144.167 68.0748 144.167 67.3233 144.276 66.5838C144.276 65.4863 143.39 65.4863 143.39 65.4863V60.5297L138.717 59.1843C137.907 58.6367 137.278 57.8602 136.911 56.9539C136.026 55.1837 136.911 54.511 136.911 54.511L134.469 52.493L127.99 50.0501L125.122 46.5097L124.449 42.9692L124.874 40.7388V38.0835C125.085 37.5179 125.486 37.0426 126.007 36.7381C126.68 36.2779 126.007 36.0655 126.007 36.0655C126.007 36.0655 125.334 34.9679 125.122 34.5077C124.99 34.0689 124.99 33.6011 125.122 33.1623L124.662 31.817L122.431 32.9499L121.759 33.835L120.201 33.3747L118.643 32.7375C118.643 32.7375 115.952 33.1623 115.103 33.1623C114.253 33.1623 114.43 32.9499 114.43 32.9499C114.43 32.9499 112.199 33.6226 111.987 33.6226C111.775 33.6226 111.102 34.5077 111.102 34.5077H109.296C108.88 34.1025 108.512 33.6512 108.199 33.1623C107.866 32.6781 107.486 32.2275 107.066 31.817C106.853 31.6045 105.083 30.9319 104.623 30.2592C104.266 29.4875 104.038 28.6621 103.95 27.8163L104.623 25.7983C104.835 25.1256 105.508 22.2579 105.508 22.2579L104.41 20.4876L102.853 21.833L99.4893 24.2759C98.2561 24.6428 96.9852 24.8685 95.7011 24.9486C95.2408 24.7361 95.0284 24.2759 94.816 24.0635C94.2652 23.3099 93.813 22.4889 93.4706 21.6206C93.2192 20.9741 93.0641 20.2941 93.0104 19.6025C92.703 18.6137 92.3364 17.6443 91.9128 16.6994C91.7004 15.8143 90.3551 14.469 90.3551 14.2565C90.3551 14.0441 89.0097 11.5658 88.7973 10.7161C88.5849 9.86642 86.5668 9.83102 86.5668 9.83102C85.6484 9.50658 84.75 9.12828 83.8761 8.69809C83.6168 7.75015 83.4625 6.77659 83.4159 5.79494C83.4159 5.58251 83.8761 3.56448 83.8761 3.35206C83.198 2.50229 82.4648 1.69806 81.6811 0.94458L80.3003 1.58186L77.645 3.13963L75.627 4.44959C74.9543 4.90985 75.6269 4.44958 74.494 4.90984C73.5431 5.4883 72.7135 6.24579 72.0512 7.1403C71.7946 8.08882 71.6403 9.06207 71.5909 10.0434C71.5909 10.2559 70.2809 10.9285 69.6083 11.1764C68.9608 11.4187 68.2805 11.562 67.5902 11.6012C66.9175 11.6012 66.9175 11.8136 66.9175 11.8136L66.2449 12.7342L66.0324 14.0441L65.5722 15.8497V16.9472L64.9349 18.9653C64.9349 18.9653 63.5896 21.1957 63.3417 21.4081C62.8465 21.8286 62.3263 22.2187 61.784 22.5765L61.1113 23.4616L60.2262 24.5591L57.323 25.9045C57.323 25.9045 53.3224 28.5952 53.11 28.5952C52.3705 29.2754 51.695 30.022 51.0919 30.8257L50.6317 35.0741L49.7466 35.9592L49.0739 36.1717C48.6256 36.3467 48.2423 36.6558 47.9764 37.0568L47.3037 37.7294L44.4005 39.5351L43.2676 40.4202L42.3825 43.3233L40.8247 43.996C39.267 44.6686 39.7272 44.8811 39.0545 45.0935C38.3662 45.3516 37.6926 45.647 37.0365 45.9786C36.4127 46.3809 35.8209 46.8307 35.2663 47.324C34.8267 47.8005 34.2973 48.1856 33.7085 48.4569C33.0542 48.833 32.5061 49.369 32.1153 50.0147L31.2302 50.6873C30.2528 50.6032 29.2826 50.4494 28.3271 50.2271C27.2839 50.1846 26.2392 50.2558 25.2115 50.4395C24.6672 50.6881 24.1459 50.9843 23.6538 51.3246L23.1935 54.4756L24.3264 55.3607C24.3264 55.3607 25.424 57.5911 25.424 57.8036C25.424 58.016 24.9991 60.034 24.9991 60.034L23.8662 64.9552L24.114 66.3006C24.2869 66.7264 24.4289 67.1642 24.5389 67.6105C24.4912 67.9921 24.4202 68.3705 24.3264 68.7434L23.6538 69.841C23.2222 70.1718 22.7731 70.4791 22.3084 70.7615L20.963 71.3988L20.0779 74.5497L19.6531 76.1075L18.5201 77.8777L16.9624 78.1255L16.2897 78.338C16.1659 78.4605 16.003 78.5357 15.8294 78.5504C15.617 78.5504 14.9443 79.4355 14.9443 79.6833C14.9443 79.9311 14.7319 80.5684 14.7319 80.7808C14.7319 80.9933 13.1741 81.6659 13.1741 81.9138C13.1741 82.1616 12.0412 82.1262 11.8288 82.1262C11.1495 82.1488 10.4704 82.0774 9.81074 81.9138C9.19875 81.6511 8.60707 81.3434 8.04053 80.9933C7.5349 80.7387 7.01473 80.5141 6.48274 80.3206C6.01314 80.156 5.56221 79.9424 5.13739 79.6833C4.46472 79.223 4.03988 79.4355 4.03988 79.4355L2.23426 79.6833L1.8094 80.9933L2.6945 85.2417L1.34916 88.3573V93.3847L2.44668 96.9251L1.59698 101.138L2.05723 104.926C2.05723 104.926 0.711891 107.582 0.499466 108.042C0.287042 108.502 1.59698 109.6 1.59698 109.6C2.2397 109.863 2.92157 110.019 3.61502 110.06C4.50012 110.06 4.71255 110.733 5.17281 110.945L5.81008 111.299C5.74804 110.663 5.74804 110.023 5.81008 109.387L7.36784 108.502L9.38588 107.582L12.2536 106.272V104.679C12.8303 104.335 13.4342 104.039 14.0592 103.794C14.2716 103.794 15.8294 102.236 16.5021 102.696C17.1748 103.156 18.5202 104.466 19.1928 104.926C19.8655 105.387 21.6357 106.697 21.6357 107.157C21.9873 107.955 22.4394 108.704 22.9811 109.387L25.424 110.733L28.5395 113.176C28.5395 113.176 31.0178 113.6 31.2302 113.176C31.4427 112.751 32.788 113.388 32.788 113.388L33.0004 112.715C33.1113 112.4 33.2663 112.102 33.4607 111.83C33.9594 111.5 34.4798 111.205 35.0185 110.945L35.9036 111.158L36.5762 112.043L38.3818 112.963L41.0372 113.388H42.3825L43.48 113.6L44.1527 112.963H45.2856L46.1707 113.388C46.5966 113.06 47.0463 112.764 47.5161 112.503C47.941 112.29 47.9409 111.618 47.9409 111.158V108.502C47.9409 107.582 48.6136 107.157 48.6136 106.697C48.6464 106.321 48.7297 105.952 48.8615 105.599C49.1112 105.096 49.3242 104.575 49.4987 104.041C49.4987 103.794 50.1714 103.794 50.1714 103.794L51.3043 102.696C52.2324 102.623 53.1417 102.395 53.9951 102.023C54.4199 101.563 54.4199 102.696 54.4199 102.696C54.4199 102.696 55.305 104.041 55.5528 104.041C55.8007 104.041 56.2255 104.926 56.4379 105.139C56.626 105.409 56.7694 105.708 56.8628 106.024C57.5403 106.011 58.2154 105.94 58.8808 105.812C60.0138 105.599 58.8808 105.351 58.8808 104.926C58.9589 104.456 59.1144 104.001 59.3411 103.581C59.6754 103.039 59.9037 102.438 60.0138 101.811C60.1084 101.245 60.3393 100.71 60.6864 100.253C60.6864 100.253 61.784 99.1202 61.784 98.6599C61.784 98.1997 62.4566 97.35 62.4566 96.8897C62.4566 96.4294 64.0144 96.217 64.0144 96.217L65.3244 96.9251C65.8657 97.2714 66.3859 97.6497 66.8822 98.058C67.4695 98.2215 68.0785 98.2932 68.6877 98.2705L71.1306 97.8102L72.2282 99.1556L72.9008 100.288L72.6884 103.404L72.2282 105.635C73.0969 105.793 73.9341 106.092 74.7065 106.52C74.8211 106.638 74.8852 106.797 74.8852 106.962C74.8852 107.127 74.8211 107.286 74.7065 107.405L73.8214 109.175L74.9189 110.768L75.3791 112.538L74.7065 114.556C74.2138 115.112 73.7641 115.703 73.3611 116.327C73.2541 116.912 73.2541 117.512 73.3611 118.097V120.115C73.8988 119.853 74.4191 119.558 74.9189 119.23C75.0779 119.097 75.2784 119.025 75.4854 119.025C75.6923 119.025 75.8928 119.097 76.0518 119.23C77.1152 119.142 78.1626 118.916 79.1674 118.557C80.0525 118.097 80.0525 117.884 80.0525 117.884L82.0705 117.46L82.2829 119.017V119.69L82.9556 121.46V121.92L82.4954 122.345L82.0705 122.806L80.9376 123.23C80.9376 123.23 80.2649 124.151 80.0525 124.151C79.4878 124.557 79.0269 125.091 78.7071 125.709C78.6021 126.088 78.4598 126.455 78.2823 126.806L76.9369 128.364L76.4767 129.037L77.822 129.922L78.7071 131.515L78.2823 133.958L76.6891 134.383C76.2886 134.738 75.8492 135.047 75.3791 135.303C75.1313 135.303 74.7065 136.188 74.7065 136.188L74.0338 136.401L73.1487 136.861L71.3431 136.613L70.6704 136.861L69.5728 138.419V138.844C68.8806 139.185 68.207 139.563 67.5548 139.977C66.6893 140.221 65.7981 140.364 64.8995 140.401C64.5179 140.354 64.1395 140.283 63.7666 140.189L63.3063 139.516L62.8815 138.206V136.188C62.8158 135.781 62.6585 135.393 62.4212 135.055L61.5361 136.188L60.1908 136.401C59.6137 136.21 59.0215 136.068 58.4206 135.976C58.3619 135.971 58.3028 135.978 58.2471 135.997C58.1914 136.017 58.1403 136.047 58.097 136.087C58.0537 136.127 58.0192 136.176 57.9957 136.229C57.9722 136.283 57.9601 136.342 57.9603 136.401C57.021 136.971 56.052 137.491 55.0572 137.958C54.8447 137.958 52.8267 138.844 52.6143 138.844C51.9245 138.801 51.2446 138.658 50.5962 138.419C50.0285 138.081 49.4368 137.785 48.826 137.534C47.9905 137.85 47.1747 138.217 46.3832 138.631C46.1354 138.844 44.5776 138.206 44.5776 137.958C44.5776 137.711 44.1527 136.188 44.1527 136.188C44.1527 136.188 43.48 134.17 43.48 133.958C43.48 133.745 42.3471 133.073 42.3471 133.073L41.9223 131.055L40.3645 129.922L36.8241 131.055L35.2663 130.594L34.1334 128.824L34.5936 127.266L35.939 126.133V124.54L35.2663 122.097V120.752L33.9209 120.327L32.3632 119.867L31.2302 119.194H29.9203L28.5749 120.327L27.9022 122.31L27.4774 124.115H25.2469V127.656C25.2469 128.116 24.9991 129.001 25.4593 129.214C25.9196 129.426 26.8047 130.807 27.265 131.019C27.6843 131.327 28.0544 131.697 28.3625 132.117L28.5749 132.789L28.8227 134.135V134.595L27.9022 135.268C27.7618 136.003 27.6907 136.75 27.6898 137.498L27.265 138.383L26.132 139.729L24.7867 141.039L24.5742 143.057L22.7687 143.517L22.3438 145.783L22.5562 146.42L21.6711 147.305L18.9804 149.075L17.2102 150.421L17.4226 151.518L17.8829 152.864L19.4407 153.997L21.8835 155.342L23.6891 156.9L25.9196 158.21L27.6898 158.882L30.3805 159.555L33.0358 159.803C33.2836 159.803 33.7085 160.44 33.7085 160.44C33.7085 160.44 34.3812 161.573 34.5936 162.033C34.8384 162.386 35.063 162.753 35.2663 163.131C35.3282 163.282 35.3409 163.449 35.3028 163.608C35.2647 163.766 35.1776 163.909 35.0539 164.016H33.9563L31.9383 163.803H30.593C30.3805 163.803 30.1327 164.016 29.9203 164.016C29.7078 164.016 29.4954 164.901 29.2476 165.149C28.7906 165.844 28.4219 166.593 28.1501 167.379C28.056 167.846 27.9013 168.298 27.6898 168.725C27.5309 169.182 27.218 169.57 26.8047 169.822C26.3445 170.035 26.132 169.149 25.9196 168.477C25.805 168.257 25.6446 168.064 25.4491 167.911C25.2537 167.759 25.0278 167.65 24.7867 167.592L23.4413 166.494C23.0134 166.371 22.5748 166.288 22.1314 166.246H20.3258C19.6465 166.211 18.9773 166.067 18.3431 165.822C17.8775 165.633 17.4276 165.409 16.9978 165.149C16.6469 164.972 16.2573 164.887 15.8648 164.901C15.6524 164.901 14.5195 165.149 14.5195 165.149C14.0936 165.322 13.6558 165.464 13.2095 165.574C12.9617 165.574 12.5369 166.034 11.8642 166.494C11.1915 166.954 11.6163 167.379 11.4039 167.592C11.2633 167.788 11.1889 168.023 11.1915 168.264L12.0766 169.61C12.0766 169.61 12.0766 169.362 12.5368 170.955C12.9971 172.548 12.7493 172.265 12.7493 172.265V174.071C12.6526 174.367 12.4672 174.627 12.2182 174.814C12.0058 175.027 12.2182 175.027 12.0058 175.027C11.7934 175.027 11.1207 175.487 10.9083 175.487C10.6958 175.487 9.98777 177.045 9.98777 177.045L9.35049 179.063C9.22621 179.269 9.14212 179.497 9.10266 179.735C9.10266 179.948 9.10265 179.948 9.56291 180.373C9.70645 180.509 9.88427 180.604 10.0775 180.648C10.2707 180.691 10.4721 180.682 10.6604 180.62C11.0341 180.711 11.4123 180.782 11.7934 180.833C12.2182 180.833 12.4661 181.293 12.8909 181.506C13.3158 181.718 12.466 182.851 12.466 182.851L11.7934 183.736C11.6585 184.1 11.5751 184.482 11.5455 184.869C11.5455 185.294 12.0058 185.754 12.0058 185.966C12.0058 186.179 12.466 186.427 12.6785 186.639C12.8909 186.852 13.3511 187.064 13.3511 187.312C13.3511 187.56 14.2363 187.312 14.9089 187.312C15.5816 187.312 15.3692 187.312 15.5816 187.064C15.794 186.816 16.927 186.427 17.1394 185.966C17.3518 185.506 18.2723 185.506 18.6972 185.081C18.9579 184.815 19.256 184.589 19.5823 184.409L20.5028 183.736C20.7152 183.524 20.5028 182.851 20.5028 182.391C20.5028 181.93 21.6003 181.966 21.8127 181.966C22.0251 181.966 22.0606 181.293 22.0606 181.293C22.318 180.943 22.532 180.562 22.6978 180.16C22.6978 179.948 24.5034 180.16 24.5034 180.16L25.3885 179.735L27.619 178.602L28.0793 181.045L28.5041 182.851L29.4246 184.196V185.506C29.0522 185.611 28.6739 185.694 28.2917 185.754L26.5215 185.966L23.6183 186.427C23.3705 186.427 23.1581 187.737 23.1581 187.737C23.1581 187.737 22.4854 191.773 22.4854 192.198V194.428L23.3705 196.234C23.5781 196.4 23.8037 196.543 24.0432 196.658C24.5034 196.906 24.5034 197.579 24.5034 197.791C24.5034 198.004 23.3705 198.464 23.1581 198.464C22.7021 198.474 22.2496 198.545 21.8127 198.676L20.9276 198.889C20.9276 198.889 20.2549 199.562 20.2549 199.809C20.2549 200.057 19.8301 200.234 19.8301 200.234C19.8301 200.234 20.7152 201.367 20.9276 201.58C21.14 201.792 22.273 202.252 22.273 202.465C22.273 202.677 23.8308 203.137 23.8308 203.137L26.7339 203.81L27.4066 204.483C28.1291 204.934 28.8051 205.456 29.4246 206.041V206.678H25.8842C25.2115 206.678 24.3264 206.89 24.114 206.89C23.9016 206.89 23.8662 208.448 23.8662 208.448L25.8842 209.333C26.2495 209.515 26.6283 209.669 27.0171 209.793L28.7873 210.218L29.8849 210.466L30.8054 212.236V214.006L31.0178 215.812C31.0178 215.812 32.3631 216.91 32.5756 217.157L34.3458 218.715L36.3638 220.733L37.9216 222.043L37.7092 224.734L36.8241 226.964L35.939 228.522L38.5943 226.752L42.1347 224.946L47.2683 223.601L50.136 222.291L53.0391 222.964L55.0572 221.618L59.5181 222.043L62.6336 221.158L64.4393 220.273C64.6968 219.653 64.9924 219.05 65.3244 218.467C66.273 218.176 67.244 217.963 68.2275 217.83L70.6704 218.043C70.6704 218.043 72.6884 219.388 72.9008 219.6C73.1133 219.813 74.2462 219.813 74.6711 220.061L77.3618 221.371L78.4947 224.061L79.5922 225.194C79.5922 225.194 81.15 226.292 81.15 226.504C81.15 226.717 82.4954 227.389 82.9556 227.637C83.4159 227.885 83.5929 226.964 83.5929 226.752C83.5929 226.54 85.8233 226.964 85.8233 226.964C86.112 227.687 86.3371 228.433 86.496 229.195C86.496 229.655 87.629 230.54 87.629 230.54L89.8594 231.638C89.8594 231.638 90.0719 229.868 90.0719 229.407V227.92L90.5321 225.477L93.6477 224.38H97.4359C99.4539 224.38 101.224 221.689 101.224 221.689C101.224 221.689 103.03 220.592 103.03 220.131C103.03 219.671 104.8 217.441 104.8 216.095C104.8 214.75 105.473 216.095 105.473 216.095L107.03 214.998L111.739 213.44C116.412 211.882 112.164 211.882 112.164 211.882L115.952 208.767L117.758 208.979C117.758 208.979 119.74 209.652 119.528 209.439C119.316 209.227 122.644 208.519 122.644 208.519L125.547 210.537H126.432L128.662 208.306C128.662 208.306 130.468 207.421 130.68 206.749C130.893 206.076 132.451 205.616 132.451 205.191C132.451 204.766 133.583 203.173 133.583 202.748C133.583 202.323 136.699 201.155 137.124 201.155C137.549 201.155 137.336 199.385 137.124 198.924C136.999 197.665 136.999 196.396 137.124 195.136C137.124 195.136 139.567 193.366 140.027 193.578C140.487 193.791 140.7 196.481 140.7 196.481H144.7C144.7 196.481 145.161 194.251 145.161 193.826C145.439 192.964 145.807 192.133 146.258 191.348L150.507 188.693L152.064 187.099L152.95 181.081L152.737 177.54L154.968 175.522L155.64 174.389L154.968 172.832C154.968 172.832 155.392 171.946 156.065 170.176C156.738 168.406 156.065 167.946 156.065 167.946L155.64 163.025L155.853 160.121L158.543 157.466L160.101 154.775C160.774 153.642 162.544 148.757 162.544 148.757L163.004 146.987C162.379 145.501 162.148 143.879 162.332 142.278C162.756 140.26 160.526 140.26 159.853 140.26C159.181 140.26 157.623 137.392 157.623 137.392C157.623 137.392 160.986 135.834 161.659 135.374C162.332 134.914 162.084 132.683 162.084 132.683H164.774L169.625 129.674Z" fill="#5138E5" fill-opacity="0.8" stroke="white" stroke-width="0.5" stroke-linecap="round" stroke-linejoin="round"/>
</svg>
