<svg width="285" height="270" viewBox="0 0 285 270" fill="none" xmlns="http://www.w3.org/2000/svg">
<path d="M1.10594 43.3345L2.02646 41.9184L8.04514 40.1482C8.88259 40.1299 9.71464 40.2867 10.488 40.6084C11.1607 41.0333 12.2936 40.8208 12.2936 41.4935C12.2936 42.1662 12.2937 42.3786 12.7185 42.5911C13.1434 42.8035 16.2589 41.2811 16.2589 41.2811L18.7018 40.8209L19.3744 40.1482L20.0471 37.7053L21.1801 37.245C21.1801 37.245 22.5255 37.245 22.7379 37.4575C22.9503 37.6699 23.6229 37.245 24.0832 37.7053C24.6253 38.0878 25.2221 38.3862 25.8534 38.5904C26.3157 38.6998 26.7663 38.854 27.1988 39.0506C27.6236 39.2631 28.7565 39.2631 29.2168 40.1482C29.4721 40.8787 29.6849 41.6235 29.8541 42.3786C30.4637 43.037 31.1399 43.6302 31.8721 44.1488H33.2175C33.2175 44.1488 34.9877 43.0513 34.9877 42.8389V40.5022L35.2355 39.5817C36.3018 39.1438 37.4205 38.8463 38.5635 38.6966C39.6964 38.6966 41.0064 38.4842 41.2542 38.4842C42.1045 38.5473 42.9343 38.7758 43.6971 39.1569C44.7871 39.5203 45.8986 39.8159 47.0251 40.042C47.4853 40.2544 49.5033 40.7146 49.9282 40.9271C50.2935 41.1093 50.6723 41.2632 51.0612 41.3873C51.0612 41.3873 53.0792 42.9451 53.2916 43.1575C54.5454 43.3701 55.826 43.3701 57.0798 43.1575C57.2923 42.9451 63.7712 40.7146 63.9836 40.7146L67.524 40.2544L70.4272 40.042C70.4272 40.042 73.7906 38.9444 73.9676 38.9444C74.1446 38.9444 78.8533 38.0239 78.8533 38.0239L81.7565 37.5991C81.7565 37.5991 83.987 38.2718 84.2348 38.2718C84.7031 38.517 85.1425 38.8138 85.5447 39.1569L88.2355 40.2544L91.7759 41.1749C92.4098 41.4648 93.0045 41.8336 93.5461 42.2724C94.0063 42.7327 95.1038 44.0426 95.3517 44.0426C95.5995 44.0426 97.1219 45.8482 97.3343 45.8482C97.5467 45.8482 100.025 46.5209 100.025 46.5209L102.255 45.8482L104.274 44.2905L104.698 43.3345C104.698 43.3345 106.256 42.9097 106.469 43.1221C106.972 43.4445 107.492 43.7399 108.026 44.0072V44.4675L111.567 46.6979L120.064 46.0252L123.392 47.1228L126.755 48.0433L128.738 47.3706C130.006 47.4116 131.274 47.3286 132.526 47.1228C133.749 46.5128 135.016 45.9922 136.314 45.565L138.793 44.0072L141.023 42.237L142.793 41.1041L145.909 40.4314C146.84 40.1576 147.742 39.7899 148.599 39.3339C148.599 39.1214 149.945 36.6432 149.945 36.6432C150.208 36.1414 150.432 35.6207 150.617 35.0854C150.617 34.873 151.715 32.4301 151.715 32.4301L152.6 31.5096L155.963 30.6245L157.982 28.8543L161.097 23.2604L162.655 18.1268L162.867 12.7808V7.04533L163.328 3.89436L165.346 2.79683L168.426 0.849609L171.329 6.90371L173.099 9.55902L173.772 11.3292V12.6746L174.444 14.2324L175.33 15.7901L176.215 17.3833V20.7113L177.135 22.2691V24.0747L176.675 24.9598L176.462 26.3052L176.215 27.4027L177.135 27.8629L178.02 27.4027H179.118L180.038 27.8629L180.463 28.7481L180.251 29.6332L180.038 30.5183L179.79 31.1909L179.366 31.6512V32.076L179.79 33.209L182.8 38.6612L185.278 41.5643V44.6799L186.163 46.0252L187.933 48.716V52.7166L189.739 55.6198L190.624 60.7534L193.067 64.754L194.2 67.6572L195.297 70.7727L195.758 73.6759V79.0927L197.315 83.0934L199.971 86.2089L204.68 94.2457L208.007 101.326L211.371 106L212.681 109.328L217.991 118.568L220.47 121.684L222.7 125.472V129.012L223.798 131.668L227.586 135.208C228.651 137.378 230.089 139.343 231.834 141.014C234.525 143.457 241.641 151.954 241.641 151.954L242.774 154.61L246.775 159.743L248.793 163.107V166.222L247.66 167.992L248.793 171.533L252.581 175.994L255.024 178.437H256.157L257.042 183.57L255.024 184.916L257.042 187.146V190.262L258.6 193.802L261.291 195.82L263.734 200.033L266.176 205.839L269.717 210.761L271.735 212.531L272.62 216.567L273.965 221.24V223.01L277.081 224.816V226.799L279.736 230.339L281.082 233.879L283.1 236.11L281.967 239.438V245.138L283.1 250.059L284.657 251.581C282.975 252.16 281.331 252.846 279.736 253.635C279.736 253.847 275.523 256.75 275.523 256.75L272.832 257.175C272.332 257.648 271.882 258.17 271.487 258.733C271.487 258.981 270.602 259.654 270.39 260.078C270.177 260.503 268.159 260.291 268.159 260.539C268.159 260.787 267.274 261.636 267.026 262.097C266.761 262.65 266.617 263.253 266.601 263.867C266.707 264.606 266.707 265.357 266.601 266.097C266.353 266.77 266.601 266.557 266.353 267.655C266.316 267.96 266.193 268.248 265.999 268.486C265.805 268.724 265.547 268.902 265.256 269L261.716 268.115C261.716 268.115 261.291 267.655 261.043 268.115C260.795 268.575 259.485 268.575 259.485 268.575L259.697 267.655C259.697 267.655 257.715 266.097 257.715 265.425C257.715 264.752 258.812 263.654 257.255 262.769C256.369 262.207 255.383 261.823 254.352 261.636C254.139 261.636 253.006 262.097 252.581 261.424C251.636 260.617 250.588 259.939 249.466 259.406C249.466 259.406 246.987 258.733 246.987 259.406C246.987 260.078 245.217 260.539 245.005 261.211C244.792 261.884 242.774 262.557 242.774 262.557L242.314 263.194L240.296 262.097L237.428 261.211H236.083C236.083 261.211 234.738 259.866 234.277 259.866C233.742 259.773 233.219 259.618 232.72 259.406C232.693 259.376 232.66 259.352 232.624 259.335C232.587 259.318 232.547 259.31 232.507 259.31C232.467 259.31 232.427 259.318 232.391 259.335C232.354 259.352 232.321 259.376 232.295 259.406C231.593 259.516 230.875 259.365 230.277 258.981C230.277 258.733 229.144 258.308 229.144 258.308L227.834 257.423C227.834 257.423 226.241 258.06 226.241 258.308C226.241 258.556 224.683 259.406 224.683 259.406L222.913 261.424C222.913 261.424 222.028 262.557 222.028 262.982C222.062 263.247 222.017 263.517 221.897 263.757C221.777 263.997 221.588 264.195 221.355 264.327C220.682 264.787 220.01 265.212 219.549 265C219.089 264.787 215.761 263.654 215.761 263.654H214.876C214.278 263.414 213.745 263.039 213.318 262.557C213.318 262.309 212.645 260.291 212.645 260.291L210.415 259.406L208.185 258.06C208.185 258.06 207.972 257.175 207.76 257.175C207.2 257.417 206.667 257.713 206.167 258.06L205.742 260.291C205.742 260.291 205.069 260.751 205.069 261.211C205.069 261.672 204.396 261.884 203.936 262.309C203.476 262.734 203.511 261.884 203.511 262.769V264.787L201.068 264.327L197.528 263.867L193.279 261.424C193.279 261.424 192.394 260.964 190.837 260.291C189.523 259.816 188.173 259.449 186.8 259.193L185.491 257.636C185.491 257.636 183.897 256.503 183.26 256.75C181.994 256.961 180.718 257.103 179.436 257.175L177.666 255.405C177.666 255.405 175.223 254.52 174.976 254.52H173.878C173.155 253.662 172.481 252.764 171.86 251.829C171.322 251.046 170.731 250.3 170.09 249.599L169.629 249.174H167.187C165.824 249.424 164.485 249.791 163.186 250.272L160.495 250.732L158.937 249.174L156.919 246.696L155.362 244.465L154.901 242.908L152.246 242.235C151.075 242.414 149.891 242.497 148.706 242.483C148.918 242.235 146.935 242.235 146.935 242.235L144.917 244.04C144.917 244.04 143.36 244.926 142.899 244.253C142.303 243.52 141.639 242.844 140.917 242.235L139.784 241.137C139.784 241.137 139.996 239.332 140.457 239.332C141.41 239.248 142.331 238.945 143.147 238.447C143.629 237.804 144.067 237.13 144.457 236.429L146.263 235.119L146.688 233.773C146.688 233.773 148.493 233.101 148.493 232.888C148.176 232.327 147.796 231.805 147.36 231.33C147.36 231.33 145.378 230.41 145.13 230.658C144.043 231.088 142.931 231.454 141.802 231.755L138.686 230.658L137.341 229.737L135.535 228.852L134.225 226.834C134.225 226.834 133.305 225.737 132.88 225.949C132.455 226.161 130.65 226.197 130.189 226.834C129.729 227.471 128.171 227.507 128.171 228.179C128.183 228.439 128.13 228.697 128.019 228.931C127.908 229.166 127.742 229.369 127.534 229.525C127.185 229.854 126.805 230.151 126.401 230.41C125.613 230.053 124.866 229.614 124.171 229.1C124.171 228.852 122.613 228.427 122.613 228.427L121.94 227.082C121.94 227.082 120.843 227.294 120.843 227.755C120.843 228.215 120.595 229.312 120.595 229.525C120.595 229.737 119.922 230.197 119.71 230.658C118.97 231.286 118.148 231.81 117.267 232.215C116.336 232.397 115.432 232.694 114.576 233.101C113.668 233.564 112.685 233.864 111.673 233.986C111.322 233.808 110.954 233.666 110.575 233.561C110.328 233.561 108.77 232.888 108.77 232.64C108.77 232.392 109.23 230.197 109.23 230.197V229.312C109.23 229.312 109.903 228.64 109.903 228.179C109.903 227.719 107.672 225.949 107.672 225.949L107.212 223.718L105.442 223.046L100.981 222.621L97.1927 223.966C96.4686 224.737 95.7945 225.553 95.1746 226.409C95.1746 226.622 95.3871 227.755 95.3871 227.967C95.5789 229.036 95.8876 230.081 96.3076 231.083C96.4136 231.822 96.4136 232.573 96.3076 233.313C96.121 233.998 95.8964 234.671 95.6349 235.331L92.7317 235.791C92.0731 236.144 91.4657 236.585 90.9262 237.101L90.5367 238.057C90.0629 237.569 89.541 237.13 88.9789 236.747C88.7311 236.747 87.1733 236.287 87.1733 236.287C86.7618 236.293 86.3685 236.458 86.0758 236.747C86.0758 236.747 85.6155 237.42 85.4031 237.42H83.3851C83.3851 237.42 82.2876 236.499 82.0397 236.747C81.7919 236.995 79.5969 237.172 79.5969 237.42C79.5969 237.668 79.1366 238.305 79.1366 238.517C79.1366 238.73 76.9061 238.978 76.9061 238.978C76.9061 238.978 76.021 238.517 76.021 238.305C76.021 238.093 74.4633 238.057 74.4633 238.057L73.3657 235.189C72.9413 234.385 72.5631 233.558 72.2328 232.711C71.7752 231.923 71.2666 231.167 70.7104 230.445L71.5601 229.596L72.4452 223.577L72.2328 220.036L74.4633 218.018L75.1359 216.921L74.4633 215.363C74.8898 214.488 75.268 213.589 75.5962 212.672C76.2689 210.902 75.5962 210.442 75.5962 210.442L75.1359 205.556L75.3484 202.653L78.0391 199.962C78.0391 199.962 78.9242 198.405 79.5969 197.307C80.2695 196.209 82.0397 191.253 82.0397 191.253L82.5 189.483C81.8779 188.009 81.6463 186.399 81.8273 184.809C82.2875 182.791 80.0571 182.791 79.3844 182.791C78.7118 182.791 77.154 179.888 77.154 179.888C77.154 179.888 80.482 178.33 81.1546 177.906C81.8273 177.481 81.6149 175.215 81.6149 175.215H84.2702L88.9789 172.099L86.0758 170.542C84.9288 169.381 84.0153 168.011 83.3851 166.505C82.9248 165.16 79.5969 165.833 78.7118 165.408C77.3272 164.97 75.9049 164.662 74.4633 164.487L69.7899 161.832L64.6563 158.292C63.8455 156.916 62.8707 155.644 61.7532 154.503C61.0805 154.291 58.4252 153.158 58.4252 153.158L56.6196 155.389H51.2736V151.777L52.6189 150.467L53.0438 146.431L53.7165 144.201L54.3891 141.758L53.0438 140.413H49.0431L47.0251 138.642L49.7158 137.085L51.2736 135.067L52.6189 132.624L49.9282 131.491L51.2736 128.163V122.781L54.3891 120.799C54.7896 120.375 55.0278 119.823 55.0618 119.241C55.0618 118.32 58.1774 118.32 59.7351 117.648C61.1935 116.862 62.5491 115.899 63.7712 114.78C63.8917 113.603 63.8917 112.417 63.7712 111.24C63.5234 110.567 63.7712 110.142 63.7712 109.009C63.7913 108.875 63.7827 108.739 63.746 108.608C63.7093 108.478 63.6453 108.357 63.5583 108.253C63.4713 108.149 63.3632 108.065 63.2412 108.006C63.1192 107.947 62.9861 107.915 62.8507 107.912V102.955L58.1774 101.61C57.3847 101.052 56.7699 100.278 56.4072 99.3792C55.5221 97.5736 56.4072 96.9364 56.4072 96.9364L53.9289 94.9183L47.4853 92.4754L44.5822 88.935L43.9095 85.3946L44.3698 83.1642V80.4734C44.5687 79.9205 44.9577 79.4562 45.4673 79.1635C46.14 78.7032 45.4673 78.4908 45.4673 78.4908C45.4673 78.4908 44.7946 77.3579 44.5822 76.933C44.4683 76.4918 44.4683 76.0289 44.5822 75.5877L44.1219 74.2423L41.8915 75.3399L41.2188 76.2604L39.661 75.8001L38.1032 75.1274C36.9316 75.3403 35.75 75.4939 34.5628 75.5877C33.6777 75.5877 33.8901 75.3399 33.8901 75.3399C33.8901 75.3399 31.6951 76.0125 31.4473 76.0125C31.1994 76.0125 30.5622 76.933 30.5622 76.933H28.7919C28.3709 76.523 27.9915 76.0724 27.659 75.5877C27.3559 75.0915 26.9867 74.6389 26.5615 74.2423C26.3136 74.0299 24.5434 73.3572 24.0832 72.6845C23.743 71.9067 23.5164 71.084 23.4105 70.2417L24.0832 68.2236C24.331 67.5509 24.9683 64.6832 24.9683 64.6832L23.8708 62.913L22.313 64.223L18.9496 66.7012C17.7164 67.0682 16.4455 67.2938 15.1614 67.3739C14.813 67.1233 14.5131 66.8114 14.2763 66.4534C13.7442 65.6881 13.2933 64.8694 12.9309 64.0105C12.6886 63.3631 12.5453 62.6827 12.5061 61.9925C12.1941 61.0119 11.8156 60.0538 11.3731 59.1248C11.1607 58.2043 9.81535 56.8943 9.81535 56.6465C9.81535 56.3986 8.46998 53.9912 8.25756 53.1061C8.04513 52.221 6.02714 52.221 6.02714 52.221C5.11129 51.9034 4.21309 51.537 3.33642 51.1234C3.09467 50.1731 2.95228 49.2001 2.91156 48.2203C2.91156 48.0079 3.33642 45.9898 3.33642 45.7774C2.66744 44.9199 1.93359 44.1151 1.14135 43.3699" fill="#5138E5" fill-opacity="0.2"/>
<path d="M1.10594 43.3345L2.02646 41.9184L8.04514 40.1482C8.88259 40.1299 9.71464 40.2867 10.488 40.6084C11.1607 41.0333 12.2936 40.8208 12.2936 41.4935C12.2936 42.1662 12.2937 42.3786 12.7185 42.5911C13.1434 42.8035 16.2589 41.2811 16.2589 41.2811L18.7018 40.8209L19.3744 40.1482L20.0471 37.7053L21.1801 37.245C21.1801 37.245 22.5255 37.245 22.7379 37.4575C22.9503 37.6699 23.6229 37.245 24.0832 37.7053C24.6253 38.0878 25.2221 38.3862 25.8534 38.5904C26.3157 38.6998 26.7663 38.854 27.1988 39.0506C27.6236 39.2631 28.7565 39.2631 29.2168 40.1482C29.4721 40.8787 29.6849 41.6235 29.8541 42.3786C30.4637 43.037 31.1399 43.6302 31.8721 44.1488H33.2175C33.2175 44.1488 34.9877 43.0513 34.9877 42.8389V40.5022L35.2355 39.5817C36.3018 39.1438 37.4205 38.8463 38.5635 38.6966C39.6964 38.6966 41.0064 38.4842 41.2542 38.4842C42.1045 38.5473 42.9344 38.7758 43.6971 39.1569C44.7871 39.5203 45.8986 39.8159 47.0251 40.042C47.4853 40.2544 49.5034 40.7146 49.9282 40.9271C50.2935 41.1093 50.6723 41.2632 51.0612 41.3873C51.0612 41.3873 53.0792 42.9451 53.2916 43.1575C54.5454 43.3701 55.826 43.3701 57.0798 43.1575C57.2923 42.9451 63.7712 40.7146 63.9836 40.7146L67.524 40.2544L70.4272 40.042C70.4272 40.042 73.7906 38.9444 73.9676 38.9444C74.1446 38.9444 78.8533 38.0239 78.8533 38.0239L81.7565 37.5991C81.7565 37.5991 83.987 38.2717 84.2348 38.2717C84.7031 38.517 85.1425 38.8138 85.5447 39.1569L88.2355 40.2544L91.7759 41.1749C92.4098 41.4648 93.0045 41.8336 93.5461 42.2724C94.0063 42.7327 95.1038 44.0426 95.3517 44.0426C95.5995 44.0426 97.1219 45.8482 97.3343 45.8482C97.5467 45.8482 100.025 46.5209 100.025 46.5209L102.255 45.8482L104.274 44.2905L104.698 43.3345C104.698 43.3345 106.256 42.9097 106.469 43.1221C106.972 43.4445 107.492 43.7399 108.026 44.0072V44.4675L111.567 46.6979L120.064 46.0252L123.392 47.1228L126.755 48.0433L128.738 47.3706C130.006 47.4116 131.274 47.3286 132.526 47.1228C133.749 46.5128 135.015 45.9922 136.314 45.565L138.793 44.0072L141.023 42.237L142.793 41.1041L145.909 40.4314C146.84 40.1576 147.742 39.7899 148.599 39.3339C148.599 39.1214 149.945 36.6432 149.945 36.6432C150.208 36.1414 150.432 35.6207 150.617 35.0854C150.617 34.873 151.715 32.4301 151.715 32.4301L152.6 31.5096L155.963 30.6245L157.982 28.8543L161.097 23.2604L162.655 18.1268L162.867 12.7808V7.04533L163.328 3.89436L165.346 2.79683L168.426 0.849609L171.329 6.90371L173.099 9.55902L173.772 11.3292V12.6746L174.444 14.2324L175.33 15.7901L176.215 17.3833V20.7113L177.135 22.2691V24.0747L176.675 24.9598L176.462 26.3052L176.215 27.4027L177.135 27.8629L178.02 27.4027H179.118L180.038 27.8629L180.463 28.748L180.251 29.6332L180.038 30.5183L179.79 31.1909L179.366 31.6512V32.076L179.79 33.209L182.8 38.6612L185.278 41.5643V44.6799L186.163 46.0252L187.933 48.716V52.7166L189.739 55.6198L190.624 60.7534L193.067 64.754L194.2 67.6572L195.297 70.7727L195.758 73.6759V79.0927L197.315 83.0933L199.971 86.2089L204.68 94.2456L208.007 101.326L211.371 106L212.681 109.328L217.991 118.568L220.47 121.684L222.7 125.472V129.012L223.798 131.668L227.586 135.208C228.651 137.378 230.089 139.343 231.834 141.014C234.525 143.457 241.641 151.954 241.641 151.954L242.774 154.61L246.775 159.743L248.793 163.107V166.222L247.66 167.992L248.793 171.533L252.581 175.994L255.024 178.437H256.157L257.042 183.57L255.024 184.916L257.042 187.146V190.262L258.6 193.802L261.291 195.82L263.734 200.033L266.176 205.839L269.717 210.761L271.735 212.531L272.62 216.567L273.965 221.24V223.01L277.081 224.816V226.799L279.736 230.339L281.082 233.879L283.1 236.11L281.967 239.438V245.138L283.1 250.059L284.657 251.581C282.975 252.16 281.331 252.846 279.736 253.635C279.736 253.847 275.523 256.75 275.523 256.75L272.832 257.175C272.332 257.648 271.882 258.17 271.487 258.733C271.487 258.981 270.602 259.654 270.39 260.078C270.177 260.503 268.159 260.291 268.159 260.539C268.159 260.787 267.274 261.636 267.026 262.097C266.761 262.65 266.617 263.253 266.601 263.867C266.707 264.606 266.707 265.357 266.601 266.097C266.353 266.77 266.601 266.557 266.353 267.655C266.316 267.96 266.193 268.248 265.999 268.486C265.805 268.724 265.547 268.902 265.256 269L261.716 268.115C261.716 268.115 261.291 267.655 261.043 268.115C260.795 268.575 259.485 268.575 259.485 268.575L259.697 267.655C259.697 267.655 257.715 266.097 257.715 265.425C257.715 264.752 258.812 263.654 257.255 262.769C256.369 262.207 255.383 261.823 254.351 261.636C254.139 261.636 253.006 262.097 252.581 261.424C251.636 260.617 250.588 259.939 249.466 259.406C249.466 259.406 246.987 258.733 246.987 259.406C246.987 260.078 245.217 260.539 245.005 261.211C244.792 261.884 242.774 262.557 242.774 262.557L242.314 263.194L240.296 262.097L237.428 261.211H236.083C236.083 261.211 234.738 259.866 234.277 259.866C233.742 259.773 233.219 259.618 232.72 259.406C232.693 259.376 232.66 259.352 232.624 259.335C232.587 259.318 232.547 259.31 232.507 259.31C232.467 259.31 232.427 259.318 232.391 259.335C232.354 259.352 232.321 259.376 232.295 259.406C231.593 259.516 230.875 259.365 230.277 258.981C230.277 258.733 229.144 258.308 229.144 258.308L227.834 257.423C227.834 257.423 226.241 258.06 226.241 258.308C226.241 258.556 224.683 259.406 224.683 259.406L222.913 261.424C222.913 261.424 222.028 262.557 222.028 262.982C222.062 263.247 222.017 263.517 221.897 263.757C221.777 263.997 221.588 264.195 221.355 264.327C220.682 264.787 220.01 265.212 219.549 265C219.089 264.787 215.761 263.654 215.761 263.654H214.876C214.278 263.415 213.745 263.039 213.318 262.557C213.318 262.309 212.645 260.291 212.645 260.291L210.415 259.406L208.185 258.06C208.185 258.06 207.972 257.175 207.76 257.175C207.2 257.417 206.667 257.713 206.167 258.06L205.742 260.291C205.742 260.291 205.069 260.751 205.069 261.211C205.069 261.672 204.396 261.884 203.936 262.309C203.476 262.734 203.511 261.884 203.511 262.769V264.787L201.068 264.327L197.528 263.867L193.279 261.424C193.279 261.424 192.394 260.964 190.837 260.291C189.523 259.816 188.173 259.449 186.8 259.193L185.491 257.636C185.491 257.636 183.897 256.503 183.26 256.75C181.994 256.961 180.718 257.103 179.436 257.175L177.666 255.405C177.666 255.405 175.223 254.52 174.976 254.52H173.878C173.155 253.662 172.481 252.764 171.86 251.829C171.322 251.046 170.731 250.3 170.09 249.599L169.629 249.174H167.187C165.824 249.424 164.485 249.791 163.186 250.272L160.495 250.732L158.937 249.174L156.919 246.696L155.362 244.465L154.901 242.908L152.246 242.235C151.075 242.414 149.891 242.497 148.706 242.483C148.918 242.235 146.935 242.235 146.935 242.235L144.917 244.04C144.917 244.04 143.36 244.926 142.899 244.253C142.303 243.52 141.639 242.844 140.917 242.235L139.784 241.137C139.784 241.137 139.996 239.332 140.457 239.332C141.41 239.248 142.331 238.945 143.147 238.447C143.629 237.804 144.067 237.13 144.457 236.429L146.263 235.119L146.688 233.773C146.688 233.773 148.493 233.101 148.493 232.888C148.176 232.327 147.796 231.805 147.36 231.33C147.36 231.33 145.378 230.41 145.13 230.658C144.043 231.088 142.931 231.454 141.802 231.755L138.686 230.658L137.341 229.737L135.535 228.852L134.225 226.834C134.225 226.834 133.305 225.737 132.88 225.949C132.455 226.161 130.65 226.197 130.189 226.834C129.729 227.471 128.171 227.507 128.171 228.179C128.183 228.439 128.13 228.697 128.019 228.931C127.908 229.166 127.742 229.369 127.534 229.525C127.185 229.854 126.805 230.151 126.401 230.41C125.613 230.053 124.866 229.614 124.171 229.1C124.171 228.852 122.613 228.427 122.613 228.427L121.94 227.082C121.94 227.082 120.843 227.294 120.843 227.755C120.843 228.215 120.595 229.312 120.595 229.525C120.595 229.737 119.922 230.197 119.71 230.658C118.97 231.286 118.148 231.81 117.267 232.215C116.336 232.397 115.432 232.694 114.576 233.101C113.668 233.564 112.685 233.864 111.673 233.986C111.322 233.808 110.954 233.666 110.575 233.561C110.328 233.561 108.77 232.888 108.77 232.64C108.77 232.392 109.23 230.197 109.23 230.197V229.312C109.23 229.312 109.903 228.64 109.903 228.179C109.903 227.719 107.672 225.949 107.672 225.949L107.212 223.718L105.442 223.046L100.981 222.621L97.1927 223.966C96.4686 224.737 95.7945 225.553 95.1746 226.409C95.1746 226.622 95.3871 227.755 95.3871 227.967C95.5789 229.036 95.8876 230.081 96.3076 231.083C96.4136 231.822 96.4136 232.573 96.3076 233.313C96.121 233.998 95.8964 234.671 95.6349 235.331L92.7317 235.791C92.0731 236.144 91.4657 236.585 90.9262 237.101L90.5367 238.057C90.0629 237.569 89.541 237.13 88.9789 236.747C88.7311 236.747 87.1733 236.287 87.1733 236.287C86.7618 236.293 86.3685 236.458 86.0758 236.747C86.0758 236.747 85.6155 237.42 85.4031 237.42H83.3851C83.3851 237.42 82.2876 236.499 82.0397 236.747C81.7919 236.995 79.5969 237.172 79.5969 237.42C79.5969 237.668 79.1366 238.305 79.1366 238.517C79.1366 238.73 76.9061 238.978 76.9061 238.978C76.9061 238.978 76.021 238.517 76.021 238.305C76.021 238.093 74.4633 238.057 74.4633 238.057L73.3657 235.189C72.9413 234.385 72.5631 233.558 72.2328 232.711C71.7752 231.923 71.2666 231.167 70.7104 230.445L71.5601 229.596L72.4452 223.577L72.2328 220.036L74.4633 218.018L75.1359 216.921L74.4633 215.363C74.8898 214.488 75.268 213.589 75.5962 212.672C76.2689 210.902 75.5962 210.442 75.5962 210.442L75.1359 205.556L75.3484 202.653L78.0391 199.962C78.0391 199.962 78.9242 198.405 79.5969 197.307C80.2695 196.209 82.0397 191.253 82.0397 191.253L82.5 189.483C81.8779 188.009 81.6463 186.399 81.8273 184.809C82.2875 182.791 80.0571 182.791 79.3844 182.791C78.7118 182.791 77.154 179.888 77.154 179.888C77.154 179.888 80.482 178.33 81.1546 177.906C81.8273 177.481 81.6149 175.215 81.6149 175.215H84.2702L88.9789 172.099L86.0758 170.541C84.9288 169.381 84.0153 168.011 83.3851 166.505C82.9248 165.16 79.5969 165.833 78.7118 165.408C77.3272 164.97 75.9049 164.662 74.4633 164.487L69.7899 161.832L64.6563 158.292C63.8455 156.916 62.8707 155.644 61.7532 154.503C61.0805 154.291 58.4252 153.158 58.4252 153.158L56.6196 155.389H51.2736V151.777L52.6189 150.467L53.0438 146.431L53.7165 144.201L54.3891 141.758L53.0438 140.413H49.0431L47.0251 138.642L49.7158 137.085L51.2736 135.067L52.6189 132.624L49.9282 131.491L51.2736 128.163V122.781L54.3891 120.799C54.7896 120.375 55.0278 119.823 55.0618 119.241C55.0618 118.32 58.1774 118.32 59.7352 117.648C61.1935 116.862 62.5491 115.899 63.7712 114.78C63.8917 113.603 63.8917 112.417 63.7712 111.24C63.5234 110.567 63.7712 110.142 63.7712 109.009C63.7913 108.875 63.7827 108.739 63.746 108.608C63.7093 108.478 63.6453 108.357 63.5583 108.253C63.4713 108.149 63.3632 108.065 63.2412 108.006C63.1192 107.947 62.9861 107.915 62.8507 107.912V102.955L58.1774 101.61C57.3847 101.052 56.7699 100.278 56.4072 99.3792C55.5221 97.5736 56.4072 96.9364 56.4072 96.9364L53.9289 94.9183L47.4853 92.4754L44.5822 88.935L43.9095 85.3946L44.3698 83.1642V80.4735C44.5687 79.9205 44.9577 79.4562 45.4673 79.1635C46.14 78.7032 45.4673 78.4908 45.4673 78.4908C45.4673 78.4908 44.7946 77.3579 44.5822 76.933C44.4683 76.4918 44.4683 76.0289 44.5822 75.5877L44.1219 74.2423L41.8915 75.3399L41.2188 76.2604L39.661 75.8001L38.1032 75.1274C36.9316 75.3403 35.75 75.4939 34.5628 75.5877C33.6777 75.5877 33.8901 75.3399 33.8901 75.3399C33.8901 75.3399 31.6951 76.0125 31.4473 76.0125C31.1994 76.0125 30.5622 76.933 30.5622 76.933H28.7919C28.3709 76.523 27.9915 76.0724 27.659 75.5877C27.3559 75.0915 26.9867 74.6389 26.5615 74.2423C26.3136 74.0299 24.5434 73.3572 24.0832 72.6845C23.743 71.9067 23.5164 71.084 23.4105 70.2417L24.0832 68.2236C24.331 67.5509 24.9683 64.6832 24.9683 64.6832L23.8708 62.913L22.313 64.223L18.9496 66.7012C17.7164 67.0682 16.4455 67.2938 15.1614 67.3739C14.813 67.1233 14.5131 66.8114 14.2763 66.4534C13.7442 65.6881 13.2933 64.8694 12.9309 64.0105C12.6886 63.3631 12.5453 62.6827 12.5061 61.9925C12.1941 61.0119 11.8156 60.0538 11.3731 59.1248C11.1607 58.2043 9.81535 56.8943 9.81535 56.6465C9.81535 56.3986 8.46998 53.9912 8.25756 53.1061C8.04513 52.221 6.02714 52.221 6.02714 52.221C5.11129 51.9034 4.21309 51.537 3.33642 51.1234C3.09467 50.1731 2.95228 49.2001 2.91156 48.2203C2.91156 48.0079 3.33642 45.9898 3.33642 45.7774C2.66744 44.9199 1.93359 44.1151 1.14135 43.3699" stroke="white" stroke-width="0.5" stroke-linecap="round" stroke-linejoin="round"/>
</svg>
