<svg width="52" height="30" viewBox="0 0 52 30" fill="none" xmlns="http://www.w3.org/2000/svg">
<rect x="0.5" y="0.5" width="51" height="29" rx="3.5" fill="white" fill-opacity="0.15"/>
<circle cx="12" cy="15" r="4" fill="#EA43CF"/>
<path d="M26.619 15.593C26.697 15.19 26.749 14.748 26.749 14.267C26.749 13.734 26.684 13.24 26.58 12.785H29.271V15.593H26.619ZM23.85 17.387C22.732 17.387 21.952 16.165 21.952 14.267C21.952 12.382 22.732 11.16 23.85 11.16C24.955 11.16 25.748 12.382 25.748 14.267C25.748 16.165 24.955 17.387 23.85 17.387ZM29.271 9.301V11.914H26.281C25.787 10.822 24.929 10.198 23.85 10.198C22.147 10.198 20.938 11.784 20.938 14.267C20.938 16.75 22.147 18.336 23.85 18.336C24.968 18.336 25.878 17.647 26.359 16.464H29.271V20.988H30.337V9.301H29.271ZM36.615 11.381H39.202V10.497H32.897V11.381H35.562V12.863C35.562 14.839 34.158 17.049 32.494 17.881L33.118 18.726C34.431 18.05 35.562 16.568 36.095 14.865C36.628 16.425 37.72 17.79 39.02 18.44L39.631 17.582C37.941 16.789 36.615 14.722 36.615 12.863V11.381ZM43.583 14.007H41.659V9.314H40.593V20.962H41.659V14.904H43.583V14.007Z" fill="#333333"/>
<rect x="0.5" y="0.5" width="51" height="29" rx="3.5" stroke="#CCCCCC"/>
</svg>
